<?xml version="1.0" encoding="utf-8"?>
<!-- Generator: Adobe Illustrator 25.0.0, SVG Export Plug-In . SVG Version: 6.00 Build 0)  -->
<svg version="1.1" id="Camada_1" xmlns="http://www.w3.org/2000/svg" xmlns:xlink="http://www.w3.org/1999/xlink" x="0px" y="0px"
	 viewBox="0 0 1522 194" style="enable-background:new 0 0 1522 194;" xml:space="preserve">
<style type="text/css">
	.st0{fill:#AFA3B2;}
</style>
<g>
	<path class="st0" d="M35.2,137.9V38h35.6c32.6,0,48.9,15.7,48.9,47.2c0,35.1-16.5,52.7-49.6,52.7H35.2z M70.1,131.6
		c27.7,0,41.6-15.5,41.6-46.4c0-27.3-13.9-40.9-41.6-40.9H42.5v87.3H70.1z"/>
	<path class="st0" d="M147.3,38v8.4h-8.7V38H147.3z M146.6,64.6V138h-7.3V64.6H146.6z"/>
	<path class="st0" d="M231,137.9c0,17.7-10.8,26.6-32.4,26.6c-9,0-17-1.2-24-3.5v-6.3c7.1,2.3,15.2,3.5,24.2,3.5
		c16.6,0,24.9-6.8,24.9-20.3v-3.5c-8.3,2.3-15.6,3.5-21.9,3.5c-23.2,0-34.8-12.4-34.8-37.1c0-24.2,12.5-36.3,37.4-36.3
		c9.5,0,18.4,1,26.7,3L231,137.9L231,137.9z M223.6,72.8c-6.8-1.1-13.4-1.7-19.9-1.7c-19.8,0-29.7,9.9-29.7,29.6
		c0,20.2,9.2,30.3,27.7,30.3c6.7,0,14-1.3,21.9-3.8V72.8z"/>
	<path class="st0" d="M262.8,38v8.4H254V38H262.8z M262.1,64.6V138h-7.3V64.6H262.1z"/>
	<path class="st0" d="M285.5,52.7h5.2l1.3,11.9h22v6.3h-21.4v46.3c0,9.6,3.5,14.5,10.6,14.5H314v6.3h-10.6
		c-11.9,0-17.9-6.6-17.9-19.8V52.7z"/>
	<path class="st0" d="M359.2,64.6c20.1,0,30.1,11.1,30.1,33.3c0,1.6,0,3.2-0.1,5h-55.7c0,19.2,10.2,28.8,30.5,28.8
		c8.3,0,15.7-1.2,22.2-3.5v6.3c-6.5,2.3-13.9,3.5-22.2,3.5c-25.2,0-37.8-12.5-37.8-37.5C326.1,76.5,337.1,64.6,359.2,64.6z
		 M333.5,96.3h48.8c-0.3-17-8-25.6-23.1-25.6C342.9,70.7,334.3,79.2,333.5,96.3z"/>
	<path class="st0" d="M441.7,134.4v-7c8.2,2.8,16.2,4.2,24,4.2c15.4,0,23.1-4.9,23.1-14.7c0-7.9-5.7-11.9-17.1-11.9h-9.4
		c-15.4,0-23.1-6.5-23.1-19.6c0-14,10.2-21,30.5-21c7.8,0,15.8,1.2,24,3.5v7c-8.2-2.8-16.1-4.2-24-4.2c-15.5,0-23.2,4.9-23.2,14.7
		c0,8.4,5.2,12.6,15.7,12.6h9.4c16.3,0,24.5,6.3,24.5,18.9c0,14-10.2,21-30.5,21C457.9,137.9,449.9,136.8,441.7,134.4z"/>
	<path class="st0" d="M575.5,64.6V138h-5.4l-0.8-9.4c-8.4,6.2-17.8,9.4-28.2,9.4c-17.3,0-26-9.1-26-27.3v-46h7.3V111
		c0,13.7,6.3,20.5,19,20.5c9.3,0,18.2-3.1,26.8-9.3V64.6H575.5z"/>
	<path class="st0" d="M593.7,117.2c0-14.6,9.7-21.9,29.1-21.9c6.8,0,14.2,0.5,21.9,1.4v-9c0-11.2-7.1-16.8-21.2-16.8
		c-8,0-16,1.2-23.9,3.5V68c7.9-2.3,15.9-3.5,23.9-3.5c19,0,28.5,7.6,28.5,22.8v50.6h-4.5l-1.7-7.3c-9.2,4.8-18.1,7.3-26.7,7.3
		C602.2,137.9,593.7,131,593.7,117.2z M622.7,101.6c-14.5,0-21.7,5.1-21.7,15.4c0,9.8,6.1,14.7,18.2,14.7c8.9,0,17.4-2.4,25.5-7.1
		V103C636.9,102.1,629.6,101.6,622.7,101.6z"/>
	<path class="st0" d="M709.3,137.9V64.6h5.2l0.8,9.2c7.5-6.1,15.6-9.2,24.4-9.2c11.6,0,19,3.4,22.4,10.1c8.4-6.7,17-10.1,25.6-10.1
		c16.4,0,24.6,8.1,24.6,24.4v49H805V89c0-11.9-5.8-17.8-17.3-17.8c-9.2,0-16.8,3.2-22.8,9.5V138h-7.3V87.8c0-11.1-6-16.6-17.9-16.6
		c-8.7,0-16.3,3.2-23,9.5V138h-7.4V137.9z"/>
	<path class="st0" d="M864.3,64.6c20.1,0,30.1,11.1,30.1,33.3c0,1.6,0,3.2-0.1,5h-55.7c0,19.2,10.2,28.8,30.5,28.8
		c8.3,0,15.7-1.2,22.2-3.5v6.3c-6.5,2.3-13.9,3.5-22.2,3.5c-25.2,0-37.8-12.5-37.8-37.5C831.2,76.5,842.3,64.6,864.3,64.6z
		 M838.6,96.3h48.8c-0.3-17-8-25.6-23.1-25.6C848,70.7,839.4,79.2,838.6,96.3z"/>
	<path class="st0" d="M913.3,137.9V64.6h5.2l0.9,9.4c9.4-6.2,18.5-9.4,27.5-9.4c17.8,0,26.8,7.7,26.8,23.1v50.2h-7.3V87.5
		c0-10.9-6.6-16.4-19.8-16.4c-8.8,0-17.5,3.1-26,9.3v57.5H913.3z"/>
	<path class="st0" d="M994.7,134.4v-7c8.2,2.8,16.2,4.2,24,4.2c15.4,0,23.1-4.9,23.1-14.7c0-7.9-5.7-11.9-17.1-11.9h-9.4
		c-15.4,0-23.1-6.5-23.1-19.6c0-14,10.2-21,30.5-21c7.8,0,15.8,1.2,24,3.5v7c-8.2-2.8-16.1-4.2-24-4.2c-15.5,0-23.2,4.9-23.2,14.7
		c0,8.4,5.2,12.6,15.7,12.6h9.4c16.3,0,24.5,6.3,24.5,18.9c0,14-10.2,21-30.5,21C1010.8,137.9,1002.8,136.8,994.7,134.4z"/>
	<path class="st0" d="M1063.9,117.2c0-14.6,9.7-21.9,29.1-21.9c6.8,0,14.2,0.5,21.9,1.4v-9c0-11.2-7.1-16.8-21.2-16.8
		c-8,0-16,1.2-23.9,3.5V68c7.9-2.3,15.9-3.5,23.9-3.5c19,0,28.5,7.6,28.5,22.8v50.6h-4.5l-1.7-7.3c-9.2,4.8-18.1,7.3-26.7,7.3
		C1072.4,137.9,1063.9,131,1063.9,117.2z M1092.9,101.6c-14.5,0-21.7,5.1-21.7,15.4c0,9.8,6.1,14.7,18.2,14.7
		c8.9,0,17.4-2.4,25.5-7.1V103C1107.1,102.1,1099.8,101.6,1092.9,101.6z"/>
	<path class="st0" d="M1205.1,137.9c0,17.7-10.8,26.6-32.4,26.6c-9,0-17-1.2-24-3.5v-6.3c7.1,2.3,15.2,3.5,24.2,3.5
		c16.6,0,24.9-6.8,24.9-20.3v-3.5c-8.3,2.3-15.6,3.5-21.9,3.5c-23.2,0-34.8-12.4-34.8-37.1c0-24.2,12.5-36.3,37.4-36.3
		c9.5,0,18.4,1,26.7,3L1205.1,137.9L1205.1,137.9z M1197.8,72.8c-6.8-1.1-13.4-1.7-19.9-1.7c-19.8,0-29.7,9.9-29.7,29.6
		c0,20.2,9.2,30.3,27.7,30.3c6.7,0,14-1.3,21.9-3.8V72.8z"/>
	<path class="st0" d="M1257.1,64.6c20.1,0,30.1,11.1,30.1,33.3c0,1.6,0,3.2-0.1,5h-55.7c0,19.2,10.2,28.8,30.5,28.8
		c8.3,0,15.7-1.2,22.2-3.5v6.3c-6.5,2.3-13.9,3.5-22.2,3.5c-25.2,0-37.8-12.5-37.8-37.5C1224,76.5,1235,64.6,1257.1,64.6z
		 M1231.3,96.3h48.8c-0.3-17-8-25.6-23.1-25.6C1240.7,70.7,1232.2,79.2,1231.3,96.3z"/>
	<path class="st0" d="M1306,137.9V64.6h5.2l0.8,9.2c7.5-6.1,15.6-9.2,24.4-9.2c11.6,0,19,3.4,22.4,10.1c8.4-6.7,17-10.1,25.6-10.1
		c16.4,0,24.6,8.1,24.6,24.4v49h-7.3V89c0-11.9-5.8-17.8-17.3-17.8c-9.2,0-16.8,3.2-22.8,9.5V138h-7.3V87.8c0-11.1-6-16.6-17.9-16.6
		c-8.7,0-16.3,3.2-23,9.5V138h-7.4V137.9z"/>
	<path class="st0" d="M1437.4,129.2v8.7h-9.4v-8.7H1437.4z"/>
	<path class="st0" d="M1462.2,129.2v8.7h-9.4v-8.7H1462.2z"/>
	<path class="st0" d="M1487,129.2v8.7h-9.4v-8.7H1487z"/>
</g>
</svg>
