<?xml version="1.0" encoding="utf-8"?>
<!-- Generator: Adobe Illustrator 25.0.0, SVG Export Plug-In . SVG Version: 6.00 Build 0)  -->
<svg version="1.1" id="Camada_1" xmlns="http://www.w3.org/2000/svg" xmlns:xlink="http://www.w3.org/1999/xlink" x="0px" y="0px"
	 viewBox="0 0 50 50" style="enable-background:new 0 0 50 50;" xml:space="preserve">
<style type="text/css">
	.st0{fill:#E4002B;}
	.st1{fill-rule:evenodd;clip-rule:evenodd;fill:#E5E1E6;}
</style>
<path class="st0" d="M0,0v50h50V0H0z"/>
<desc>Created with Sketch.</desc>
<g id="chat-03_1_" transform="translate(-1288.000000, -709.000000)">
	<path id="_xF086__1_" class="st1" d="M1319.7,726.8c1,1.3,1.5,2.6,1.5,4.1s-0.5,2.9-1.5,4.1c-1,1.3-2.4,2.3-4.1,3s-3.6,1.1-5.7,1.1
		c-0.9,0-1.9-0.1-2.8-0.3c-1.3,0.9-2.8,1.6-4.5,2.1c-0.4,0.1-0.8,0.2-1.4,0.3l0,0c-0.1,0-0.2,0-0.3-0.1c-0.1-0.1-0.2-0.2-0.2-0.3
		v-0.1v-0.1v-0.1v-0.1c0,0,0-0.1,0.1-0.1c0,0,0-0.1,0.1-0.1c0,0,0,0,0.1-0.1l0.1-0.1c0.1-0.1,0.2-0.2,0.4-0.4
		c0.2-0.2,0.3-0.4,0.4-0.5s0.2-0.3,0.4-0.5c0.2-0.2,0.3-0.4,0.4-0.6c0.1-0.2,0.2-0.4,0.3-0.7c-1.3-0.8-2.4-1.7-3.1-2.8
		c-0.8-1.1-1.1-2.3-1.1-3.6c0-1.5,0.5-2.9,1.5-4.1c1-1.3,2.4-2.3,4.1-3s3.6-1.1,5.7-1.1c2,0,3.9,0.4,5.7,1.1
		C1317.3,724.6,1318.7,725.5,1319.7,726.8z M1327.4,735c0,1.3-0.4,2.5-1.1,3.6c-0.8,1.1-1.8,2.1-3.1,2.8c0.1,0.3,0.2,0.5,0.3,0.7
		c0.1,0.2,0.2,0.4,0.4,0.6c0.2,0.2,0.3,0.4,0.4,0.5s0.2,0.3,0.4,0.5c0.2,0.2,0.3,0.3,0.4,0.4c0,0,0,0,0.1,0.1l0.1,0.1
		c0,0,0,0,0.1,0.1c0,0,0,0.1,0.1,0.1v0.1v0.1v0.1v0.1c0,0.1-0.1,0.3-0.2,0.4c-0.1,0.1-0.2,0.1-0.4,0.1c-0.5-0.1-1-0.2-1.4-0.3
		c-1.6-0.4-3.1-1.1-4.5-2.1c-1,0.2-1.9,0.3-2.8,0.3c-2.9,0-5.4-0.7-7.6-2.1c0.6,0,1.1,0.1,1.4,0.1c1.7,0,3.4-0.2,4.9-0.7
		c1.6-0.5,3-1.2,4.2-2.1c1.3-1,2.4-2.1,3.1-3.4c0.7-1.3,1.1-2.6,1.1-4.1c0-0.8-0.1-1.6-0.4-2.4c1.4,0.8,2.5,1.7,3.3,2.9
		C1327,732.5,1327.4,733.7,1327.4,735z"/>
</g>
</svg>
