<?xml version="1.0" encoding="utf-8"?>
<!-- Generator: Adobe Illustrator 25.0.0, SVG Export Plug-In . SVG Version: 6.00 Build 0)  -->
<svg version="1.1" id="Camada_1" xmlns="http://www.w3.org/2000/svg" xmlns:xlink="http://www.w3.org/1999/xlink" x="0px" y="0px"
	 viewBox="0 0 50 50" style="enable-background:new 0 0 50 50;" xml:space="preserve">
<style type="text/css">
	.st0{fill:#E4002B;}
</style>
<path class="st0" d="M0,0v50h50V0H0z M22.2,38.2V26.1h-4v-4.6h4v-3.6c0-1.3,0.3-2.4,0.9-3.4c1-1.8,2.8-2.7,5.2-2.7
	c1.3,0,2.5,0.1,3.6,0.2v4.2h-2.1c-1.3,0-2,0.3-2.4,0.8c-0.1,0.2-0.2,0.4-0.2,0.5c-0.1,0.2-0.1,0.6-0.1,1.4v2.6h4.6l-0.6,4.6h-4v12.1
	H22.2z"/>
</svg>
