<?xml version="1.0" encoding="utf-8"?>
<!-- Generator: Adobe Illustrator 25.0.0, SVG Export Plug-In . SVG Version: 6.00 Build 0)  -->
<svg version="1.1" id="Camada_1" xmlns="http://www.w3.org/2000/svg" xmlns:xlink="http://www.w3.org/1999/xlink" x="0px" y="0px"
	 viewBox="0 0 50 50" style="enable-background:new 0 0 50 50;" xml:space="preserve">
<style type="text/css">
	.st0{fill:#E4002B;}
</style>
<g>
	<path class="st0" d="M26.4,22.9L26.4,22.9C26.3,22.8,26.3,22.8,26.4,22.9L26.4,22.9z"/>
	<path class="st0" d="M0,0v50h50V0H0z M17.9,17.6c-0.6,0.5-1.3,0.8-2.1,0.8c-0.9,0-1.6-0.2-2.1-0.8c-0.5-0.5-0.8-1.1-0.8-1.9
		c0-0.8,0.3-1.4,0.8-1.9c0.6-0.5,1.3-0.7,2.2-0.7c0.8,0,1.5,0.2,2,0.7c0.5,0.5,0.8,1.1,0.9,1.9C18.7,16.5,18.4,17.1,17.9,17.6z
		 M18.3,20.6v15.6h-5.2V20.6H18.3z M21.2,36.1v-7.2v-8.3h5.2v2.2c0.4-0.5,0.9-1.1,1.5-1.7s1.7-0.9,3.1-0.9c1.7,0,3.1,0.6,4.2,1.7
		c1.1,1.1,1.7,2.9,1.7,5.3v8.9h-5.2v-8.3c0-1-0.2-1.9-0.6-2.6s-1-1-2-1c-0.7,0-1.3,0.2-1.8,0.6c-0.4,0.4-0.8,0.8-1,1.3
		c-0.1,0.2-0.1,0.4-0.1,0.6c0,0.2,0,0.5,0,0.7v8.7L21.2,36.1L21.2,36.1z"/>
</g>
</svg>
