<?xml version="1.0" encoding="utf-8"?>
<!-- Generator: Adobe Illustrator 25.0.0, SVG Export Plug-In . SVG Version: 6.00 Build 0)  -->
<svg version="1.1" id="Camada_1" xmlns="http://www.w3.org/2000/svg" xmlns:xlink="http://www.w3.org/1999/xlink" x="0px" y="0px"
	 viewBox="0 0 50 50" style="enable-background:new 0 0 50 50;" xml:space="preserve">
<style type="text/css">
	.st0{fill:#101820;}
</style>
<g>
	<path class="st0" d="M6.3,1C4.5,1,3,1.5,1.8,2.5c-1,1-1.7,2.3-1.7,3.9s0.6,2.9,1.7,3.9c1,1.2,2.5,1.7,4.4,1.7
		c1.7,0,3.1-0.6,4.4-1.7c1-1,1.7-2.3,1.9-3.9c-0.2-1.7-0.8-2.9-1.9-3.9S8,1,6.3,1z"/>
	<rect x="0.5" y="16.6" class="st0" width="10.8" height="32.4"/>
	<path class="st0" d="M46.4,19.3c-2.3-2.3-5.2-3.5-8.7-3.5c-2.9,0-5.2,0.6-6.4,1.9c-1.2,1.2-2.3,2.5-3.1,3.5v-4.6H17.3v32.2h10.4
		V29.3c0-0.4,0-0.8,0.2-1.2c0.4-1,1.2-1.9,2.1-2.7c1-0.8,2.3-1.2,3.7-1.2c2.1,0,3.3,0.6,4.1,2.1c0.8,1.5,1.2,3.3,1.2,5.4v17.2h10.8
		V30.3C49.9,25.3,48.6,21.6,46.4,19.3z"/>
</g>
</svg>
