<?xml version="1.0" encoding="utf-8"?>
<!-- Generator: Adobe Illustrator 24.0.2, SVG Export Plug-In . SVG Version: 6.00 Build 0)  -->
<svg version="1.1" id="Camada_1" xmlns="http://www.w3.org/2000/svg" xmlns:xlink="http://www.w3.org/1999/xlink" x="0px" y="0px"
	 viewBox="0 0 500 111.02" style="enable-background:new 0 0 500 111.02;" xml:space="preserve">
<style type="text/css">
	.st0{fill:#101820;}
	.st1{fill:#E4002B;}
</style>
<g>
	<g>
		<g>
			<path class="st0" d="M90.09,27.22v62.87h-6.29V27.22H90.09z"/>
			<path class="st0" d="M110.45,90.09V27.22h4.49l0.66,7.9c6.43-5.27,13.39-7.9,20.9-7.9c9.9,0,16.3,2.87,19.22,8.62
				c7.22-5.75,14.55-8.62,21.98-8.62c14.05,0,21.08,6.97,21.08,20.9v41.97h-6.29V48.11c0-10.18-4.95-15.27-14.85-15.27
				c-7.9,0-14.43,2.72-19.58,8.14v49.1h-6.29V47.1c0-9.5-5.11-14.25-15.33-14.25c-7.42,0-13.99,2.72-19.7,8.14v49.1H110.45z"/>
			<path class="st0" d="M217.93,29.79c7.14-1.72,15.17-2.57,24.07-2.57c20.16,0,30.24,9.96,30.24,29.88
				c0,22-10.14,32.99-30.42,32.99c-5.03,0-10.9-1-17.6-2.99v23.93h-6.29V29.79z M224.21,80.86c6.35,2.16,12.19,3.23,17.54,3.23
				c16.25,0,24.37-9.04,24.37-27.12c0-16.09-8.08-24.13-24.25-24.13c-5.59,0-11.48,0.48-17.66,1.44V80.86z"/>
			<path class="st0" d="M340.19,27.22v62.87h-4.61l-0.72-8.02c-7.23,5.35-15.29,8.02-24.19,8.02c-14.85,0-22.27-7.8-22.27-23.41
				V27.22h6.29v39.64c0,11.74,5.43,17.6,16.29,17.6c7.94,0,15.59-2.65,22.93-7.96V27.22H340.19z"/>
			<path class="st0" d="M366.84,6.28l0,83.81h-6.29l0-83.81H366.84z"/>
			<path class="st0" d="M386,87.09V81.1c6.98,2.4,13.85,3.59,20.6,3.59c13.21,0,19.82-4.19,19.82-12.57
				c0-6.79-4.89-10.18-14.67-10.18h-8.02c-13.17,0-19.76-5.59-19.76-16.77c0-11.98,8.72-17.96,26.17-17.96
				c6.71,0,13.55,1,20.54,2.99v5.99c-6.99-2.4-13.83-3.59-20.54-3.59c-13.25,0-19.88,4.19-19.88,12.57
				c0,7.19,4.49,10.78,13.47,10.78h8.02c13.97,0,20.96,5.39,20.96,16.17c0,11.98-8.7,17.96-26.11,17.96
				C399.85,90.09,392.98,89.09,386,87.09z"/>
			<path class="st0" d="M474.19,27.22c17.2,0,25.81,9.52,25.81,28.56c0,1.36-0.04,2.77-0.12,4.25h-47.72
				c0,16.45,8.7,24.67,26.11,24.67c7.14,0,13.49-1,19.04-2.99v5.39c-5.55,2-11.89,2.99-19.04,2.99c-21.6,0-32.39-10.72-32.39-32.15
				C445.87,37.45,455.31,27.22,474.19,27.22z M452.16,54.4h41.79c-0.24-14.61-6.82-21.91-19.76-21.91
				C460.22,32.49,452.88,39.79,452.16,54.4z"/>
		</g>
		<g>
			<rect x="83.8" y="0" class="st1" width="6.29" height="6.29"/>
			<g>
				<g>
					<rect x="3.14" y="80.66" class="st1" width="6.29" height="6.29"/>
					<polygon class="st1" points="72.3,17.79 62.87,29.44 50.3,44.97 34.58,64.38 34.58,86.94 24.49,76.85 18.86,83.8 15.72,74.37 
						6.29,71.23 13.24,65.6 3.14,55.51 25.7,55.51 45.12,39.79 60.65,27.22 					"/>
				</g>
				<g>
					<polygon class="st1" points="58.65,27.22 43.12,39.79 12.57,39.79 0,52.36 0,27.22 					"/>
					<polygon class="st1" points="62.87,31.43 62.87,90.09 37.72,90.09 50.3,77.51 50.3,46.96 					"/>
				</g>
			</g>
		</g>
	</g>
</g>
</svg>
