<?xml version="1.0" encoding="utf-8"?>
<!-- Generator: Adobe Illustrator 25.0.0, SVG Export Plug-In . SVG Version: 6.00 Build 0)  -->
<svg version="1.1" id="Camada_1" xmlns="http://www.w3.org/2000/svg" xmlns:xlink="http://www.w3.org/1999/xlink" x="0px" y="0px"
	 viewBox="0 0 535.5 118.9" style="enable-background:new 0 0 535.5 118.9;" xml:space="preserve">
<style type="text/css">
	.st0{fill:#101820;}
	.st1{fill:#E4002B;}
</style>
<g>
	<g>
		<g>
			<path class="st0" d="M96.5,29.1v67.3h-6.7V29.1H96.5z"/>
			<path class="st0" d="M118.3,96.5V29.1h4.8l0.7,8.5c6.9-5.6,14.3-8.5,22.4-8.5c10.6,0,17.5,3.1,20.6,9.2
				c7.7-6.2,15.6-9.2,23.5-9.2c15.1,0,22.6,7.5,22.6,22.4v44.9h-6.7V51.5c0-10.9-5.3-16.3-15.9-16.3c-8.5,0-15.4,2.9-21,8.7v52.6
				h-6.7v-46c0-10.2-5.5-15.3-16.4-15.3c-7.9,0-15,2.9-21.1,8.7v52.6H118.3z"/>
			<path class="st0" d="M233.4,31.9c7.6-1.8,16.2-2.8,25.8-2.8c21.6,0,32.4,10.7,32.4,32c0,23.6-10.9,35.3-32.6,35.3
				c-5.4,0-11.7-1.1-18.9-3.2v25.6h-6.7L233.4,31.9L233.4,31.9z M240.1,86.6c6.8,2.3,13.1,3.5,18.8,3.5c17.4,0,26.1-9.7,26.1-29
				c0-17.2-8.7-25.8-26-25.8c-6,0-12.3,0.5-18.9,1.5L240.1,86.6L240.1,86.6z"/>
			<path class="st0" d="M364.3,29.1v67.3h-4.9l-0.8-8.6c-7.7,5.7-16.4,8.6-25.9,8.6c-15.9,0-23.9-8.4-23.9-25.1V29.1h6.7v42.4
				c0,12.6,5.8,18.8,17.4,18.8c8.5,0,16.7-2.8,24.6-8.5V29.1H364.3z"/>
			<path class="st0" d="M392.9,6.7v89.8h-6.7V6.7C386.1,6.7,392.9,6.7,392.9,6.7z"/>
			<path class="st0" d="M413.4,93.3v-6.4c7.5,2.6,14.8,3.8,22.1,3.8c14.1,0,21.2-4.5,21.2-13.5c0-7.3-5.2-10.9-15.7-10.9h-8.6
				c-14.1,0-21.2-6-21.2-18c0-12.8,9.3-19.2,28-19.2c7.2,0,14.5,1.1,22,3.2v6.4c-7.5-2.6-14.8-3.8-22-3.8
				c-14.2,0-21.3,4.5-21.3,13.5c0,7.7,4.8,11.5,14.4,11.5h8.6c15,0,22.4,5.8,22.4,17.3c0,12.8-9.3,19.2-28,19.2
				C428.2,96.5,420.9,95.4,413.4,93.3z"/>
			<path class="st0" d="M507.8,29.1c18.4,0,27.6,10.2,27.6,30.6c0,1.5,0,3-0.1,4.6h-51.1c0,17.6,9.3,26.4,28,26.4
				c7.7,0,14.5-1.1,20.4-3.2v5.8c-5.9,2.1-12.7,3.2-20.4,3.2c-23.1,0-34.7-11.5-34.7-34.4C477.5,40.1,487.6,29.1,507.8,29.1z
				 M484.2,58.3H529c-0.3-15.6-7.3-23.5-21.2-23.5C492.9,34.8,485,42.6,484.2,58.3z"/>
		</g>
		<g>
			<rect x="89.8" class="st1" width="6.7" height="6.7"/>
			<g>
				<g>
					<rect x="3.4" y="86.4" class="st1" width="6.7" height="6.7"/>
					<polygon class="st1" points="77.4,19 67.3,31.5 53.9,48.2 37,68.9 37,93.1 26.2,82.3 20.2,89.8 16.8,79.7 6.7,76.3 14.2,70.2 
						3.4,59.5 27.5,59.5 48.3,42.6 64.9,29.1 					"/>
				</g>
				<g>
					<polygon class="st1" points="62.8,29.1 46.2,42.6 13.5,42.6 0,56.1 0,29.1 					"/>
					<polygon class="st1" points="67.3,33.7 67.3,96.5 40.4,96.5 53.9,83 53.9,50.3 					"/>
				</g>
			</g>
		</g>
	</g>
</g>
</svg>
