<?xml version="1.0" encoding="utf-8"?>
<!-- Generator: Adobe Illustrator 25.0.0, SVG Export Plug-In . SVG Version: 6.00 Build 0)  -->
<svg version="1.1" id="Camada_1" xmlns="http://www.w3.org/2000/svg" xmlns:xlink="http://www.w3.org/1999/xlink" x="0px" y="0px"
	 viewBox="0 0 539.7 94.4" style="enable-background:new 0 0 539.7 94.4;" xml:space="preserve">
<style type="text/css">
	.st0{fill:#E5E1E6;}
	.st1{fill:#E4002B;}
</style>
<g>
	<g>
		<g>
			<path class="st0" d="M103.3,84.7h0.7v2.9c0.8-0.2,1.6-0.3,2.2-0.3c2.2,0,3.2,1.1,3.2,3.4c0,2.4-1.1,3.7-3.4,3.7
				c-1,0-1.9-0.1-2.7-0.3C103.3,94.1,103.3,84.7,103.3,84.7z M104,93.5c0.7,0.1,1.4,0.2,2,0.2c1.8,0,2.8-1,2.8-3.1
				c0-1.8-0.8-2.7-2.5-2.7c-0.7,0-1.4,0.1-2.2,0.4v5.2H104z"/>
			<path class="st0" d="M119.3,87.3v7.1h-0.5l-0.1-0.9c-0.8,0.6-1.7,0.9-2.7,0.9c-1.7,0-2.5-0.9-2.5-2.6v-4.4h0.7v4.5
				c0,1.3,0.6,2,1.8,2c0.9,0,1.8-0.3,2.6-0.9v-5.5h0.7V87.3z"/>
			<path class="st0" d="M123.5,94v-0.7c0.8,0.3,1.6,0.4,2.3,0.4c1.5,0,2.2-0.5,2.2-1.4c0-0.8-0.6-1.2-1.7-1.2h-0.9
				c-1.5,0-2.2-0.6-2.2-1.9s1-2,2.9-2c0.8,0,1.5,0.1,2.3,0.3v0.7c-0.8-0.3-1.6-0.4-2.3-0.4c-1.5,0-2.2,0.5-2.2,1.4
				c0,0.8,0.5,1.2,1.5,1.2h0.9c1.6,0,2.4,0.6,2.4,1.8c0,1.3-1,2-2.9,2C125,94.4,124.3,94.3,123.5,94z"/>
			<path class="st0" d="M133.7,84.7v0.8h-0.8v-0.8H133.7z M133.6,87.3v7.1h-0.7v-7.1H133.6z"/>
			<path class="st0" d="M138.1,94.4v-7.1h0.5l0.1,0.9c0.9-0.6,1.8-0.9,2.6-0.9c1.7,0,2.6,0.7,2.6,2.2v4.8h-0.7v-4.9
				c0-1.1-0.6-1.6-1.9-1.6c-0.9,0-1.7,0.3-2.5,0.9v5.5C138.8,94.4,138.1,94.4,138.1,94.4z"/>
			<path class="st0" d="M151.1,87.3c1.9,0,2.9,1.1,2.9,3.2c0,0.2,0,0.3,0,0.5h-5.4c0,1.8,1,2.8,2.9,2.8c0.8,0,1.5-0.1,2.1-0.3V94
				c-0.6,0.2-1.3,0.3-2.1,0.3c-2.4,0-3.6-1.2-3.6-3.6C147.9,88.4,149,87.3,151.1,87.3z M148.7,90.4h4.7c0-1.6-0.8-2.5-2.2-2.5
				C149.6,87.9,148.7,88.7,148.7,90.4z"/>
			<path class="st0" d="M157.9,94v-0.7c0.8,0.3,1.6,0.4,2.3,0.4c1.5,0,2.2-0.5,2.2-1.4c0-0.8-0.6-1.2-1.6-1.2h-0.9
				c-1.5,0-2.2-0.6-2.2-1.9s1-2,2.9-2c0.8,0,1.5,0.1,2.3,0.3v0.7c-0.8-0.3-1.6-0.4-2.3-0.4c-1.5,0-2.2,0.5-2.2,1.4
				c0,0.8,0.5,1.2,1.5,1.2h0.9c1.6,0,2.4,0.6,2.4,1.8c0,1.3-1,2-2.9,2C159.5,94.4,158.7,94.3,157.9,94z"/>
			<path class="st0" d="M167.1,94v-0.7c0.8,0.3,1.6,0.4,2.3,0.4c1.5,0,2.2-0.5,2.2-1.4c0-0.8-0.6-1.2-1.6-1.2h-0.9
				c-1.5,0-2.2-0.6-2.2-1.9s1-2,2.9-2c0.8,0,1.5,0.1,2.3,0.3v0.7c-0.8-0.3-1.6-0.4-2.3-0.4c-1.5,0-2.2,0.5-2.2,1.4
				c0,0.8,0.5,1.2,1.5,1.2h0.9c1.6,0,2.4,0.6,2.4,1.8c0,1.3-1,2-2.9,2C168.6,94.4,167.9,94.3,167.1,94z"/>
			<path class="st0" d="M181.8,94v-0.7c0.8,0.3,1.6,0.4,2.3,0.4c1.5,0,2.2-0.5,2.2-1.4c0-0.8-0.6-1.2-1.6-1.2h-0.9
				c-1.5,0-2.2-0.6-2.2-1.9s1-2,2.9-2c0.8,0,1.5,0.1,2.3,0.3v0.7c-0.8-0.3-1.6-0.4-2.3-0.4c-1.5,0-2.2,0.5-2.2,1.4
				c0,0.8,0.5,1.2,1.5,1.2h0.9c1.6,0,2.4,0.6,2.4,1.8c0,1.3-1,2-2.9,2C183.4,94.4,182.6,94.3,181.8,94z"/>
			<path class="st0" d="M190.7,90.8c0-2.4,1.1-3.6,3.3-3.6s3.3,1.2,3.3,3.6s-1.1,3.6-3.3,3.6C191.9,94.4,190.8,93.2,190.7,90.8z
				 M194,93.8c1.7,0,2.6-1,2.6-3s-0.9-3-2.6-3s-2.6,1-2.6,3S192.3,93.8,194,93.8z"/>
			<path class="st0" d="M202.2,84.7v9.6h-0.7v-9.6H202.2z"/>
			<path class="st0" d="M212.5,87.3v7.1H212l-0.1-0.9c-0.8,0.6-1.7,0.9-2.7,0.9c-1.7,0-2.5-0.9-2.5-2.6v-4.4h0.7v4.5
				c0,1.3,0.6,2,1.8,2c0.9,0,1.8-0.3,2.6-0.9v-5.5h0.7V87.3z"/>
			<path class="st0" d="M216.9,86.2h0.5l0.1,1.2h2.1V88h-2.1v4.5c0,0.9,0.3,1.4,1,1.4h1v0.6h-1c-1.1,0-1.7-0.6-1.7-1.9L216.9,86.2
				L216.9,86.2z"/>
			<path class="st0" d="M224.2,84.7v0.8h-0.8v-0.8H224.2z M224.2,87.3v7.1h-0.7v-7.1H224.2z"/>
			<path class="st0" d="M228.3,90.8c0-2.4,1.1-3.6,3.3-3.6s3.3,1.2,3.3,3.6s-1.1,3.6-3.3,3.6C229.4,94.4,228.3,93.2,228.3,90.8z
				 M231.6,93.8c1.7,0,2.6-1,2.6-3s-0.9-3-2.6-3s-2.6,1-2.6,3S229.9,93.8,231.6,93.8z"/>
			<path class="st0" d="M239,94.4v-7.1h0.5l0.1,0.9c0.9-0.6,1.8-0.9,2.6-0.9c1.7,0,2.6,0.7,2.6,2.2v4.8h-0.7v-4.9
				c0-1.1-0.6-1.6-1.9-1.6c-0.9,0-1.7,0.3-2.5,0.9v5.5C239.7,94.4,239,94.4,239,94.4z"/>
			<path class="st0" d="M249,94v-0.7c0.8,0.3,1.6,0.4,2.3,0.4c1.5,0,2.2-0.5,2.2-1.4c0-0.8-0.6-1.2-1.6-1.2H251
				c-1.5,0-2.2-0.6-2.2-1.9s1-2,2.9-2c0.8,0,1.5,0.1,2.3,0.3v0.7c-0.8-0.3-1.6-0.4-2.3-0.4c-1.5,0-2.2,0.5-2.2,1.4
				c0,0.8,0.5,1.2,1.5,1.2h0.9c1.6,0,2.4,0.6,2.4,1.8c0,1.3-1,2-2.9,2C250.6,94.4,249.8,94.3,249,94z"/>
		</g>
		<g>
			<g>
				<path class="st0" d="M64.4,19.5v45h-4.5v-45H64.4z"/>
				<path class="st0" d="M79,64.4v-45h3.2l0.5,5.6c4.6-3.8,9.6-5.6,14.9-5.6c7.1,0,11.7,2.1,13.7,6.2c5.2-4.1,10.4-6.2,15.7-6.2
					c10,0,15.1,5,15.1,14.9v30h-4.5v-30c0-7.3-3.5-10.9-10.6-10.9c-5.7,0-10.3,1.9-14,5.8v35.1h-4.5V33.7c0-6.8-3.7-10.2-11-10.2
					c-5.3,0-10,1.9-14.1,5.8v35.1C83.4,64.4,79,64.4,79,64.4z"/>
				<path class="st0" d="M155.9,21.3c5.1-1.2,10.9-1.8,17.2-1.8c14.4,0,21.6,7.1,21.6,21.4c0,15.7-7.2,23.6-21.8,23.6
					c-3.6,0-7.8-0.7-12.6-2.1v17.1h-4.5L155.9,21.3L155.9,21.3z M160.3,57.8c4.5,1.5,8.7,2.3,12.6,2.3c11.6,0,17.4-6.5,17.4-19.4
					c0-11.5-5.8-17.3-17.3-17.3c-4,0-8.2,0.3-12.6,1L160.3,57.8L160.3,57.8z"/>
				<path class="st0" d="M243.3,19.5v45H240l-0.5-5.7c-5.2,3.8-10.9,5.7-17.3,5.7c-10.6,0-15.9-5.6-15.9-16.7V19.5h4.5v28.3
					c0,8.4,3.9,12.6,11.6,12.6c5.7,0,11.1-1.9,16.4-5.7V19.5H243.3z"/>
				<path class="st0" d="M262.3,4.5v59.9h-4.5V4.5H262.3z"/>
				<path class="st0" d="M276,62.3V58c5,1.7,9.9,2.6,14.7,2.6c9.5,0,14.2-3,14.2-9c0-4.8-3.5-7.3-10.5-7.3h-5.7
					c-9.4,0-14.1-4-14.1-12c0-8.6,6.2-12.9,18.7-12.9c4.8,0,9.7,0.7,14.7,2.1v4.3c-5-1.7-9.9-2.6-14.7-2.6c-9.5,0-14.2,3-14.2,9
					c0,5.1,3.2,7.7,9.6,7.7h5.7c10,0,15,3.8,15,11.6c0,8.6-6.2,12.9-18.7,12.9C286,64.4,281,63.7,276,62.3z"/>
				<path class="st0" d="M339.1,19.5c12.3,0,18.5,6.8,18.5,20.4c0,1,0,2-0.1,3h-34.1c0,11.8,6.2,17.6,18.7,17.6
					c5.1,0,9.6-0.7,13.6-2.1v3.8c-4,1.4-8.5,2.1-13.6,2.1c-15.4,0-23.2-7.7-23.2-23C318.9,26.8,325.6,19.5,339.1,19.5z M323.4,38.9
					h29.9c-0.2-10.5-4.9-15.7-14.1-15.7C329.1,23.2,323.9,28.5,323.4,38.9z"/>
			</g>
			<g>
				<rect x="59.9" class="st1" width="4.5" height="4.5"/>
				<g>
					<g>
						<rect x="2.2" y="57.7" class="st1" width="4.5" height="4.5"/>
						<polygon class="st1" points="51.7,12.7 45,21 36,32.2 24.7,46 24.7,62.2 17.5,55 13.5,59.9 11.2,53.2 4.5,50.9 9.5,46.9 
							2.2,39.7 18.4,39.7 32.3,28.5 43.4,19.5 						"/>
					</g>
					<g>
						<polygon class="st1" points="41.9,19.5 30.8,28.5 9,28.5 0,37.5 0,19.5 						"/>
						<polygon class="st1" points="45,22.5 45,64.4 27,64.4 36,55.4 36,33.6 						"/>
					</g>
				</g>
			</g>
		</g>
	</g>
	<rect x="387.5" class="st1" width="4.5" height="94.4"/>
	<g>
		<path class="st0" d="M424.1,14.9v1.4h-1.5v-1.4C422.7,14.9,424.1,14.9,424.1,14.9z M424,19.5V32h-1.2V19.5H424z"/>
		<path class="st0" d="M428.1,32V19.5h0.9l0.1,1.6c1.3-1,2.7-1.6,4.2-1.6c2,0,3.2,0.6,3.8,1.7c1.4-1.1,2.9-1.7,4.4-1.7
			c2.8,0,4.2,1.4,4.2,4.2V32h-1.2v-8.4c0-2-1-3-3-3c-1.6,0-2.9,0.5-3.9,1.6V32h-1.2v-8.6c0-1.9-1-2.8-3-2.8c-1.5,0-2.8,0.5-3.9,1.6
			V32C429.4,32,428.1,32,428.1,32z"/>
		<path class="st0" d="M449.5,20c1.4-0.3,3-0.5,4.8-0.5c4,0,6,2,6,5.9c0,4.4-2,6.6-6.1,6.6c-1,0-2.2-0.2-3.5-0.6v5.1h-1.2L449.5,20
			L449.5,20z M450.8,30.1c1.3,0.4,2.4,0.6,3.5,0.6c3.2,0,4.9-1.8,4.9-5.4c0-3.2-1.6-4.8-4.8-4.8c-1.1,0-2.3,0.1-3.5,0.3L450.8,30.1
			L450.8,30.1z"/>
		<path class="st0" d="M473.9,19.5V32H473l-0.1-1.6c-1.4,1.1-3,1.6-4.8,1.6c-3,0-4.4-1.5-4.4-4.7v-7.9h1.2v7.9
			c0,2.3,1.1,3.5,3.2,3.5c1.6,0,3.1-0.5,4.6-1.6v-9.8L473.9,19.5L473.9,19.5z"/>
		<path class="st0" d="M479.1,14.9v17h-1.2v-17H479.1z"/>
		<path class="st0" d="M483,31.4v-1.2c1.4,0.5,2.8,0.7,4.1,0.7c2.6,0,4-0.8,4-2.5c0-1.4-1-2-2.9-2h-1.6c-2.6,0-3.9-1.1-3.9-3.3
			c0-2.4,1.7-3.6,5.2-3.6c1.3,0,2.7,0.2,4.1,0.6v1.2c-1.4-0.5-2.8-0.7-4.1-0.7c-2.6,0-4,0.8-4,2.5c0,1.4,0.9,2.1,2.7,2.1h1.6
			c2.8,0,4.2,1.1,4.2,3.2c0,2.4-1.7,3.6-5.2,3.6C485.7,32,484.4,31.8,483,31.4z"/>
		<path class="st0" d="M497.1,14.9v1.4h-1.5v-1.4H497.1z M497,19.5V32h-1.2V19.5H497z"/>
		<path class="st0" d="M500.4,25.7c0-4.2,2-6.4,5.8-6.4s5.8,2.1,5.8,6.4s-2,6.4-5.8,6.4C502.4,32.1,500.5,30,500.4,25.7z M506.3,31
			c3.1,0,4.6-1.8,4.6-5.4c0-3.5-1.5-5.3-4.6-5.3s-4.6,1.8-4.6,5.3C501.7,29.2,503.2,31,506.3,31z"/>
		<path class="st0" d="M515.3,32V19.5h0.9l0.2,1.6c1.6-1.1,3.2-1.6,4.7-1.6c3,0,4.6,1.3,4.6,4V32h-1.2v-8.6c0-1.9-1.1-2.8-3.4-2.8
			c-1.5,0-3,0.5-4.4,1.6V32C516.6,32,515.3,32,515.3,32z"/>
		<path class="st0" d="M534.5,19.5c3.4,0,5.1,1.9,5.1,5.7c0,0.3,0,0.5,0,0.9h-9.5c0,3.3,1.7,4.9,5.2,4.9c1.4,0,2.7-0.2,3.8-0.6v1.1
			c-1.1,0.4-2.4,0.6-3.8,0.6c-4.3,0-6.5-2.1-6.5-6.4C528.9,21.5,530.8,19.5,534.5,19.5z M530.1,24.9h8.3c0-2.9-1.4-4.4-3.9-4.4
			C531.7,20.5,530.3,22,530.1,24.9z"/>
		<path class="st0" d="M421.9,49.4c0-4.2,2-6.4,5.8-6.4c3.9,0,5.8,2.1,5.8,6.4s-2,6.4-5.8,6.4C423.9,55.8,422,53.7,421.9,49.4z
			 M427.8,54.7c3.1,0,4.6-1.8,4.6-5.3s-1.5-5.3-4.6-5.3s-4.6,1.8-4.6,5.3C423.2,52.9,424.7,54.7,427.8,54.7z"/>
		<path class="st0" d="M442.6,55.1v-1.2c1.4,0.5,2.8,0.7,4.1,0.7c2.6,0,4-0.8,4-2.5c0-1.3-1-2-2.9-2h-1.6c-2.6,0-3.9-1.1-3.9-3.3
			c0-2.4,1.7-3.6,5.2-3.6c1.3,0,2.7,0.2,4.1,0.6V45c-1.4-0.5-2.8-0.7-4.1-0.7c-2.6,0-4,0.8-4,2.5c0,1.4,0.9,2.2,2.7,2.2h1.6
			c2.8,0,4.2,1.1,4.2,3.2c0,2.4-1.7,3.6-5.2,3.6C445.3,55.7,444,55.5,442.6,55.1z"/>
		<path class="st0" d="M460.1,43.2c3.4,0,5.1,1.9,5.1,5.7c0,0.3,0,0.5,0,0.8h-9.5c0,3.3,1.7,4.9,5.2,4.9c1.4,0,2.7-0.2,3.8-0.6v1.1
			c-1.1,0.4-2.4,0.6-3.8,0.6c-4.3,0-6.5-2.1-6.5-6.4C454.5,45.2,456.4,43.2,460.1,43.2z M455.8,48.6h8.3c0-2.9-1.4-4.4-3.9-4.4
			C457.4,44.2,455.9,45.7,455.8,48.6z"/>
		<path class="st0" d="M478.8,43.2v12.5h-0.9l-0.1-1.6c-1.4,1.1-3,1.6-4.8,1.6c-3,0-4.4-1.5-4.4-4.7v-7.9h1.2V51
			c0,2.3,1.1,3.5,3.2,3.5c1.6,0,3.1-0.5,4.6-1.6v-9.8L478.8,43.2L478.8,43.2z"/>
		<path class="st0" d="M422.1,79.4V66.8h2.4l0.4,1.8c1.2-1.2,2.6-1.8,4.1-1.8c3,0,4.5,1.5,4.5,4.6v7.9h-3.2v-7.9
			c0-1.4-0.7-2.1-2.1-2.1c-1,0-2,0.4-3,1.2v8.7C425.3,79.4,422.1,79.4,422.1,79.4z"/>
		<path class="st0" d="M441.8,66.8c3.8,0,5.7,1.9,5.7,5.8c0,0.5,0,1-0.1,1.6h-8.3c0,1.8,1.3,2.7,3.9,2.7c1.3,0,2.5-0.1,3.8-0.4V79
			c-1.1,0.2-2.5,0.4-4,0.4c-4.5,0-6.8-2.1-6.8-6.4C435.9,68.9,437.9,66.8,441.8,66.8z M439.1,72h5.3v-0.1c0-1.7-0.9-2.6-2.6-2.6
			C440.1,69.3,439.2,70.2,439.1,72z"/>
		<path class="st0" d="M461,78.4c0,3.7-2.2,5.5-6.6,5.5c-1.5,0-2.9-0.2-4.1-0.6v-2.5c1.2,0.4,2.6,0.6,4.1,0.6c2.3,0,3.4-0.9,3.4-2.9
			c-0.9,0.4-2,0.6-3,0.6c-3.7,0-5.6-2-5.6-6.1s2.2-6.2,6.5-6.2c1.5,0,3.2,0.2,5.3,0.5L461,78.4L461,78.4z M457.9,69.7
			c-0.5-0.2-1.2-0.3-2.2-0.3c-2.2,0-3.3,1.2-3.3,3.6c0,2.3,0.9,3.5,2.8,3.5c0.9,0,1.8-0.2,2.7-0.6V69.7z"/>
		<path class="st0" d="M463.4,73.1c0-4.2,2.1-6.3,6.2-6.3s6.2,2.1,6.2,6.3c0,4.2-2.1,6.3-6.2,6.3S463.4,77.3,463.4,73.1z M469.6,77
			c2,0,3-1.3,3-3.9s-1-3.8-3-3.8s-3,1.3-3,3.8C466.6,75.7,467.6,77,469.6,77z M469.5,62.3h3.8l-2.9,3.1h-2.7L469.5,62.3z"/>
		<path class="st0" d="M487.4,79c-1,0.2-2.1,0.4-3.2,0.4c-4.5,0-6.7-2.2-6.7-6.5c0-4,2.2-6,6.7-6c1.1,0,2.2,0.1,3.2,0.4v2.5
			c-1-0.2-2-0.4-3-0.4c-2.5,0-3.8,1.2-3.8,3.5c0,2.7,1.2,4,3.8,4c1,0,2-0.1,3-0.4V79z"/>
		<path class="st0" d="M492.7,62.3v2.5h-3.2v-2.5C489.5,62.3,492.7,62.3,492.7,62.3z M492.7,66.8v12.5h-3.2V66.8H492.7z"/>
		<path class="st0" d="M495.1,73.1c0-4.2,2.1-6.3,6.2-6.3s6.2,2.1,6.2,6.3c0,4.2-2.1,6.3-6.2,6.3S495.1,77.3,495.1,73.1z M501.3,77
			c2,0,3-1.3,3-3.9s-1-3.8-3-3.8s-3,1.3-3,3.8C498.2,75.7,499.2,77,501.3,77z"/>
	</g>
</g>
</svg>
