<?xml version="1.0" encoding="utf-8"?>
<!-- Generator: Adobe Illustrator 24.0.2, SVG Export Plug-In . SVG Version: 6.00 Build 0)  -->
<svg version="1.1" id="Camada_1" xmlns="http://www.w3.org/2000/svg" xmlns:xlink="http://www.w3.org/1999/xlink" x="0px" y="0px"
	 viewBox="0 0 535.48 118.9" style="enable-background:new 0 0 535.48 118.9;" xml:space="preserve">
<style type="text/css">
	.st0{fill:#E5E1E6;}
	.st1{fill:#E4002B;}
</style>
<g>
	<g>
		<g>
			<path class="st0" d="M96.48,29.15v67.33h-6.73V29.15H96.48z"/>
			<path class="st0" d="M118.29,96.48V29.15h4.81l0.7,8.46c6.88-5.64,14.34-8.46,22.38-8.46c10.6,0,17.46,3.08,20.58,9.23
				c7.74-6.16,15.58-9.23,23.53-9.23c15.05,0,22.57,7.46,22.57,22.38v44.95h-6.73V51.53c0-10.9-5.3-16.35-15.9-16.35
				c-8.46,0-15.45,2.91-20.97,8.72v52.58h-6.73V50.44c0-10.17-5.47-15.26-16.42-15.26c-7.95,0-14.98,2.91-21.1,8.72v52.58H118.29z"
				/>
			<path class="st0" d="M233.39,31.9c7.65-1.84,16.24-2.76,25.78-2.76c21.59,0,32.38,10.67,32.38,32
				c0,23.56-10.86,35.33-32.58,35.33c-5.39,0-11.67-1.07-18.85-3.21v25.63h-6.73V31.9z M240.12,86.6c6.8,2.31,13.06,3.46,18.79,3.46
				c17.4,0,26.1-9.68,26.1-29.05c0-17.23-8.66-25.84-25.97-25.84c-5.99,0-12.29,0.51-18.92,1.54V86.6z"/>
			<path class="st0" d="M364.33,29.15v67.33h-4.94l-0.77-8.59c-7.74,5.73-16.37,8.59-25.91,8.59c-15.9,0-23.85-8.36-23.85-25.07
				V29.15h6.73V71.6c0,12.57,5.81,18.85,17.44,18.85c8.51,0,16.69-2.84,24.56-8.53V29.15H364.33z"/>
			<path class="st0" d="M392.87,6.73l0,89.75h-6.73l0-89.75H392.87z"/>
			<path class="st0" d="M413.39,93.27v-6.41c7.48,2.56,14.83,3.85,22.06,3.85c14.15,0,21.23-4.49,21.23-13.47
				c0-7.27-5.24-10.9-15.71-10.9h-8.59c-14.11,0-21.16-5.98-21.16-17.95c0-12.82,9.34-19.24,28.02-19.24
				c7.18,0,14.51,1.07,21.99,3.21v6.41c-7.48-2.56-14.81-3.85-21.99-3.85c-14.19,0-21.29,4.49-21.29,13.47
				c0,7.69,4.81,11.54,14.43,11.54h8.59c14.96,0,22.44,5.77,22.44,17.31c0,12.82-9.32,19.24-27.96,19.24
				C428.22,96.48,420.87,95.41,413.39,93.27z"/>
			<path class="st0" d="M507.84,29.15c18.42,0,27.64,10.2,27.64,30.59c0,1.45-0.04,2.97-0.13,4.55h-51.11
				c0,17.61,9.32,26.42,27.96,26.42c7.65,0,14.45-1.07,20.39-3.21v5.77c-5.94,2.14-12.74,3.21-20.39,3.21
				c-23.13,0-34.69-11.48-34.69-34.43C477.51,40.11,487.62,29.15,507.84,29.15z M484.25,58.26H529
				c-0.26-15.65-7.31-23.47-21.16-23.47C492.88,34.79,485.01,42.61,484.25,58.26z"/>
		</g>
		<g>
			<rect x="89.75" y="0" class="st1" width="6.73" height="6.73"/>
			<g>
				<g>
					<rect x="3.37" y="86.38" class="st1" width="6.73" height="6.73"/>
					<polygon class="st1" points="77.43,19.05 67.33,31.52 53.86,48.16 37.03,68.95 37.03,93.11 26.22,82.3 20.2,89.75 16.83,79.65 
						6.73,76.28 14.17,70.25 3.37,59.45 27.53,59.45 48.32,42.61 64.95,29.15 					"/>
				</g>
				<g>
					<polygon class="st1" points="62.81,29.15 46.18,42.61 13.47,42.61 0,56.08 0,29.15 					"/>
					<polygon class="st1" points="67.33,33.66 67.33,96.48 40.4,96.48 53.87,83.01 53.87,50.3 					"/>
				</g>
			</g>
		</g>
	</g>
</g>
</svg>
