<?xml version="1.0" encoding="utf-8"?>
<!-- Generator: Adobe Illustrator 24.0.2, SVG Export Plug-In . SVG Version: 6.00 Build 0)  -->
<svg version="1.1" id="Camada_1" xmlns="http://www.w3.org/2000/svg" xmlns:xlink="http://www.w3.org/1999/xlink" x="0px" y="0px"
	 viewBox="0 0 539.66 94.43" style="enable-background:new 0 0 539.66 94.43;" xml:space="preserve">
<style type="text/css">
	.st0{fill:#E5E1E6;}
	.st1{fill:#E4002B;}
</style>
<g>
	<g>
		<g>
			<path class="st0" d="M103.29,84.74h0.71v2.9c0.85-0.22,1.58-0.34,2.19-0.34c2.15,0,3.22,1.13,3.22,3.39
				c0,2.45-1.13,3.68-3.39,3.68c-1.02,0-1.92-0.1-2.73-0.29V84.74z M103.99,93.54c0.72,0.13,1.38,0.2,1.96,0.2
				c1.84,0,2.76-1.03,2.76-3.09c0-1.78-0.85-2.67-2.54-2.67c-0.65,0-1.37,0.12-2.18,0.36V93.54z"/>
			<path class="st0" d="M119.26,87.3v7.07h-0.52l-0.08-0.9c-0.81,0.6-1.72,0.9-2.72,0.9c-1.67,0-2.51-0.88-2.51-2.63V87.3h0.71v4.46
				c0,1.32,0.61,1.98,1.83,1.98c0.89,0,1.75-0.3,2.58-0.9V87.3H119.26z"/>
			<path class="st0" d="M123.48,94.03v-0.67c0.79,0.27,1.56,0.4,2.32,0.4c1.49,0,2.23-0.47,2.23-1.41c0-0.76-0.55-1.15-1.65-1.15
				h-0.9c-1.48,0-2.22-0.63-2.22-1.89c0-1.35,0.98-2.02,2.94-2.02c0.75,0,1.52,0.11,2.31,0.34v0.67c-0.79-0.27-1.56-0.4-2.31-0.4
				c-1.49,0-2.24,0.47-2.24,1.41c0,0.81,0.51,1.21,1.52,1.21h0.9c1.57,0,2.36,0.61,2.36,1.82c0,1.35-0.98,2.02-2.94,2.02
				C125.04,94.37,124.27,94.26,123.48,94.03z"/>
			<path class="st0" d="M133.67,84.74v0.81h-0.84v-0.81H133.67z M133.6,87.3v7.07h-0.71V87.3H133.6z"/>
			<path class="st0" d="M138.1,94.37V87.3h0.51l0.09,0.9c0.9-0.6,1.79-0.9,2.65-0.9c1.72,0,2.58,0.74,2.58,2.23v4.84h-0.71v-4.86
				c0-1.05-0.64-1.58-1.91-1.58c-0.85,0-1.68,0.3-2.51,0.9v5.54H138.1z"/>
			<path class="st0" d="M151.14,87.3c1.94,0,2.9,1.07,2.9,3.21c0,0.15,0,0.31-0.01,0.48h-5.37c0,1.85,0.98,2.78,2.94,2.78
				c0.8,0,1.52-0.11,2.14-0.34v0.61c-0.62,0.22-1.34,0.34-2.14,0.34c-2.43,0-3.64-1.21-3.64-3.62
				C147.95,88.45,149.02,87.3,151.14,87.3z M148.66,90.36h4.7c-0.03-1.64-0.77-2.47-2.22-2.47
				C149.57,87.89,148.74,88.71,148.66,90.36z"/>
			<path class="st0" d="M157.93,94.03v-0.67c0.79,0.27,1.56,0.4,2.32,0.4c1.49,0,2.23-0.47,2.23-1.41c0-0.76-0.55-1.15-1.65-1.15
				h-0.9c-1.48,0-2.22-0.63-2.22-1.89c0-1.35,0.98-2.02,2.94-2.02c0.75,0,1.52,0.11,2.31,0.34v0.67c-0.79-0.27-1.56-0.4-2.31-0.4
				c-1.49,0-2.24,0.47-2.24,1.41c0,0.81,0.51,1.21,1.52,1.21h0.9c1.57,0,2.36,0.61,2.36,1.82c0,1.35-0.98,2.02-2.94,2.02
				C159.49,94.37,158.72,94.26,157.93,94.03z"/>
			<path class="st0" d="M167.08,94.03v-0.67c0.79,0.27,1.56,0.4,2.32,0.4c1.49,0,2.23-0.47,2.23-1.41c0-0.76-0.55-1.15-1.65-1.15
				h-0.9c-1.48,0-2.22-0.63-2.22-1.89c0-1.35,0.98-2.02,2.94-2.02c0.75,0,1.52,0.11,2.31,0.34v0.67c-0.79-0.27-1.56-0.4-2.31-0.4
				c-1.49,0-2.24,0.47-2.24,1.41c0,0.81,0.51,1.21,1.52,1.21h0.9c1.57,0,2.36,0.61,2.36,1.82c0,1.35-0.98,2.02-2.94,2.02
				C168.64,94.37,167.86,94.26,167.08,94.03z"/>
			<path class="st0" d="M181.8,94.03v-0.67c0.79,0.27,1.56,0.4,2.32,0.4c1.49,0,2.23-0.47,2.23-1.41c0-0.76-0.55-1.15-1.65-1.15
				h-0.9c-1.48,0-2.22-0.63-2.22-1.89c0-1.35,0.98-2.02,2.94-2.02c0.75,0,1.52,0.11,2.31,0.34v0.67c-0.79-0.27-1.56-0.4-2.31-0.4
				c-1.49,0-2.24,0.47-2.24,1.41c0,0.81,0.51,1.21,1.52,1.21h0.9c1.57,0,2.36,0.61,2.36,1.82c0,1.35-0.98,2.02-2.94,2.02
				C183.36,94.37,182.59,94.26,181.8,94.03z"/>
			<path class="st0" d="M190.74,90.83c0-2.4,1.1-3.6,3.3-3.6c2.2,0,3.3,1.2,3.3,3.6c0,2.4-1.1,3.6-3.3,3.6
				C191.85,94.43,190.75,93.23,190.74,90.83z M194.04,93.83c1.73,0,2.59-1.01,2.59-3.02c0-1.98-0.86-2.97-2.59-2.97
				c-1.73,0-2.59,0.99-2.59,2.97C191.45,92.82,192.31,93.83,194.04,93.83z"/>
			<path class="st0" d="M202.21,84.74v9.63h-0.71v-9.63H202.21z"/>
			<path class="st0" d="M212.53,87.3v7.07h-0.52l-0.08-0.9c-0.81,0.6-1.72,0.9-2.72,0.9c-1.67,0-2.51-0.88-2.51-2.63V87.3h0.71v4.46
				c0,1.32,0.61,1.98,1.83,1.98c0.89,0,1.75-0.3,2.58-0.9V87.3H212.53z"/>
			<path class="st0" d="M216.87,86.15h0.5l0.13,1.15h2.12v0.61h-2.06v4.47c0,0.93,0.34,1.39,1.02,1.39h1.04v0.61h-1.02
				c-1.15,0-1.72-0.64-1.72-1.91V86.15z"/>
			<path class="st0" d="M224.24,84.74v0.81h-0.84v-0.81H224.24z M224.17,87.3v7.07h-0.71V87.3H224.17z"/>
			<path class="st0" d="M228.33,90.83c0-2.4,1.1-3.6,3.3-3.6c2.2,0,3.3,1.2,3.3,3.6c0,2.4-1.1,3.6-3.3,3.6
				C229.44,94.43,228.34,93.23,228.33,90.83z M231.63,93.83c1.73,0,2.59-1.01,2.59-3.02c0-1.98-0.86-2.97-2.59-2.97
				c-1.73,0-2.59,0.99-2.59,2.97C229.04,92.82,229.9,93.83,231.63,93.83z"/>
			<path class="st0" d="M238.96,94.37V87.3h0.51l0.09,0.9c0.9-0.6,1.79-0.9,2.65-0.9c1.72,0,2.58,0.74,2.58,2.23v4.84h-0.71v-4.86
				c0-1.05-0.64-1.58-1.91-1.58c-0.85,0-1.68,0.3-2.51,0.9v5.54H238.96z"/>
			<path class="st0" d="M249.01,94.03v-0.67c0.79,0.27,1.56,0.4,2.32,0.4c1.49,0,2.23-0.47,2.23-1.41c0-0.76-0.55-1.15-1.65-1.15
				H251c-1.48,0-2.22-0.63-2.22-1.89c0-1.35,0.98-2.02,2.94-2.02c0.75,0,1.52,0.11,2.31,0.34v0.67c-0.79-0.27-1.56-0.4-2.31-0.4
				c-1.49,0-2.24,0.47-2.24,1.41c0,0.81,0.51,1.21,1.52,1.21h0.9c1.57,0,2.36,0.61,2.36,1.82c0,1.35-0.98,2.02-2.94,2.02
				C250.57,94.37,249.8,94.26,249.01,94.03z"/>
		</g>
		<g>
			<g>
				<path class="st0" d="M64.43,19.46v44.96h-4.5V19.46H64.43z"/>
				<path class="st0" d="M78.99,64.42V19.46h3.21l0.47,5.65c4.6-3.77,9.58-5.65,14.94-5.65c7.08,0,11.66,2.06,13.74,6.17
					c5.17-4.11,10.41-6.17,15.72-6.17c10.05,0,15.07,4.98,15.07,14.94v30.02h-4.5V34.41c0-7.28-3.54-10.92-10.62-10.92
					c-5.65,0-10.32,1.94-14,5.82v35.11h-4.5V33.68c0-6.79-3.65-10.19-10.96-10.19c-5.31,0-10.01,1.94-14.09,5.82v35.11H78.99z"/>
				<path class="st0" d="M155.85,21.3c5.11-1.23,10.85-1.84,17.21-1.84c14.42,0,21.62,7.12,21.62,21.37
					c0,15.73-7.25,23.59-21.75,23.59c-3.6,0-7.79-0.71-12.59-2.14V79.4h-4.5V21.3z M160.34,57.83c4.54,1.54,8.72,2.31,12.55,2.31
					c11.62,0,17.43-6.47,17.43-19.4c0-11.5-5.78-17.26-17.34-17.26c-4,0-8.21,0.34-12.63,1.03V57.83z"/>
				<path class="st0" d="M243.28,19.46v44.96h-3.3l-0.51-5.74c-5.17,3.83-10.93,5.74-17.3,5.74c-10.62,0-15.93-5.58-15.93-16.74
					V19.46h4.5v28.35c0,8.39,3.88,12.59,11.65,12.59c5.68,0,11.15-1.9,16.4-5.7V19.46H243.28z"/>
				<path class="st0" d="M262.34,4.49l0,59.93h-4.5l0-59.93H262.34z"/>
				<path class="st0" d="M276.04,62.28V58c4.99,1.71,9.91,2.57,14.73,2.57c9.45,0,14.17-3,14.17-8.99c0-4.85-3.5-7.28-10.49-7.28
					h-5.74c-9.42,0-14.13-4-14.13-11.99c0-8.56,6.24-12.85,18.71-12.85c4.8,0,9.69,0.71,14.69,2.14v4.28
					c-5-1.71-9.89-2.57-14.69-2.57c-9.48,0-14.22,3-14.22,8.99c0,5.14,3.21,7.71,9.63,7.71h5.74c9.99,0,14.99,3.85,14.99,11.56
					c0,8.56-6.22,12.85-18.67,12.85C285.95,64.42,281.04,63.71,276.04,62.28z"/>
				<path class="st0" d="M339.12,19.46c12.3,0,18.45,6.81,18.45,20.43c0,0.97-0.03,1.98-0.09,3.04h-34.13
					c0,11.76,6.22,17.64,18.67,17.64c5.11,0,9.65-0.71,13.62-2.14v3.85c-3.97,1.43-8.51,2.14-13.62,2.14
					c-15.44,0-23.17-7.67-23.17-22.99C318.86,26.78,325.61,19.46,339.12,19.46z M323.36,38.9h29.89
					c-0.17-10.45-4.88-15.67-14.13-15.67C329.12,23.23,323.87,28.46,323.36,38.9z"/>
			</g>
			<g>
				<rect x="59.93" y="0" class="st1" width="4.5" height="4.5"/>
				<g>
					<g>
						<rect x="2.25" y="57.68" class="st1" width="4.5" height="4.5"/>
						<polygon class="st1" points="51.7,12.72 44.96,21.05 35.97,32.16 24.73,46.04 24.73,62.18 17.51,54.96 13.49,59.93 
							11.24,53.18 4.5,50.94 9.47,46.91 2.25,39.7 18.38,39.7 32.27,28.46 43.37,19.46 						"/>
					</g>
					<g>
						<polygon class="st1" points="41.94,19.46 30.84,28.45 8.99,28.45 0,37.45 0,19.46 						"/>
						<polygon class="st1" points="44.96,22.48 44.96,64.42 26.98,64.42 35.97,55.43 35.97,33.59 						"/>
					</g>
				</g>
			</g>
		</g>
	</g>
	<rect x="387.51" y="0" class="st1" width="4.5" height="94.37"/>
	<g>
		<path class="st0" d="M424.15,14.94v1.43h-1.49v-1.43H424.15z M424.03,19.47v12.52h-1.25V19.47H424.03z"/>
		<path class="st0" d="M428.09,31.99V19.47h0.89l0.13,1.57c1.28-1.05,2.67-1.57,4.16-1.57c1.97,0,3.25,0.57,3.83,1.72
			c1.44-1.15,2.9-1.72,4.38-1.72c2.8,0,4.2,1.39,4.2,4.16v8.36h-1.25v-8.36c0-2.03-0.99-3.04-2.96-3.04c-1.57,0-2.87,0.54-3.9,1.62
			v9.78h-1.25v-8.56c0-1.89-1.02-2.84-3.05-2.84c-1.48,0-2.79,0.54-3.92,1.62v9.78H428.09z"/>
		<path class="st0" d="M449.49,19.98c1.42-0.34,3.02-0.51,4.79-0.51c4.02,0,6.02,1.98,6.02,5.95c0,4.38-2.02,6.57-6.06,6.57
			c-1,0-2.17-0.2-3.51-0.6v5.13h-1.25V19.98z M450.75,30.15c1.26,0.43,2.43,0.64,3.49,0.64c3.24,0,4.85-1.8,4.85-5.4
			c0-3.2-1.61-4.81-4.83-4.81c-1.11,0-2.29,0.1-3.52,0.29V30.15z"/>
		<path class="st0" d="M473.85,19.47v12.52h-0.92l-0.14-1.6c-1.44,1.07-3.05,1.6-4.82,1.6c-2.96,0-4.44-1.55-4.44-4.66v-7.86h1.25
			v7.9c0,2.34,1.08,3.51,3.24,3.51c1.58,0,3.1-0.53,4.57-1.59v-9.81H473.85z"/>
		<path class="st0" d="M479.15,14.94v17.05h-1.25V14.94H479.15z"/>
		<path class="st0" d="M482.97,31.39V30.2c1.39,0.48,2.76,0.72,4.1,0.72c2.63,0,3.95-0.83,3.95-2.5c0-1.35-0.97-2.03-2.92-2.03h-1.6
			c-2.62,0-3.94-1.11-3.94-3.34c0-2.39,1.74-3.58,5.21-3.58c1.34,0,2.7,0.2,4.09,0.6v1.19c-1.39-0.48-2.75-0.72-4.09-0.72
			c-2.64,0-3.96,0.83-3.96,2.5c0,1.43,0.89,2.15,2.68,2.15h1.6c2.78,0,4.17,1.07,4.17,3.22c0,2.39-1.73,3.58-5.2,3.58
			C485.73,31.99,484.36,31.79,482.97,31.39z"/>
		<path class="st0" d="M497.1,14.94v1.43h-1.49v-1.43H497.1z M496.98,19.47v12.52h-1.25V19.47H496.98z"/>
		<path class="st0" d="M500.44,25.73c0-4.25,1.95-6.38,5.84-6.38s5.84,2.13,5.84,6.38c0,4.25-1.95,6.37-5.84,6.37
			C502.4,32.1,500.46,29.97,500.44,25.73z M506.28,31.03c3.06,0,4.59-1.78,4.59-5.35c0-3.51-1.53-5.26-4.59-5.26
			c-3.06,0-4.59,1.75-4.59,5.26C501.69,29.25,503.22,31.03,506.28,31.03z"/>
		<path class="st0" d="M515.35,31.99V19.47h0.89l0.15,1.6c1.6-1.07,3.16-1.6,4.7-1.6c3.04,0,4.57,1.32,4.57,3.95v8.57h-1.25v-8.61
			c0-1.86-1.13-2.79-3.37-2.79c-1.5,0-2.98,0.53-4.44,1.59v9.81H515.35z"/>
		<path class="st0" d="M534.52,19.47c3.43,0,5.14,1.9,5.14,5.69c0,0.27-0.01,0.55-0.02,0.85h-9.51c0,3.28,1.73,4.91,5.2,4.91
			c1.42,0,2.69-0.2,3.79-0.6v1.07c-1.1,0.4-2.37,0.6-3.79,0.6c-4.3,0-6.45-2.13-6.45-6.4C528.88,21.51,530.76,19.47,534.52,19.47z
			 M530.14,24.88h8.32c-0.05-2.91-1.36-4.37-3.94-4.37C531.74,20.52,530.28,21.97,530.14,24.88z"/>
		<path class="st0" d="M421.94,49.42c0-4.25,1.95-6.38,5.84-6.38c3.9,0,5.84,2.13,5.84,6.38c0,4.25-1.95,6.37-5.84,6.37
			C423.91,55.79,421.96,53.67,421.94,49.42z M427.79,54.73c3.06,0,4.59-1.78,4.59-5.35c0-3.51-1.53-5.26-4.59-5.26
			c-3.06,0-4.59,1.75-4.59,5.26C423.2,52.94,424.73,54.73,427.79,54.73z"/>
		<path class="st0" d="M442.58,55.09v-1.19c1.39,0.48,2.76,0.72,4.1,0.72c2.63,0,3.95-0.83,3.95-2.5c0-1.35-0.97-2.03-2.92-2.03
			h-1.6c-2.62,0-3.94-1.11-3.94-3.34c0-2.39,1.74-3.58,5.21-3.58c1.34,0,2.7,0.2,4.09,0.6v1.19c-1.39-0.48-2.75-0.72-4.09-0.72
			c-2.64,0-3.96,0.83-3.96,2.5c0,1.43,0.89,2.15,2.68,2.15h1.6c2.78,0,4.17,1.07,4.17,3.22c0,2.39-1.73,3.58-5.2,3.58
			C445.34,55.68,443.97,55.48,442.58,55.09z"/>
		<path class="st0" d="M460.14,43.16c3.43,0,5.14,1.9,5.14,5.69c0,0.27-0.01,0.55-0.02,0.85h-9.51c0,3.28,1.73,4.91,5.2,4.91
			c1.42,0,2.69-0.2,3.79-0.6v1.07c-1.1,0.4-2.37,0.6-3.79,0.6c-4.3,0-6.45-2.13-6.45-6.4C454.5,45.2,456.38,43.16,460.14,43.16z
			 M455.75,48.57h8.32c-0.05-2.91-1.36-4.36-3.94-4.36C457.36,44.21,455.9,45.66,455.75,48.57z"/>
		<path class="st0" d="M478.82,43.16v12.52h-0.92l-0.14-1.6c-1.44,1.07-3.05,1.6-4.82,1.6c-2.96,0-4.44-1.55-4.44-4.66v-7.86h1.25
			v7.9c0,2.34,1.08,3.51,3.24,3.51c1.58,0,3.1-0.53,4.57-1.59v-9.82H478.82z"/>
		<path class="st0" d="M422.12,79.37V66.85h2.44l0.39,1.84c1.2-1.22,2.57-1.84,4.1-1.84c2.97,0,4.45,1.54,4.45,4.63v7.89h-3.16
			v-7.89c0-1.38-0.69-2.08-2.06-2.08c-1.03,0-2.03,0.41-3.01,1.23v8.74H422.12z"/>
		<path class="st0" d="M441.78,66.85c3.8,0,5.7,1.94,5.7,5.82c0,0.52-0.04,1.03-0.11,1.55h-8.31c0,1.77,1.3,2.65,3.89,2.65
			c1.26,0,2.53-0.12,3.79-0.36v2.5c-1.11,0.24-2.45,0.36-4.03,0.36c-4.54,0-6.81-2.13-6.81-6.4
			C435.9,68.89,437.86,66.85,441.78,66.85z M439.06,72.03h5.34v-0.1c0-1.73-0.87-2.6-2.62-2.6
			C440.11,69.33,439.2,70.23,439.06,72.03z"/>
		<path class="st0" d="M461.03,78.42c0,3.66-2.2,5.49-6.59,5.49c-1.54,0-2.91-0.2-4.1-0.6v-2.5c1.22,0.4,2.59,0.6,4.13,0.6
			c2.27,0,3.41-0.95,3.41-2.86c-0.94,0.4-1.95,0.6-3.03,0.6c-3.72,0-5.58-2.03-5.58-6.09c0-4.13,2.17-6.19,6.5-6.19
			c1.45,0,3.21,0.17,5.27,0.51V78.42z M457.87,69.69c-0.52-0.19-1.25-0.29-2.21-0.29c-2.19,0-3.28,1.2-3.28,3.61
			c0,2.33,0.94,3.49,2.83,3.49c0.91,0,1.79-0.22,2.66-0.64V69.69z"/>
		<path class="st0" d="M463.41,73.11c0-4.2,2.07-6.3,6.2-6.3c4.13,0,6.2,2.1,6.2,6.3c0,4.19-2.07,6.29-6.2,6.29
			C465.49,79.4,463.43,77.3,463.41,73.11z M469.61,76.99c2.03,0,3.04-1.31,3.04-3.92c0-2.55-1.01-3.83-3.04-3.83
			c-2.03,0-3.04,1.28-3.04,3.83C466.57,75.68,467.58,76.99,469.61,76.99z M469.49,62.32h3.8l-2.85,3.09h-2.67L469.49,62.32z"/>
		<path class="st0" d="M487.44,79.01c-1.03,0.24-2.11,0.36-3.22,0.36c-4.45,0-6.68-2.17-6.68-6.5c0-4.02,2.23-6.02,6.68-6.02
			c1.11,0,2.19,0.12,3.22,0.36v2.5c-1.03-0.24-2.03-0.36-2.98-0.36c-2.5,0-3.76,1.17-3.76,3.52c0,2.66,1.25,3.99,3.76,3.99
			c0.95,0,1.95-0.12,2.98-0.36V79.01z"/>
		<path class="st0" d="M492.69,62.32v2.5h-3.16v-2.5H492.69z M492.69,66.85v12.52h-3.16V66.85H492.69z"/>
		<path class="st0" d="M495.07,73.11c0-4.2,2.07-6.3,6.2-6.3c4.13,0,6.2,2.1,6.2,6.3c0,4.19-2.07,6.29-6.2,6.29
			C497.16,79.4,495.09,77.3,495.07,73.11z M501.28,76.99c2.03,0,3.04-1.31,3.04-3.92c0-2.55-1.01-3.83-3.04-3.83
			c-2.03,0-3.04,1.28-3.04,3.83C498.23,75.68,499.25,76.99,501.28,76.99z"/>
	</g>
</g>
</svg>
