<?xml version="1.0" encoding="utf-8"?>
<!-- Generator: Adobe Illustrator 25.0.0, SVG Export Plug-In . SVG Version: 6.00 Build 0)  -->
<svg version="1.1" id="Camada_1" xmlns="http://www.w3.org/2000/svg" xmlns:xlink="http://www.w3.org/1999/xlink" x="0px" y="0px"
	 viewBox="0 0 500 500" style="enable-background:new 0 0 500 500;" xml:space="preserve">
<style type="text/css">
	.st0{fill:#E4002B;}
</style>
<path class="st0" d="M250.9,0C389,0.5,500.6,112.9,500,251.2C499.4,389.3,386.8,500.7,248.6,500C110.9,499.3-0.3,387.1,0,249.3
	C0.3,111.2,112.7-0.5,250.9,0z M250,29.7c-120.9,0-220,98.8-220.4,219.8c-0.4,121.1,99,220.8,220.3,220.9
	c120.9,0,220-98.8,220.4-219.8C470.8,129.4,371.3,29.7,250,29.7z"/>
<g>
	<path class="st0" d="M277.3,107.5v211.3h-52.8V107.5H277.3z M277.3,343.7v48.8h-52.8v-48.8H277.3z"/>
</g>
</svg>
