<?xml version="1.0" encoding="utf-8"?>
<!-- Generator: Adobe Illustrator 25.0.0, SVG Export Plug-In . SVG Version: 6.00 Build 0)  -->
<svg version="1.1" id="Camada_1" xmlns="http://www.w3.org/2000/svg" xmlns:xlink="http://www.w3.org/1999/xlink" x="0px" y="0px"
	 viewBox="0 0 370 170" style="enable-background:new 0 0 370 170;" xml:space="preserve">
<style type="text/css">
	.st0{fill:#101820;}
	.st1{fill:#AFA3B2;}
	.st2{fill:#CAC2CC;}
	.st3{fill:#E4002B;}
	.st4{opacity:0.5;fill:#E4002B;}
	.st5{fill:#E5E1E6;}
</style>
<rect x="326" y="141.6" class="st0" width="26.1" height="1"/>
<rect x="75.4" y="135.3" class="st0" width="38.4" height="1"/>
<rect x="118.5" y="140.2" class="st1" width="51.3" height="15.1"/>
<path class="st2" d="M118.5,130.4h5.6c3.5,0,6.3,2.8,6.3,6.3v18.5h-11.9V130.4z"/>
<rect x="197.8" y="139.8" transform="matrix(-1 -4.489621e-11 4.489621e-11 -1 446.9121 294.6277)" class="st1" width="51.3" height="15.1"/>
<path class="st2" d="M249.1,130h-5.6c-3.5,0-6.3,2.8-6.3,6.3v18.5h11.9V130z"/>
<g>
	<circle class="st1" cx="166.1" cy="55.5" r="8.8"/>
	<circle class="st1" cx="205.8" cy="67.8" r="8.8"/>
</g>
<path class="st1" d="M217.9,31.9c1.6-1,2.1-3.1,1.1-4.7c-1-1.6-3.1-2.1-4.7-1.1c-1.2,0.7-1.8,2-1.6,3.4l-15,9.1l1.4,2.3l15-9.1
	C215.3,32.5,216.8,32.6,217.9,31.9z"/>
<path class="st1" d="M159,142c-0.1,0-0.2,0-0.3,0l-11.1-1.9h0c-0.9-0.2-1.5-1-1.4-2c0,0,0,0,0,0l8.7-44.4c0.7-4,4.5-6.7,8.5-6
	c4,0.7,6.7,4.5,6,8.5l-8.7,44.5C160.6,141.5,159.9,142,159,142z"/>
<circle class="st2" cx="153.1" cy="144.9" r="6.8"/>
<path class="st1" d="M271.3,153.9c0-0.1-0.1-0.2-0.1-0.3l-1.9-11.1l0,0c-0.2-0.9,0.5-1.8,1.4-2c0,0,0,0,0,0l44.8-6.6
	c4-0.7,7.8,2,8.5,6c0.7,4-2,7.8-6,8.5l-44.8,6.6C272.3,155.1,271.6,154.6,271.3,153.9z"/>
<circle class="st2" cx="266.6" cy="149.2" r="6.8"/>
<circle class="st2" cx="185.9" cy="61.6" r="25.2"/>
<circle class="st3" cx="185.9" cy="61.6" r="19.2"/>
<path class="st4" d="M173.6,57.9c2.8-9,11.8-14.7,21.2-13.3c-9.5-4.8-21-1-25.8,8.5s-1,21,8.5,25.8c1.8,0.9,3.8,1.5,5.8,1.8
	C174.9,76.5,170.8,66.9,173.6,57.9z"/>
<path class="st2" d="M205.1,142.1h-38.4c-3.4,0-6.2-2.8-6.2-6.2V92.6c0-3.4,2.8-6.2,6.2-6.2h5.8v1.7c0,2.4,1.9,4.3,4.3,4.3H195
	c2.4,0,4.3-1.9,4.3-4.3v-1.7h5.8c3.4,0,6.2,2.8,6.2,6.2v43.3C211.3,139.3,208.6,142.1,205.1,142.1z"/>
<path class="st2" d="M202.1,155.3h-32.4c-1.8,0-3.2-1.4-3.2-3.2v-12c0-1.8,1.4-3.2,3.2-3.2h32.4c1.8,0,3.2,1.4,3.2,3.2v12
	C205.3,153.8,203.9,155.2,202.1,155.3z"/>
<path class="st0" d="M204.3,105.6h-13.9c-0.7,0-1.3-0.6-1.3-1.3s0.6-1.3,1.3-1.3h13.9c0.7,0,1.3,0.6,1.3,1.3S205,105.6,204.3,105.6z
	"/>
<path class="st0" d="M204.3,110.3h-13.9c-0.7,0-1.3-0.6-1.3-1.3s0.6-1.3,1.3-1.3h13.9c0.7,0,1.3,0.6,1.3,1.3S205,110.3,204.3,110.3z
	"/>
<g>
	<g>
		<rect x="180.8" y="52.6" transform="matrix(0.466 0.8848 -0.8848 0.466 146.101 -130.9846)" class="st5" width="1.5" height="6"/>
		
			<rect x="180.8" y="52.6" transform="matrix(-0.8848 0.466 -0.466 -0.8848 368.0881 20.0811)" class="st5" width="1.5" height="6"/>
	</g>
	<g>
		
			<rect x="192.3" y="56.1" transform="matrix(0.466 0.8848 -0.8848 0.466 155.3637 -139.2258)" class="st5" width="1.5" height="6"/>
		<rect x="192.3" y="56.1" transform="matrix(-0.8848 0.466 -0.466 -0.8848 391.3407 21.438)" class="st5" width="1.5" height="6"/>
	</g>
</g>
<rect x="175.2" y="66.6" transform="matrix(0.9551 0.2961 -0.2961 0.9551 28.5899 -51.3885)" class="st5" width="17.5" height="4.1"/>
<g>
	<path class="st0" d="M48.3,131.9c-0.6,0-1.1,0-1.7,0c-1.2,0-1.2,0-1.2-1.3c0-0.5,0-1,0-1.7c-0.9,0-1.6,0-2.4,0
		c-0.5,0-0.7-0.2-0.7-0.7c0-0.6,0-1.2,0-1.7c0-0.4-0.2-0.6-0.6-0.6c-0.7,0-1.5,0-2.3,0c0-1,0-2,0-3.1c-1,0-2,0-2.9,0
		c0-5.9,0-11.6,0-17.5c0.8,0,1.6,0,2.5,0c0,1.9,0,3.8,0,5.8c1,0,1.9,0,3,0c0,1,0,2,0,3c1.1,0,2,0,3.1,0c0,1,0,2,0,3.1
		c0.9,0,1.7,0,2.5,0c1,0,2,0,3,0c0.6,0,0.8-0.2,0.8-0.8c0-0.8-0.2-1.8,0.2-2.2c0.4-0.4,1.4-0.1,2.2-0.2c0.1,0,0.3,0,0.5-0.1
		c0-0.5,0-1,0-1.4c0-0.5,0-0.9,0-1.5c1.5,0,3,0,4.5,0c0-1,0-1.9,0-2.9c1.5,0,2.9,0,4.4,0c0-1,0-1.9,0-2.9c1.1,0,2,0,3.1,0
		c0-6.6,0-13,0-19.7c0.8,0,1.6,0,2.3,0c0.5,0,0.7-0.2,0.7-0.7c0-0.7,0-1.4,0-2.2c0.4,0,0.7,0,1,0c7.2,0,14.5,0,21.7,0
		c0.8,0,1.1,0.2,1.1,1.1c0,1.9,0,2,1.9,1.9c0.8,0,1,0.2,1,1c0,3.8,0,7.5,0,11.3c0,0.8-0.3,1-1,0.9c-4.4,0-8.8,0-13.2,0
		c-0.7,0-1,0.2-0.9,0.9c0.1,0.8,0,1.5,0,2.4c3,0,6,0,9,0c0,0.9,0,1.8,0,2.7c-0.3,0-0.6,0-0.9,0c-3.4,0-6.7,0-10.1,0
		c-0.7,0-0.9,0.2-0.9,0.9c0,1.8,0,3.5,0,5.4c2,0,4,0,6,0c0,1.9,0,3.7,0,5.6c-0.9,0-1.7,0-2.7,0c0-0.8,0-1.5,0-2.3
		c0-0.5-0.1-0.8-0.7-0.8c-0.8,0.1-1.9-0.2-2.4,0.2c-0.4,0.3-0.2,1.5-0.2,2.3c0,2.4,0,4.8,0,7.2c0,0.3,0,0.5,0,0.9c-1,0-1.9,0-2.9,0
		c0,1.5,0,2.9,0,4.5c-0.8,0-1.6,0-2.4,0c-0.6,0-0.8,0.2-0.8,0.8c0,0.7,0,1.4,0,2.2c-0.9,0-1.6,0-2.4,0c-0.2,0-0.6,0.3-0.6,0.5
		c0,3.9,0,7.9,0,11.9c1.1,0,1.9,0,2.9,0c0,0.9,0,1.7,0,2.6c-1.8,0-3.6,0-5.4,0c0-0.3,0-0.6,0-1c0-2.3-0.1-4.7,0-7c0-0.7-0.2-1-1-0.9
		c-0.4,0-0.9,0-1.3,0c-0.7,0.1-0.9-0.2-0.8-0.8c0-0.5,0-1,0-1.5c0-0.6-0.2-0.8-0.8-0.7c-0.6,0-1.3,0-1.9,0c-0.2,0-0.5,0.4-0.6,0.6
		c-0.1,0.6,0,1.1,0,1.7c0,0.5-0.2,0.6-0.6,0.6c-0.5,0-1,0-1.5,0c-0.7,0-0.8,0.3-0.8,0.9c0,2,0,2.1-2,2.1c-0.9,0-1.2,0.3-1.1,1.1
		c0.1,0.7,0,1.4,0,2.2c1,0,2,0,3.1,0c0,0.8,0,1.5,0,2.3c0,0.1-0.3,0.4-0.5,0.4c-1.6,0-3.2,0-4.8,0c-0.6,0-0.5-0.4-0.5-0.8
		c0-2.7,0-5.5,0-8.2c0-0.7,0-1.4,0-2.1c0-0.7-0.2-0.8-0.9-0.8c-2,0-2,0-2.1-2.1C48.3,132.5,48.3,132.3,48.3,131.9z M73.6,90.2
		c1.8,0,1.7,0.3,1.7-1.4c0-1.9,0-1.9-1.8-1.9c-1.7,0-1.5-0.3-1.5,1.5C71.9,90.2,71.9,90.2,73.6,90.2z"/>
	<path class="st0" d="M33.1,135.3c3.7,0,7.4,0,11.1,0c0.4,0,0.9-0.1,0.9,0.6c0,0.7-0.5,0.5-0.9,0.5c-7.4,0-14.8,0-22.3,0
		c-0.4,0-0.8,0-0.8-0.6c0-0.6,0.4-0.5,0.8-0.5C25.6,135.3,29.3,135.3,33.1,135.3C33.1,135.3,33.1,135.3,33.1,135.3z"/>
	<path class="st0" d="M30.2,142.5c0-0.3,0-0.4,0-0.6c0-0.2,0-0.4,0-0.8c0.5,0,0.9,0,1.3,0c1.3,0,2.7,0.1,4,0.1
		c0.6,0,0.6,0.3,0.6,0.7c0,0.4-0.2,0.6-0.6,0.6C33.8,142.5,32,142.5,30.2,142.5z"/>
	<path class="st0" d="M21.2,145.7c1.9,0,3.8,0,5.7,0c0,0.4,0,0.7,0,1.2c-0.9,0-1.8,0-2.7,0c-0.7,0-1.4,0-2.1,0
		C21.1,146.9,21,146.8,21.2,145.7z"/>
	<path class="st0" d="M98.8,145.8c0.2,1,0.2,1-0.7,1.1c-1.5,0-3.1,0-4.6,0c0-0.4,0-0.7,0-1.1C95.2,145.8,97,145.8,98.8,145.8z"/>
	<path class="st0" d="M103.9,140.8c0-0.4,0-0.7,0-1c1.3,0,2.6,0,3.9,0c0,0.3,0,0.6,0,1C106.5,140.8,105.2,140.8,103.9,140.8z"/>
	<path class="st0" d="M45.1,146.9c-0.9,0-1.6,0-2.4,0c-0.2,0-0.4-0.4-0.4-0.6c0-0.2,0.2-0.5,0.4-0.5c0.6-0.1,1.3-0.1,1.9-0.1
		C45.4,145.7,44.9,146.4,45.1,146.9z"/>
	<path class="st0" d="M84,145.4c-0.4,0-0.7,0-1,0c0-0.4,0-0.7,0-1c0.4,0,0.7,0,1,0C84,144.7,84,145,84,145.4z"/>
	<path class="st0" d="M261.8,141.5c0.4,0,0.9-0.1,0.9,0.6c0,0.7-0.5,0.5-0.9,0.5c-7.4,0,5.7,0-1.7,0c-0.4,0-0.8,0-0.8-0.6
		c0-0.6,0.4-0.5,0.8-0.5"/>
	<path class="st0" d="M337,152c0.2,1,0.2,1-0.7,1.1c-1.5,0-3.1,0-4.6,0c0-0.4,0-0.7,0-1.1C333.5,152,335.2,152,337,152z"/>
	<path class="st0" d="M342.1,147c0-0.4,0-0.7,0-1c1.3,0,2.6,0,3.9,0c0,0.3,0,0.6,0,1C344.8,147,343.5,147,342.1,147z"/>
	<path class="st0" d="M322.2,151.6c-0.4,0-0.7,0-1,0c0-0.4,0-0.7,0-1c0.4,0,0.7,0,1,0C322.2,150.9,322.2,151.2,322.2,151.6z"/>
</g>
</svg>
