<?xml version="1.0" encoding="utf-8"?>
<!-- Generator: Adobe Illustrator 25.0.0, SVG Export Plug-In . SVG Version: 6.00 Build 0)  -->
<svg version="1.1" id="Camada_1" xmlns="http://www.w3.org/2000/svg" xmlns:xlink="http://www.w3.org/1999/xlink" x="0px" y="0px"
	 viewBox="0 0 370 170" style="enable-background:new 0 0 370 170;" xml:space="preserve">
<style type="text/css">
	.st0{fill:#E4002B;}
	.st1{fill:#E5E1E6;}
	.st2{fill:#101820;}
	.st3{opacity:0.1;fill:#101820;}
	.st4{fill:#FFB8B8;}
	.st5{opacity:0.5;fill:#E4002B;}
</style>
<path class="st0" d="M200.3,13.1H176c-6.2,0-11.3,5.1-11.3,11.3v5.5h46.8v-5.5C211.6,18.1,206.5,13.1,200.3,13.1z"/>
<g>
	<path class="st1" d="M142.6,156.3V62.5c0-19.9,16.2-36,36-36h19.1c19.9,0,36,16.2,36,36v93.8H142.6z"/>
	<path class="st2" d="M197.7,26.7c19.7,0,35.8,16.1,35.8,35.8v93.6h-90.7V62.5c0-19.7,16.1-35.8,35.8-35.8H197.7 M197.7,26.2h-19.1
		c-20,0-36.3,16.3-36.3,36.3v94.1H234V62.5C234,42.5,217.7,26.2,197.7,26.2L197.7,26.2z"/>
</g>
<path class="st3" d="M35.3,141.4c0,3.2,5.2,15.2,7.5,15.1c44-1.9,79,0.7,125.4,0L308.7,86c-2.3,0-4.8,0-7.3,0
	c-15.1-0.1-27.3,0-27.3,0s14.6-4.8,27.4-11.9c7.3-4.1,15.3,0.5,20.7,5.2l12.7-6.3c-5.2-17.5-11.4-36.3-26.2-46.9
	c-8.3-6-18.6-8.7-28.9-9.2c-9.7-0.5-20.1,1.3-27.7,7.4c-3.9,3.1-6.7,6.9-8.9,11.2c3.9-1.7,8.2-3.8,12.2-6.1
	c12.7-7.2,27.3,12.2,27.3,12.2s-12.3-0.2-27.4-0.3c-5.5,0-10.5,0-14.8,0c-3.7,9.4-5.8,20-10.4,29.1c-7.3,14.5-23.2,25.5-39.3,23.2
	c-8-1.1-15.3-5.3-22-9.8c-13.7-9.1-26.3-19.7-37.5-31.6c-5.3-5.6-10.6-11.8-17.7-14.8c-5.4-2.3-11.6-2.6-17.4-1.9
	C74,38.3,55.6,55.5,46.2,75.8C36.9,96.1,35.1,119,35.3,141.4z M91.3,81.9c-15.1-0.1-27.3,0-27.3,0S78.6,77.2,91.3,70
	s27.3,12.2,27.3,12.2S106.4,82,91.3,81.9L91.3,81.9z"/>
<g>
	<path class="st4" d="M210.3,92.3l-1.8,1l-1.3-2.2c0,0-1.5-3.9,0.8-6c2.3-2.1,2.3,6.8,2.3,6.8L210.3,92.3z"/>
	<path class="st0" d="M215.1,101.5c0,0-7.6-6.4-7.8-8c-0.2-1.7,2.3-1.7,3.2-2.4c0.9-0.7,4.3,4.3,4.3,4.3L215.1,101.5z"/>
	<path class="st5" d="M215.1,101.5c0,0-7.6-6.4-7.8-8c-0.2-1.7,2.3-1.7,3.2-2.4s4.3,4.3,4.3,4.3L215.1,101.5z"/>
	<path class="st4" d="M234.7,97.8l-0.9,3.5c0,0-2,5.8,0.3,6.6s3-6.5,3-6.5l0.5-3.2L234.7,97.8z"/>
	<path class="st4" d="M225.1,122.5c0,0,2.7,6.5,6.2,8.2c3.4,1.7,14.3,17.1,14.3,17.1l3.3-3.2l-4.6-8c-0.3-3.7-6.2-8.2-7.3-8.8
		c-1.1-0.6-3.9-6.7-3.9-6.7L225.1,122.5z"/>
	<path class="st4" d="M208.9,113.3l-3,1.2c1.9,0.7,5.4,7.7,5.6,9.3s4.3,6.7,4.3,6.7l0.2,1.3l-2.3,1.7l-4.3-1.4l-0.1-2.5
		c0,0-10.2-11.6-10.7-16.6c-0.5-5,7.2-5.1,7.2-5.1L208.9,113.3z"/>
	<path class="st2" d="M245.4,146.1c-0.8-0.1-1.1,1.9-0.3,2.4c0.7,0.5,1.5,3.9,1.5,3.9s-2.5,3.3-0.2,4.4s5.9-9.8,6.1-11.4
		c0.2-1.6-1.3-2.2-3.7-3c-2.3-0.7-1.1,1.9-1.1,1.9C248,145.3,246.2,146.3,245.4,146.1z"/>
	<path class="st2" d="M210.2,130.2c-1.1-1-1.5,1.8-1.7,3.4c-0.2,1.6-4.5,3-4.5,3c-1.2,2.7,5,2.3,5,2.3s6-2,7.7-3
		c1.8-1,1.2-2.7-0.1-4.9c-1.3-2.2-1.6-0.2-1.6-0.2C214.8,132,211.3,131.1,210.2,130.2z"/>
	<path class="st2" d="M215.1,104l-10.7,3.8c0,0,1.3,5.1,3,7.4c1.7,2.3,13.5-0.1,13.5-0.1s3.5,9.9,4.9,11.3c1.4,1.4,6.4-2.3,8.8-4.5
		c2.3-2.1-3.8-10.3-3.8-10.3c1.5-7.9-3.9-9.5-3.9-9.5L215.1,104z"/>
	<circle class="st4" cx="215.1" cy="72.2" r="4.8"/>
	<path class="st4" d="M214.3,75.4c1.8,1.5,1.1,6.7,1.1,6.7s7-3.1,6.2-3.6s-2.9-5.3-2.9-5.3L214.3,75.4z"/>
	<path class="st0" d="M215.2,80.8L215.2,80.8c-1.3,1.7-2.1,3.7-2.4,5.8l-0.4,3.2c-0.2,1.2,1,4.6,1.5,6.3c0.6,1.7-0.4,8.9-0.4,8.9
		l4.4,0.2c4.4,0.2,10-1.8,9.7-2.7c-0.3-0.9,0.1-0.8,0.7-2.3c0.6-1.5-0.3-0.9-1.3-2.2c-1-1.4-0.3-0.5,0.6-4.4s-1-10.3-1.7-13.7
		c-0.7-3.4-7.4-2.3-7.4-2.3C218.1,77.5,215.2,80.8,215.2,80.8z"/>
	<path class="st0" d="M220.4,86.8c0,0,11.8,2.9,12.2,2.9c0.4,0.1,0.9,8.3,1.2,9.1c0.3,0.9,2.4,0.3,4,0.6c1.6,0.2,1.9-7.9,0.9-12.1
		c-1-4.2-15.6-7.5-15.6-7.5C216.1,79.7,220.4,86.8,220.4,86.8z"/>
	<path class="st2" d="M216.1,73.5l0.7-0.1l1-1.2c1-1.2,1.1,3.5,1.1,3.5s1.8,0.8,1.7-4.5c0-5.3-4.9-4.4-7.4-3.9
		c-2.5,0.4-3.8-0.5-4.3,0.2c-0.5,0.7,1.6,4.6,3.4,2.9c1.9-1.7,2.8,0.7,2.8,0.7L216.1,73.5z"/>
</g>
<path class="st2" d="M288.1,156.8H102.7c-0.2,0-0.3-0.1-0.3-0.3c0-0.2,0.1-0.3,0.3-0.3h185.4c0.2,0,0.3,0.1,0.3,0.3
	C288.4,156.6,288.3,156.8,288.1,156.8z"/>
<g>
	<path class="st2" d="M215.5,164.8l-73.6-9V60.4c0-7.8,2.4-15.1,7-20.8c0.2-0.2,0.3-0.4,0.5-0.6c2.2-2.6,4.9-4.9,7.8-6.6
		c0.2-0.1,0.3-0.2,0.5-0.3c2.5-1.4,5.2-2.5,8-3.2c0.2,0,0.3-0.1,0.5-0.1c2.6-0.6,5.2-0.9,7.9-0.9c0.2,0,0.3,0,0.5,0
		c2.6,0,5.3,0.4,7.9,1c0.2,0,0.3,0.1,0.5,0.1c2.7,0.7,5.4,1.6,7.9,2.8c0.2,0.1,0.3,0.2,0.5,0.3c2.8,1.4,5.5,3.1,7.9,5.1
		c0.2,0.1,0.3,0.3,0.5,0.4c1.7,1.4,3.2,2.9,4.7,4.5c1.2,1.3,2.2,2.7,3.2,4.1c0.2,0.2,0.3,0.5,0.5,0.7c4.6,6.8,7.1,14.7,7,22.5V164.8
		z"/>
	
		<ellipse transform="matrix(0.7284 -0.6852 0.6852 0.7284 -23.3616 175.4033)" class="st0" cx="209.5" cy="117.2" rx="3.8" ry="4.3"/>
	<path class="st1" d="M195.3,134.7l-33.1-4.1c-0.9-0.1-1.6-0.9-1.7-1.8V54.9c0-0.9,0.7-1.5,1.7-1.4l33.1,4.1
		c0.9,0.1,1.6,0.9,1.7,1.8v73.9C196.9,134.2,196.2,134.8,195.3,134.7z"/>
	<g>
		<polygon class="st2" points="160.5,77.2 196.9,81.6 196.9,82.1 160.5,77.7 		"/>
		<polygon class="st2" points="160.6,106.2 197.1,110.7 197.1,111.2 160.6,106.7 		"/>
		<polygon class="st2" points="172,54.6 172.5,54.7 172.5,132.1 172,132.1 		"/>
		<polygon class="st2" points="184.7,56.2 185.2,56.3 185.2,133.7 184.7,133.6 		"/>
	</g>
</g>
<g>
	<path class="st1" d="M181.9,17.3v0.9h-2.9v1.4h2.7v0.9H179V22h2.9V23h-4v-5.7H181.9z"/>
	<path class="st1" d="M185.7,20.1l-2.2-2.9h1.3l1.6,2.1l1.6-2.1h1.3l-2.2,2.9l2.2,2.9h-1.3l-1.6-2.1l-1.6,2.1h-1.3L185.7,20.1z"/>
	<path class="st1" d="M192,17.3V23h-1.1v-5.7H192z"/>
	<path class="st1" d="M197.9,17.3v0.9h-1.6V23h-1.1v-4.8h-1.6v-0.9H197.9z"/>
</g>
</svg>
