<?xml version="1.0" encoding="utf-8"?>
<!-- Generator: Adobe Illustrator 25.0.0, SVG Export Plug-In . SVG Version: 6.00 Build 0)  -->
<svg version="1.1" id="Camada_1" xmlns="http://www.w3.org/2000/svg" xmlns:xlink="http://www.w3.org/1999/xlink" x="0px" y="0px"
	 viewBox="0 0 370 170" style="enable-background:new 0 0 370 170;" xml:space="preserve">
<style type="text/css">
	.st0{opacity:0.1;fill:#161616;}
	.st1{fill:#161616;}
</style>
<g>
	<g>
		<ellipse class="st0" cx="184.2" cy="44.8" rx="27.4" ry="28.2"/>
		<g>
			<path class="st1" d="M183.6,16.6c15.4-0.2,27.8,12.2,28,28c0.1,15.4-11.7,28.1-26.8,28.4c-15.3,0.3-27.8-12.2-28-27.8
				C156.6,29.5,168.6,16.9,183.6,16.6z M184.2,70.3c13.8-0.1,24.8-11.5,24.8-25.7c-0.1-14.2-11.3-25.5-25-25.4
				c-13.7,0.1-24.7,11.7-24.6,25.8C159.5,59,170.8,70.4,184.2,70.3z"/>
			<path class="st1" d="M195.9,55.5c-0.5,0-0.9-0.3-1.1-0.7c-1.6-3.3-4.2-5-7.6-5.7c-2.6-0.5-5.2-0.4-7.7,0.5
				c-2.6,0.9-4.6,2.6-5.8,5.1c-0.4,0.7-1.1,1-1.8,0.7c-0.7-0.3-0.9-1.1-0.6-1.8c1-2.2,2.6-3.9,4.6-5.2c2.9-1.8,6.1-2.4,9.4-2.2
				c3.5,0.2,6.7,1.3,9.3,3.9c1,1,1.8,2.1,2.4,3.4C197.5,54.5,196.9,55.5,195.9,55.5z"/>
			<path class="st1" d="M189.3,39.2c-0.3,0.1-0.6,0.2-0.9,0.2c-0.7,0.2-1.4-0.2-1.6-1c-0.2-0.7,0.2-1.5,0.9-1.7
				c1.7-0.6,3.4-1.1,5.2-1.6c2.6-0.8,5.2-1.6,7.8-2.4c0.6-0.2,1.1-0.1,1.5,0.4c0.4,0.4,0.5,1,0.2,1.5c-0.2,0.3-0.6,0.7-0.9,0.8
				c-1.7,0.6-3.4,1.1-5.1,1.6c-0.2,0.1-0.4,0.2-0.7,0.2c0.5,1.2,0.5,2.4-0.2,3.5c-0.5,0.8-1.1,1.2-2,1.5
				C191.6,42.7,190.1,41.6,189.3,39.2z"/>
			<path class="st1" d="M179,39.1c-0.9,2.6-2.4,3.6-4.3,3c-1.9-0.6-2.6-2.4-2-4.9c-0.2-0.1-0.5-0.2-0.7-0.2c-1.7-0.5-3.4-1-5-1.5
				c-0.9-0.3-1.3-1-1.1-1.8c0.2-0.8,1-1.2,1.9-0.9c4.2,1.3,8.4,2.6,12.6,3.9c0.3,0.1,0.6,0.2,0.8,0.4c0.4,0.4,0.5,1.1,0.3,1.6
				c-0.3,0.6-0.8,0.8-1.5,0.7C179.6,39.3,179.3,39.2,179,39.1z"/>
		</g>
	</g>
	<g>
		<g>
			<g>
				<path class="st1" d="M41.2,124.4c7.9-0.1,14.3,6.3,14.4,14.4c0.1,7.9-6,14.4-13.8,14.6c-7.9,0.2-14.3-6.3-14.4-14.3
					C27.3,131.1,33.5,124.6,41.2,124.4z M41.5,152.1c7.1,0,12.8-5.9,12.7-13.2c0-7.3-5.8-13.1-12.8-13.1c-7.1,0.1-12.7,6-12.7,13.3
					C28.8,146.2,34.6,152.1,41.5,152.1z"/>
				<path class="st1" d="M47.5,144.5c-0.3,0-0.5-0.1-0.6-0.4c-0.8-1.7-2.2-2.6-3.9-2.9c-1.3-0.3-2.7-0.2-4,0.3
					c-1.3,0.5-2.4,1.3-3,2.6c-0.2,0.4-0.6,0.5-0.9,0.3c-0.3-0.2-0.5-0.6-0.3-0.9c0.5-1.1,1.3-2,2.4-2.7c1.5-0.9,3.1-1.2,4.8-1.1
					c1.8,0.1,3.5,0.7,4.8,2c0.5,0.5,0.9,1.1,1.2,1.8C48.3,143.9,48,144.5,47.5,144.5z"/>
				<path class="st1" d="M44.1,136.1c-0.2,0-0.3,0.1-0.5,0.1c-0.4,0.1-0.7-0.1-0.8-0.5c-0.1-0.4,0.1-0.8,0.5-0.9
					c0.9-0.3,1.8-0.6,2.7-0.8c1.3-0.4,2.7-0.8,4-1.2c0.3-0.1,0.6-0.1,0.8,0.2c0.2,0.2,0.3,0.5,0.1,0.8c-0.1,0.2-0.3,0.3-0.5,0.4
					c-0.9,0.3-1.8,0.5-2.6,0.8c-0.1,0-0.2,0.1-0.4,0.1c0.2,0.6,0.3,1.2-0.1,1.8c-0.2,0.4-0.6,0.6-1,0.8
					C45.3,137.9,44.5,137.3,44.1,136.1z"/>
				<path class="st1" d="M38.8,136c-0.5,1.3-1.2,1.9-2.2,1.5c-1-0.3-1.4-1.2-1-2.5c-0.1,0-0.2-0.1-0.4-0.1c-0.9-0.3-1.7-0.5-2.6-0.8
					c-0.5-0.1-0.7-0.5-0.6-0.9c0.1-0.4,0.5-0.6,1-0.5c2.2,0.7,4.3,1.3,6.5,2c0.1,0,0.3,0.1,0.4,0.2c0.2,0.2,0.3,0.5,0.1,0.8
					c-0.1,0.3-0.4,0.4-0.8,0.4C39.1,136.1,39,136.1,38.8,136z"/>
			</g>
		</g>
		<g>
			<g>
				<path class="st1" d="M73.1,124.4c7.9-0.1,14.3,6.3,14.4,14.4c0.1,7.9-6,14.4-13.8,14.6c-7.9,0.2-14.3-6.3-14.4-14.3
					C59.2,131.1,65.4,124.6,73.1,124.4z M73.4,152.1c7.1,0,12.8-5.9,12.7-13.2c0-7.3-5.8-13.1-12.8-13.1c-7.1,0.1-12.7,6-12.7,13.3
					C60.7,146.2,66.5,152.1,73.4,152.1z"/>
				<path class="st1" d="M79.4,144.5c-0.3,0-0.5-0.1-0.6-0.4c-0.8-1.7-2.2-2.6-3.9-2.9c-1.3-0.3-2.7-0.2-4,0.3
					c-1.3,0.5-2.4,1.3-3,2.6c-0.2,0.4-0.6,0.5-0.9,0.3c-0.3-0.2-0.5-0.6-0.3-0.9c0.5-1.1,1.3-2,2.4-2.7c1.5-0.9,3.1-1.2,4.8-1.1
					c1.8,0.1,3.5,0.7,4.8,2c0.5,0.5,0.9,1.1,1.2,1.8C80.2,143.9,79.9,144.5,79.4,144.5z"/>
				<path class="st1" d="M76,136.1c-0.2,0-0.3,0.1-0.5,0.1c-0.4,0.1-0.7-0.1-0.8-0.5c-0.1-0.4,0.1-0.8,0.5-0.9
					c0.9-0.3,1.8-0.6,2.7-0.8c1.3-0.4,2.7-0.8,4-1.2c0.3-0.1,0.6-0.1,0.8,0.2c0.2,0.2,0.3,0.5,0.1,0.8c-0.1,0.2-0.3,0.3-0.5,0.4
					c-0.9,0.3-1.8,0.5-2.6,0.8c-0.1,0-0.2,0.1-0.4,0.1c0.2,0.6,0.3,1.2-0.1,1.8c-0.2,0.4-0.6,0.6-1,0.8
					C77.2,137.9,76.4,137.3,76,136.1z"/>
				<path class="st1" d="M70.7,136c-0.5,1.3-1.2,1.9-2.2,1.5c-1-0.3-1.4-1.2-1-2.5c-0.1,0-0.2-0.1-0.4-0.1c-0.9-0.3-1.7-0.5-2.6-0.8
					c-0.5-0.1-0.7-0.5-0.6-0.9c0.1-0.4,0.5-0.6,1-0.5c2.2,0.7,4.3,1.3,6.5,2c0.1,0,0.3,0.1,0.4,0.2c0.2,0.2,0.3,0.5,0.1,0.8
					c-0.1,0.3-0.4,0.4-0.8,0.4C71,136.1,70.9,136.1,70.7,136z"/>
			</g>
		</g>
		<g>
			<g>
				<path class="st1" d="M105,124.4c7.9-0.1,14.3,6.3,14.4,14.4c0.1,7.9-6,14.4-13.8,14.6c-7.9,0.2-14.3-6.3-14.4-14.3
					C91.1,131.1,97.3,124.6,105,124.4z M105.3,152.1c7.1,0,12.8-5.9,12.7-13.2c0-7.3-5.8-13.1-12.8-13.1c-7.1,0.1-12.7,6-12.7,13.3
					C92.6,146.2,98.4,152.1,105.3,152.1z"/>
				<path class="st1" d="M111.3,144.5c-0.3,0-0.5-0.1-0.6-0.4c-0.8-1.7-2.2-2.6-3.9-2.9c-1.3-0.3-2.7-0.2-4,0.3
					c-1.3,0.5-2.4,1.3-3,2.6c-0.2,0.4-0.6,0.5-0.9,0.3c-0.3-0.2-0.5-0.6-0.3-0.9c0.5-1.1,1.3-2,2.4-2.7c1.5-0.9,3.1-1.2,4.8-1.1
					c1.8,0.1,3.5,0.7,4.8,2c0.5,0.5,0.9,1.1,1.2,1.8C112.1,143.9,111.8,144.5,111.3,144.5z"/>
				<path class="st1" d="M107.9,136.1c-0.2,0-0.3,0.1-0.5,0.1c-0.4,0.1-0.7-0.1-0.8-0.5c-0.1-0.4,0.1-0.8,0.5-0.9
					c0.9-0.3,1.8-0.6,2.7-0.8c1.3-0.4,2.7-0.8,4-1.2c0.3-0.1,0.6-0.1,0.8,0.2c0.2,0.2,0.3,0.5,0.1,0.8c-0.1,0.2-0.3,0.3-0.5,0.4
					c-0.9,0.3-1.8,0.5-2.6,0.8c-0.1,0-0.2,0.1-0.4,0.1c0.2,0.6,0.3,1.2-0.1,1.8c-0.2,0.4-0.6,0.6-1,0.8
					C109.1,137.9,108.3,137.3,107.9,136.1z"/>
				<path class="st1" d="M102.6,136c-0.5,1.3-1.2,1.9-2.2,1.5c-1-0.3-1.4-1.2-1-2.5c-0.1,0-0.2-0.1-0.4-0.1
					c-0.9-0.3-1.7-0.5-2.6-0.8c-0.5-0.1-0.7-0.5-0.6-0.9c0.1-0.4,0.5-0.6,1-0.5c2.2,0.7,4.3,1.3,6.5,2c0.1,0,0.3,0.1,0.4,0.2
					c0.2,0.2,0.3,0.5,0.1,0.8c-0.1,0.3-0.4,0.4-0.8,0.4C102.9,136.1,102.8,136.1,102.6,136z"/>
			</g>
		</g>
		<g>
			<g>
				<path class="st1" d="M136.9,124.4c7.9-0.1,14.3,6.3,14.4,14.4c0.1,7.9-6,14.4-13.8,14.6c-7.9,0.2-14.3-6.3-14.4-14.3
					C123,131.1,129.2,124.6,136.9,124.4z M137.2,152.1c7.1,0,12.8-5.9,12.7-13.2c0-7.3-5.8-13.1-12.8-13.1
					c-7.1,0.1-12.7,6-12.7,13.3C124.5,146.2,130.3,152.1,137.2,152.1z"/>
				<path class="st1" d="M143.2,144.5c-0.3,0-0.5-0.1-0.6-0.4c-0.8-1.7-2.2-2.6-3.9-2.9c-1.3-0.3-2.7-0.2-4,0.3
					c-1.3,0.5-2.4,1.3-3,2.6c-0.2,0.4-0.6,0.5-0.9,0.3c-0.3-0.2-0.5-0.6-0.3-0.9c0.5-1.1,1.3-2,2.4-2.7c1.5-0.9,3.1-1.2,4.8-1.1
					c1.8,0.1,3.5,0.7,4.8,2c0.5,0.5,0.9,1.1,1.2,1.8C144,143.9,143.7,144.5,143.2,144.5z"/>
				<path class="st1" d="M139.8,136.1c-0.2,0-0.3,0.1-0.5,0.1c-0.4,0.1-0.7-0.1-0.8-0.5c-0.1-0.4,0.1-0.8,0.5-0.9
					c0.9-0.3,1.8-0.6,2.7-0.8c1.3-0.4,2.7-0.8,4-1.2c0.3-0.1,0.6-0.1,0.8,0.2c0.2,0.2,0.3,0.5,0.1,0.8c-0.1,0.2-0.3,0.3-0.5,0.4
					c-0.9,0.3-1.8,0.5-2.6,0.8c-0.1,0-0.2,0.1-0.4,0.1c0.2,0.6,0.3,1.2-0.1,1.8c-0.2,0.4-0.6,0.6-1,0.8
					C141,137.9,140.2,137.3,139.8,136.1z"/>
				<path class="st1" d="M134.5,136c-0.5,1.3-1.2,1.9-2.2,1.5c-1-0.3-1.4-1.2-1-2.5c-0.1,0-0.2-0.1-0.4-0.1
					c-0.9-0.3-1.7-0.5-2.6-0.8c-0.5-0.1-0.7-0.5-0.6-0.9c0.1-0.4,0.5-0.6,1-0.5c2.2,0.7,4.3,1.3,6.5,2c0.1,0,0.3,0.1,0.4,0.2
					c0.2,0.2,0.3,0.5,0.1,0.8c-0.1,0.3-0.4,0.4-0.8,0.4C134.8,136.1,134.7,136.1,134.5,136z"/>
			</g>
		</g>
		<g>
			<g>
				<path class="st1" d="M168.8,124.4c7.9-0.1,14.3,6.3,14.4,14.4c0.1,7.9-6,14.4-13.8,14.6c-7.9,0.2-14.3-6.3-14.4-14.3
					C154.9,131.1,161.1,124.6,168.8,124.4z M169.1,152.1c7.1,0,12.8-5.9,12.7-13.2c0-7.3-5.8-13.1-12.8-13.1
					c-7.1,0.1-12.7,6-12.7,13.3C156.4,146.2,162.2,152.1,169.1,152.1z"/>
				<path class="st1" d="M175.1,144.5c-0.3,0-0.5-0.1-0.6-0.4c-0.8-1.7-2.2-2.6-3.9-2.9c-1.3-0.3-2.7-0.2-4,0.3
					c-1.3,0.5-2.4,1.3-3,2.6c-0.2,0.4-0.6,0.5-0.9,0.3c-0.3-0.2-0.5-0.6-0.3-0.9c0.5-1.1,1.3-2,2.4-2.7c1.5-0.9,3.1-1.2,4.8-1.1
					c1.8,0.1,3.5,0.7,4.8,2c0.5,0.5,0.9,1.1,1.2,1.8C175.9,143.9,175.6,144.5,175.1,144.5z"/>
				<path class="st1" d="M171.7,136.1c-0.2,0-0.3,0.1-0.5,0.1c-0.4,0.1-0.7-0.1-0.8-0.5c-0.1-0.4,0.1-0.8,0.5-0.9
					c0.9-0.3,1.8-0.6,2.7-0.8c1.3-0.4,2.7-0.8,4-1.2c0.3-0.1,0.6-0.1,0.8,0.2c0.2,0.2,0.3,0.5,0.1,0.8c-0.1,0.2-0.3,0.3-0.5,0.4
					c-0.9,0.3-1.8,0.5-2.6,0.8c-0.1,0-0.2,0.1-0.4,0.1c0.2,0.6,0.3,1.2-0.1,1.8c-0.2,0.4-0.6,0.6-1,0.8
					C172.9,137.9,172.1,137.3,171.7,136.1z"/>
				<path class="st1" d="M166.4,136c-0.5,1.3-1.2,1.9-2.2,1.5c-1-0.3-1.4-1.2-1-2.5c-0.1,0-0.2-0.1-0.4-0.1
					c-0.9-0.3-1.7-0.5-2.6-0.8c-0.5-0.1-0.7-0.5-0.6-0.9c0.1-0.4,0.5-0.6,1-0.5c2.2,0.7,4.3,1.3,6.5,2c0.1,0,0.3,0.1,0.4,0.2
					c0.2,0.2,0.3,0.5,0.1,0.8c-0.1,0.3-0.4,0.4-0.8,0.4C166.7,136.1,166.6,136.1,166.4,136z"/>
			</g>
		</g>
		<g>
			<g>
				<path class="st1" d="M200.7,124.4c7.9-0.1,14.3,6.3,14.4,14.4c0.1,7.9-6,14.4-13.8,14.6c-7.9,0.2-14.3-6.3-14.4-14.3
					C186.8,131.1,193,124.6,200.7,124.4z M201,152.1c7.1,0,12.8-5.9,12.7-13.2c0-7.3-5.8-13.1-12.8-13.1c-7.1,0.1-12.7,6-12.7,13.3
					C188.3,146.2,194.1,152.1,201,152.1z"/>
				<path class="st1" d="M207,144.5c-0.3,0-0.5-0.1-0.6-0.4c-0.8-1.7-2.2-2.6-3.9-2.9c-1.3-0.3-2.7-0.2-4,0.3
					c-1.3,0.5-2.4,1.3-3,2.6c-0.2,0.4-0.6,0.5-0.9,0.3c-0.3-0.2-0.5-0.6-0.3-0.9c0.5-1.1,1.3-2,2.4-2.7c1.5-0.9,3.1-1.2,4.8-1.1
					c1.8,0.1,3.5,0.7,4.8,2c0.5,0.5,0.9,1.1,1.2,1.8C207.8,143.9,207.5,144.5,207,144.5z"/>
				<path class="st1" d="M203.6,136.1c-0.2,0-0.3,0.1-0.5,0.1c-0.4,0.1-0.7-0.1-0.8-0.5c-0.1-0.4,0.1-0.8,0.5-0.9
					c0.9-0.3,1.8-0.6,2.7-0.8c1.3-0.4,2.7-0.8,4-1.2c0.3-0.1,0.6-0.1,0.8,0.2c0.2,0.2,0.3,0.5,0.1,0.8c-0.1,0.2-0.3,0.3-0.5,0.4
					c-0.9,0.3-1.8,0.5-2.6,0.8c-0.1,0-0.2,0.1-0.4,0.1c0.2,0.6,0.3,1.2-0.1,1.8c-0.2,0.4-0.6,0.6-1,0.8
					C204.8,137.9,204,137.3,203.6,136.1z"/>
				<path class="st1" d="M198.3,136c-0.5,1.3-1.2,1.9-2.2,1.5c-1-0.3-1.4-1.2-1-2.5c-0.1,0-0.2-0.1-0.4-0.1
					c-0.9-0.3-1.7-0.5-2.6-0.8c-0.5-0.1-0.7-0.5-0.6-0.9c0.1-0.4,0.5-0.6,1-0.5c2.2,0.7,4.3,1.3,6.5,2c0.1,0,0.3,0.1,0.4,0.2
					c0.2,0.2,0.3,0.5,0.1,0.8c-0.1,0.3-0.4,0.4-0.8,0.4C198.6,136.1,198.5,136.1,198.3,136z"/>
			</g>
		</g>
		<g>
			<g>
				<path class="st1" d="M232.6,124.4c7.9-0.1,14.3,6.3,14.4,14.4c0.1,7.9-6,14.4-13.8,14.6c-7.9,0.2-14.3-6.3-14.4-14.3
					C218.7,131.1,224.9,124.6,232.6,124.4z M232.9,152.1c7.1,0,12.8-5.9,12.7-13.2c0-7.3-5.8-13.1-12.8-13.1
					c-7.1,0.1-12.7,6-12.7,13.3C220.2,146.2,226,152.1,232.9,152.1z"/>
				<path class="st1" d="M238.9,144.5c-0.3,0-0.5-0.1-0.6-0.4c-0.8-1.7-2.2-2.6-3.9-2.9c-1.3-0.3-2.7-0.2-4,0.3
					c-1.3,0.5-2.4,1.3-3,2.6c-0.2,0.4-0.6,0.5-0.9,0.3c-0.3-0.2-0.5-0.6-0.3-0.9c0.5-1.1,1.3-2,2.4-2.7c1.5-0.9,3.1-1.2,4.8-1.1
					c1.8,0.1,3.5,0.7,4.8,2c0.5,0.5,0.9,1.1,1.2,1.8C239.7,143.9,239.4,144.5,238.9,144.5z"/>
				<path class="st1" d="M235.5,136.1c-0.2,0-0.3,0.1-0.5,0.1c-0.4,0.1-0.7-0.1-0.8-0.5c-0.1-0.4,0.1-0.8,0.5-0.9
					c0.9-0.3,1.8-0.6,2.7-0.8c1.3-0.4,2.7-0.8,4-1.2c0.3-0.1,0.6-0.1,0.8,0.2c0.2,0.2,0.3,0.5,0.1,0.8c-0.1,0.2-0.3,0.3-0.5,0.4
					c-0.9,0.3-1.8,0.5-2.6,0.8c-0.1,0-0.2,0.1-0.4,0.1c0.2,0.6,0.3,1.2-0.1,1.8c-0.2,0.4-0.6,0.6-1,0.8
					C236.7,137.9,235.9,137.3,235.5,136.1z"/>
				<path class="st1" d="M230.2,136c-0.5,1.3-1.2,1.9-2.2,1.5c-1-0.3-1.4-1.2-1-2.5c-0.1,0-0.2-0.1-0.4-0.1
					c-0.9-0.3-1.7-0.5-2.6-0.8c-0.5-0.1-0.7-0.5-0.6-0.9c0.1-0.4,0.5-0.6,1-0.5c2.2,0.7,4.3,1.3,6.5,2c0.1,0,0.3,0.1,0.4,0.2
					c0.2,0.2,0.3,0.5,0.1,0.8c-0.1,0.3-0.4,0.4-0.8,0.4C230.5,136.1,230.4,136.1,230.2,136z"/>
			</g>
		</g>
		<g>
			<g>
				<path class="st1" d="M264.5,124.4c7.9-0.1,14.3,6.3,14.4,14.4c0.1,7.9-6,14.4-13.8,14.6c-7.9,0.2-14.3-6.3-14.4-14.3
					C250.6,131.1,256.8,124.6,264.5,124.4z M264.8,152.1c7.1,0,12.8-5.9,12.7-13.2c0-7.3-5.8-13.1-12.8-13.1
					c-7.1,0.1-12.7,6-12.7,13.3C252.1,146.2,257.9,152.1,264.8,152.1z"/>
				<path class="st1" d="M270.8,144.5c-0.3,0-0.5-0.1-0.6-0.4c-0.8-1.7-2.2-2.6-3.9-2.9c-1.3-0.3-2.7-0.2-4,0.3
					c-1.3,0.5-2.4,1.3-3,2.6c-0.2,0.4-0.6,0.5-0.9,0.3c-0.3-0.2-0.5-0.6-0.3-0.9c0.5-1.1,1.3-2,2.4-2.7c1.5-0.9,3.1-1.2,4.8-1.1
					c1.8,0.1,3.5,0.7,4.8,2c0.5,0.5,0.9,1.1,1.2,1.8C271.6,143.9,271.3,144.5,270.8,144.5z"/>
				<path class="st1" d="M267.4,136.1c-0.2,0-0.3,0.1-0.5,0.1c-0.4,0.1-0.7-0.1-0.8-0.5c-0.1-0.4,0.1-0.8,0.5-0.9
					c0.9-0.3,1.8-0.6,2.7-0.8c1.3-0.4,2.7-0.8,4-1.2c0.3-0.1,0.6-0.1,0.8,0.2c0.2,0.2,0.3,0.5,0.1,0.8c-0.1,0.2-0.3,0.3-0.5,0.4
					c-0.9,0.3-1.8,0.5-2.6,0.8c-0.1,0-0.2,0.1-0.4,0.1c0.2,0.6,0.3,1.2-0.1,1.8c-0.2,0.4-0.6,0.6-1,0.8
					C268.6,137.9,267.8,137.3,267.4,136.1z"/>
				<path class="st1" d="M262.1,136c-0.5,1.3-1.2,1.9-2.2,1.5c-1-0.3-1.4-1.2-1-2.5c-0.1,0-0.2-0.1-0.4-0.1
					c-0.9-0.3-1.7-0.5-2.6-0.8c-0.5-0.1-0.7-0.5-0.6-0.9c0.1-0.4,0.5-0.6,1-0.5c2.2,0.7,4.3,1.3,6.5,2c0.1,0,0.3,0.1,0.4,0.2
					c0.2,0.2,0.3,0.5,0.1,0.8c-0.1,0.3-0.4,0.4-0.8,0.4C262.4,136.1,262.3,136.1,262.1,136z"/>
			</g>
		</g>
		<g>
			<g>
				<path class="st1" d="M296.4,124.4c7.9-0.1,14.3,6.3,14.4,14.4c0.1,7.9-6,14.4-13.8,14.6c-7.9,0.2-14.3-6.3-14.4-14.3
					C282.5,131.1,288.7,124.6,296.4,124.4z M296.7,152.1c7.1,0,12.8-5.9,12.7-13.2c0-7.3-5.8-13.1-12.8-13.1
					c-7.1,0.1-12.7,6-12.7,13.3C284,146.2,289.8,152.1,296.7,152.1z"/>
				<path class="st1" d="M302.7,144.5c-0.3,0-0.5-0.1-0.6-0.4c-0.8-1.7-2.2-2.6-3.9-2.9c-1.3-0.3-2.7-0.2-4,0.3
					c-1.3,0.5-2.4,1.3-3,2.6c-0.2,0.4-0.6,0.5-0.9,0.3c-0.3-0.2-0.5-0.6-0.3-0.9c0.5-1.1,1.3-2,2.4-2.7c1.5-0.9,3.1-1.2,4.8-1.1
					c1.8,0.1,3.5,0.7,4.8,2c0.5,0.5,0.9,1.1,1.2,1.8C303.5,143.9,303.2,144.5,302.7,144.5z"/>
				<path class="st1" d="M299.3,136.1c-0.2,0-0.3,0.1-0.5,0.1c-0.4,0.1-0.7-0.1-0.8-0.5c-0.1-0.4,0.1-0.8,0.5-0.9
					c0.9-0.3,1.8-0.6,2.7-0.8c1.3-0.4,2.7-0.8,4-1.2c0.3-0.1,0.6-0.1,0.8,0.2c0.2,0.2,0.3,0.5,0.1,0.8c-0.1,0.2-0.3,0.3-0.5,0.4
					c-0.9,0.3-1.8,0.5-2.6,0.8c-0.1,0-0.2,0.1-0.4,0.1c0.2,0.6,0.3,1.2-0.1,1.8c-0.2,0.4-0.6,0.6-1,0.8
					C300.5,137.9,299.7,137.3,299.3,136.1z"/>
				<path class="st1" d="M294,136c-0.5,1.3-1.2,1.9-2.2,1.5c-1-0.3-1.4-1.2-1-2.5c-0.1,0-0.2-0.1-0.4-0.1c-0.9-0.3-1.7-0.5-2.6-0.8
					c-0.5-0.1-0.7-0.5-0.6-0.9c0.1-0.4,0.5-0.6,1-0.5c2.2,0.7,4.3,1.3,6.5,2c0.1,0,0.3,0.1,0.4,0.2c0.2,0.2,0.3,0.5,0.1,0.8
					c-0.1,0.3-0.4,0.4-0.8,0.4C294.3,136.1,294.2,136.1,294,136z"/>
			</g>
		</g>
		<g>
			<g>
				<path class="st1" d="M328.3,124.4c7.9-0.1,14.3,6.3,14.4,14.4c0.1,7.9-6,14.4-13.8,14.6c-7.9,0.2-14.3-6.3-14.4-14.3
					C314.4,131.1,320.6,124.6,328.3,124.4z M328.6,152.1c7.1,0,12.8-5.9,12.7-13.2c0-7.3-5.8-13.1-12.8-13.1
					c-7.1,0.1-12.7,6-12.7,13.3C315.9,146.2,321.7,152.1,328.6,152.1z"/>
				<path class="st1" d="M334.6,144.5c-0.3,0-0.5-0.1-0.6-0.4c-0.8-1.7-2.2-2.6-3.9-2.9c-1.3-0.3-2.7-0.2-4,0.3
					c-1.3,0.5-2.4,1.3-3,2.6c-0.2,0.4-0.6,0.5-0.9,0.3c-0.3-0.2-0.5-0.6-0.3-0.9c0.5-1.1,1.3-2,2.4-2.7c1.5-0.9,3.1-1.2,4.8-1.1
					c1.8,0.1,3.5,0.7,4.8,2c0.5,0.5,0.9,1.1,1.2,1.8C335.4,143.9,335.1,144.5,334.6,144.5z"/>
				<path class="st1" d="M331.2,136.1c-0.2,0-0.3,0.1-0.5,0.1c-0.4,0.1-0.7-0.1-0.8-0.5c-0.1-0.4,0.1-0.8,0.5-0.9
					c0.9-0.3,1.8-0.6,2.7-0.8c1.3-0.4,2.7-0.8,4-1.2c0.3-0.1,0.6-0.1,0.8,0.2c0.2,0.2,0.3,0.5,0.1,0.8c-0.1,0.2-0.3,0.3-0.5,0.4
					c-0.9,0.3-1.8,0.5-2.6,0.8c-0.1,0-0.2,0.1-0.4,0.1c0.2,0.6,0.3,1.2-0.1,1.8c-0.2,0.4-0.6,0.6-1,0.8
					C332.4,137.9,331.6,137.3,331.2,136.1z"/>
				<path class="st1" d="M325.9,136c-0.5,1.3-1.2,1.9-2.2,1.5c-1-0.3-1.4-1.2-1-2.5c-0.1,0-0.2-0.1-0.4-0.1
					c-0.9-0.3-1.7-0.5-2.6-0.8c-0.5-0.1-0.7-0.5-0.6-0.9c0.1-0.4,0.5-0.6,1-0.5c2.2,0.7,4.3,1.3,6.5,2c0.1,0,0.3,0.1,0.4,0.2
					c0.2,0.2,0.3,0.5,0.1,0.8c-0.1,0.3-0.4,0.4-0.8,0.4C326.2,136.1,326.1,136.1,325.9,136z"/>
			</g>
		</g>
	</g>
	<g>
		<g>
			<path class="st1" d="M41.3,89.2v28h0.2V89.4h286.7v27.7h0.2v-28H41.3z"/>
			<path class="st1" d="M73.2,89.2v28h0.2V89.4h222.9v27.7h0.2v-28H73.2z"/>
			<path class="st1" d="M105.1,89.2v28h0.2V89.4h159.1v27.7h0.2v-28H105.1z"/>
			<path class="st1" d="M137,89.2v28h0.2V89.4h95.4v27.7h0.2v-28H137z"/>
			<path class="st1" d="M168.9,89.2v28h0.2V89.4h31.6v27.7h0.2v-28H168.9z"/>
		</g>
		<rect x="184.1" y="80" class="st1" width="0.2" height="9.4"/>
	</g>
</g>
</svg>
