<?xml version="1.0" encoding="utf-8"?>
<!-- Generator: Adobe Illustrator 25.0.0, SVG Export Plug-In . SVG Version: 6.00 Build 0)  -->
<svg version="1.1" id="Camada_1" xmlns="http://www.w3.org/2000/svg" xmlns:xlink="http://www.w3.org/1999/xlink" x="0px" y="0px"
	 viewBox="0 0 1080 1080" style="enable-background:new 0 0 1080 1080;" xml:space="preserve">
<style type="text/css">
	.st0{fill:#E4002B;}
</style>
<path class="st0" d="M540.4,716.9c-26,26.3-50.2,51.1-74.7,75.6c-85.7,85.9-171.5,171.7-257.4,257.4c-40.3,40.2-97.4,39.9-138-0.1
	c-13-12.9-25.9-25.8-38.8-38.8c-41.8-42.3-42.1-98.2-0.2-140.3c106.5-106.8,213.3-213.4,320-320c3.2-3.2,7-5.6,11.5-9.2
	c-4.5-4.7-7.4-8-10.4-11C245.5,423.6,138.6,316.7,31.7,209.8c-27.3-27.3-39-59.6-26.9-96.9c4.9-15,14.9-29.1,25-41.6
	c12.2-15,27-27.9,40.9-41.4c40.7-39.9,97.5-39.9,138,0.5C315.9,137.4,423,244.7,530.2,351.9c2.9,2.9,5.2,6.4,8.7,10.7
	c4.8-4.5,8.2-7.7,11.5-10.9C655.7,246.3,761.1,141,866.3,35.5c15.3-15.4,32-28.1,53.6-32.8c31.8-6.9,60.2,0.6,84.2,22.3
	c16.3,14.7,31.7,30.6,47,46.4c38.7,39.8,38.5,97-0.7,136.4c-72.2,72.5-144.6,144.7-217,217c-38,38-76,76-114.7,114.7
	c2.4,2.7,4.3,5.2,6.6,7.5C833,654.7,940.7,762.4,1048.5,870.1c42,42,42,99.1,0,141.3c-11.9,11.9-23.7,23.8-35.6,35.6
	c-44.2,43.8-99.6,44-143.6,0.1c-105.4-105.3-210.7-210.7-316-316C549.3,727.2,545.7,722.8,540.4,716.9z"/>
</svg>
