<svg width="1366" height="769" viewBox="0 0 1366 769" fill="none" xmlns="http://www.w3.org/2000/svg">
<path d="M1242.7 533.3C1224.4 533.3 1209.6 518.5 1209.6 500.2C1209.6 481.9 1224.4 467.1 1242.7 467.1C1261 467.1 1275.8 481.9 1275.8 500.2C1275.8 518.4 1261 533.2 1242.7 533.3ZM1242.7 470C1226.1 470 1212.6 483.5 1212.6 500.1C1212.6 516.7 1226.1 530.2 1242.7 530.2C1259.3 530.2 1272.8 516.7 1272.8 500.1C1272.8 483.5 1259.3 470 1242.7 470Z" fill="#E4002B"/>
<path opacity="0.05" d="M627.4 273.6C632.26 273.6 636.2 269.66 636.2 264.8C636.2 259.94 632.26 256 627.4 256C622.54 256 618.6 259.94 618.6 264.8C618.6 269.66 622.54 273.6 627.4 273.6Z" fill="#E4002B"/>
<path d="M969.6 335.3C974.46 335.3 978.4 331.36 978.4 326.5C978.4 321.64 974.46 317.7 969.6 317.7C964.74 317.7 960.8 321.64 960.8 326.5C960.8 331.36 964.74 335.3 969.6 335.3Z" fill="#E4002B"/>
<path d="M647.5 530.2C650.261 530.2 652.5 527.962 652.5 525.2C652.5 522.439 650.261 520.2 647.5 520.2C644.739 520.2 642.5 522.439 642.5 525.2C642.5 527.962 644.739 530.2 647.5 530.2Z" fill="#E4002B"/>
<path d="M572 631.3H569.8V629H569.3V631.3H567V631.8H569.3V634H569.8V631.8H572V631.3Z" fill="#E4002B"/>
<path d="M1308 445.1H1305.7V442.8H1305.2V445.1H1302.9V445.6H1305.2V447.9H1305.7V445.6H1308V445.1Z" fill="#E4002B"/>
<path d="M1089.1 508H1086.8V505.7H1086.3V508H1084V508.5H1086.3V510.8H1086.8V508.5H1089.1V508Z" fill="#E4002B"/>
<path d="M1016.1 574.7H1013.8V572.4H1013.3V574.7H1011.1V575.2H1013.3V577.4H1013.8V575.2H1016.1V574.7Z" fill="#E4002B"/>
<path d="M1177.1 577.2H1174.9V574.9H1174.4V577.2H1172.1V577.7H1174.4V579.9H1174.9V577.7H1177.1V577.2Z" fill="#E4002B"/>
<path d="M574.5 363.3H572.3V361H571.8V363.3H569.5V363.8H571.8V366.1H572.3V363.8H574.5V363.3Z" fill="#E4002B"/>
<path d="M1058.9 343.2H1056.6V340.9H1056.1V343.2H1053.8V343.7H1056.1V346H1056.6V343.7H1058.9V343.2Z" fill="#E4002B"/>
<path opacity="0.05" d="M1153.2 240.9C1155.96 240.9 1158.2 238.661 1158.2 235.9C1158.2 233.138 1155.96 230.9 1153.2 230.9C1150.44 230.9 1148.2 233.138 1148.2 235.9C1148.2 238.661 1150.44 240.9 1153.2 240.9Z" fill="#E4002B"/>
<path d="M737 187.3C739.761 187.3 742 185.061 742 182.3C742 179.538 739.761 177.3 737 177.3C734.239 177.3 732 179.538 732 182.3C732 185.061 734.239 187.3 737 187.3Z" fill="#E4002B"/>
<path d="M661.5 288.4H659.2V286.1H658.7V288.4H656.4V288.9H658.7V291.1H659.2V288.9H661.5V288.4Z" fill="#E4002B"/>
<path d="M1178.5 165.1H1176.3V162.8H1175.8V165.1H1173.5V165.6H1175.8V167.9H1176.3V165.6H1178.5V165.1Z" fill="#E4002B"/>
<path d="M1105.6 231.8H1103.3V229.5H1102.8V231.8H1100.5V232.3H1102.8V234.5H1103.3V232.3H1105.6V231.8Z" fill="#E4002B"/>
<path d="M1266.6 234.3H1264.3V232H1263.8V234.3H1261.5V234.8H1263.8V237H1264.3V234.8H1266.6V234.3Z" fill="#E4002B"/>
<path d="M1148.3 0.300003H1146.1V-2H1145.6V0.300003H1143.3V0.800003H1145.6V3.10001H1146.1V0.800003H1148.3V0.300003Z" fill="#E4002B"/>
<path d="M911 192.5L913 192.5C912.7 147.4 876.1 111 831 111L831 113C875 113 910.7 148.6 911 192.5Z" fill="#E4002B"/>
<path d="M948 192.5L950 192.5C949.7 127 896.5 74 831 74L831 76C895.4 76.1 947.7 128.1 948 192.5Z" fill="#E4002B"/>
<path d="M986 192.5L988 192.5C987.7 106.1 917.4 36 831 36L831 38C916.3 38 985.7 107.3 986 192.5Z" fill="#E4002B"/>
<path d="M708 563.4C689.7 563.4 674.9 548.6 674.9 530.3C674.9 512 689.7 497.2 708 497.2C726.3 497.2 741.1 512 741.1 530.3C741.1 548.5 726.3 563.4 708 563.4ZM708 500.1C691.4 500.1 677.9 513.6 677.9 530.2C677.9 546.8 691.4 560.3 708 560.3C724.6 560.3 738.1 546.8 738.1 530.2C738.1 513.6 724.6 500.1 708 500.1Z" fill="#E4002B"/>
<path d="M606.7 689.3C588.4 689.3 573.6 674.5 573.6 656.2C573.6 637.9 588.4 623.1 606.7 623.1C625 623.1 639.8 637.9 639.8 656.2C639.8 674.4 625 689.2 606.7 689.3ZM606.7 626C590.1 626 576.6 639.5 576.6 656.1C576.6 672.7 590.1 686.2 606.7 686.2C623.3 686.2 636.8 672.7 636.8 656.1C636.8 639.5 623.3 626 606.7 626Z" fill="#E4002B"/>
<path d="M313.4 148C295.1 148 280.3 133.2 280.3 114.9C280.3 96.5998 295.1 81.7998 313.4 81.7998C331.7 81.7998 346.5 96.5998 346.5 114.9C346.5 133.1 331.7 147.9 313.4 148ZM313.4 84.6998C296.8 84.6998 283.3 98.1998 283.3 114.8C283.3 131.4 296.8 144.9 313.4 144.9C330 144.9 343.5 131.4 343.5 114.8C343.5 98.1998 330 84.6998 313.4 84.6998Z" fill="#E4002B"/>
<path opacity="0.05" d="M-8.60002 429.6C-3.73992 429.6 0.199974 425.66 0.199974 420.8C0.199974 415.94 -3.73992 412 -8.60002 412C-13.4601 412 -17.4 415.94 -17.4 420.8C-17.4 425.66 -13.4601 429.6 -8.60002 429.6Z" fill="#E4002B"/>
<path d="M748.7 774.3C753.56 774.3 757.5 770.36 757.5 765.5C757.5 760.64 753.56 756.7 748.7 756.7C743.84 756.7 739.9 760.64 739.9 765.5C739.9 770.36 743.84 774.3 748.7 774.3Z" fill="#E4002B"/>
<path d="M333.6 491.3C338.46 491.3 342.4 487.36 342.4 482.5C342.4 477.64 338.46 473.7 333.6 473.7C328.74 473.7 324.8 477.64 324.8 482.5C324.8 487.36 328.74 491.3 333.6 491.3Z" fill="#E4002B"/>
<path d="M770.1 434.6C772.861 434.6 775.1 432.362 775.1 429.6C775.1 426.839 772.861 424.6 770.1 424.6C767.339 424.6 765.1 426.839 765.1 429.6C765.1 432.362 767.339 434.6 770.1 434.6Z" fill="#E4002B"/>
<path d="M11.5 686.2C14.2614 686.2 16.5 683.962 16.5 681.2C16.5 678.439 14.2614 676.2 11.5 676.2C8.73858 676.2 6.5 678.439 6.5 681.2C6.5 683.962 8.73858 686.2 11.5 686.2Z" fill="#E4002B"/>
<path d="M672 601.1H669.7V598.8H669.2V601.1H666.9V601.6H669.2V603.9H669.7V601.6H672V601.1Z" fill="#E4002B"/>
<path d="M861.9 563.3H859.7V561.1H859.2V563.3H856.9V563.8H859.2V566.1H859.7V563.8H861.9V563.3Z" fill="#E4002B"/>
<path d="M453.1 664H450.8V661.7H450.3V664H448V664.5H450.3V666.8H450.8V664.5H453.1V664Z" fill="#E4002B"/>
<path d="M806.6 676.6H804.3V674.3H803.8V676.6H801.5V677.1H803.8V679.3H804.3V677.1H806.6V676.6Z" fill="#E4002B"/>
<path d="M380.1 730.7H377.8V728.4H377.3V730.7H375.1V731.2H377.3V733.4H377.8V731.2H380.1V730.7Z" fill="#E4002B"/>
<path d="M541.1 733.2H538.9V730.9H538.4V733.2H536.1V733.7H538.4V735.9H538.9V733.7H541.1V733.2Z" fill="#E4002B"/>
<path d="M422.9 499.2H420.6V496.9H420.1V499.2H417.8V499.7H420.1V502H420.6V499.7H422.9V499.2Z" fill="#E4002B"/>
<path opacity="0.05" d="M517.2 396.9C519.961 396.9 522.2 394.661 522.2 391.9C522.2 389.138 519.961 386.9 517.2 386.9C514.439 386.9 512.2 389.138 512.2 391.9C512.2 394.661 514.439 396.9 517.2 396.9Z" fill="#E4002B"/>
<path d="M80.8 86.7001C85.6601 86.7001 89.6 82.7602 89.6 77.9001C89.6 73.04 85.6601 69.1001 80.8 69.1001C75.9399 69.1001 72 73.04 72 77.9001C72 82.7602 75.9399 86.7001 80.8 86.7001Z" fill="#E4002B"/>
<path d="M838.2 431.4C843.06 431.4 847 427.46 847 422.6C847 417.74 843.06 413.8 838.2 413.8C833.34 413.8 829.4 417.74 829.4 422.6C829.4 427.46 833.34 431.4 838.2 431.4Z" fill="#E4002B"/>
<path d="M423 148.4C427.86 148.4 431.8 144.46 431.8 139.6C431.8 134.74 427.86 130.8 423 130.8C418.14 130.8 414.2 134.74 414.2 139.6C414.2 144.46 418.14 148.4 423 148.4Z" fill="#E4002B"/>
<path opacity="0.05" d="M859.5 91.7002C862.261 91.7002 864.5 89.4616 864.5 86.7002C864.5 83.9388 862.261 81.7002 859.5 81.7002C856.739 81.7002 854.5 83.9388 854.5 86.7002C854.5 89.4616 856.739 91.7002 859.5 91.7002Z" fill="#E4002B"/>
<path d="M101 343.3C103.761 343.3 106 341.061 106 338.3C106 335.538 103.761 333.3 101 333.3C98.2386 333.3 96 335.538 96 338.3C96 341.061 98.2386 343.3 101 343.3Z" fill="#E4002B"/>
<path d="M25.5 444.4H23.2V442.1H22.7V444.4H20.4V444.9H22.7V447.1H23.2V444.9H25.5V444.4Z" fill="#E4002B"/>
<path d="M761.4 258.2H759.1V255.9H758.6V258.2H756.4V258.7H758.6V261H759.1V258.7H761.4V258.2Z" fill="#E4002B"/>
<path d="M951.4 220.4H949.1V218.2H948.6V220.4H946.3V220.9H948.6V223.2H949.1V220.9H951.4V220.4Z" fill="#E4002B"/>
<path d="M542.5 321.1H540.3V318.8H539.8V321.1H537.5V321.6H539.8V323.9H540.3V321.6H542.5V321.1Z" fill="#E4002B"/>
<path d="M896 333.7H893.8V331.4H893.3V333.7H891V334.2H893.3V336.4H893.8V334.2H896V333.7Z" fill="#E4002B"/>
<path d="M469.6 387.8H467.3V385.5H466.8V387.8H464.5V388.3H466.8V390.5H467.3V388.3H469.6V387.8Z" fill="#E4002B"/>
<path d="M630.6 390.3H628.3V388H627.8V390.3H625.5V390.8H627.8V393H628.3V390.8H630.6V390.3Z" fill="#E4002B"/>
<path d="M512.3 156.3H510.1V154H509.6V156.3H507.3V156.8H509.6V159.1H510.1V156.8H512.3V156.3Z" fill="#E4002B"/>
<path opacity="0.05" d="M606.7 54C609.461 54 611.7 51.7614 611.7 49C611.7 46.2386 609.461 44 606.7 44C603.939 44 601.7 46.2386 601.7 49C601.7 51.7614 603.939 54 606.7 54Z" fill="#E4002B"/>
<path d="M424.523 554.89L422.536 555.112C427.845 599.9 468.264 632.007 513.084 626.995L512.862 625.008C469.135 629.897 429.7 598.485 424.523 554.89Z" fill="#E4002B"/>
<path d="M387.752 559.002L385.765 559.224C393.341 624.285 452.102 671.045 517.196 663.766L516.974 661.779C452.961 668.836 395.207 622.97 387.752 559.002Z" fill="#E4002B"/>
<path d="M349.988 563.225L348 563.447C357.899 649.278 435.554 711.132 521.419 701.531L521.196 699.543C436.425 709.022 359.754 647.863 349.988 563.225Z" fill="#E4002B"/>
<path d="M72 719.4C53.7 719.4 38.9 704.6 38.9 686.3C38.9 668 53.7 653.2 72 653.2C90.3 653.2 105.1 668 105.1 686.3C105.1 704.5 90.3 719.4 72 719.4ZM72 656.1C55.4 656.1 41.9 669.6 41.9 686.2C41.9 702.8 55.4 716.3 72 716.3C88.6 716.3 102.1 702.8 102.1 686.2C102.1 669.6 88.6 656.1 72 656.1Z" fill="#E4002B"/>
<g style="mix-blend-mode:multiply" opacity="0.1">
<path d="M1022.59 537.953C1137.19 482.453 1239.89 422.353 1322.39 364.653C1332.69 543.453 1212.09 708.353 1031.69 748.253C911.29 774.853 791.69 739.853 705.79 664.153C801.09 635.253 909.99 592.453 1022.59 537.953Z" fill="black"/>
</g>
<g style="mix-blend-mode:multiply" opacity="0.1">
<path d="M1020.39 527.753C704.29 680.853 417.29 741.153 379.19 662.653C355.49 613.753 433.99 522.453 572.89 423.553C573.09 425.853 573.39 428.153 573.59 430.453C573.99 433.753 574.39 437.153 574.89 440.453C469.69 515.253 410.69 579.853 426.49 612.453C441.79 644.053 524.19 639.153 641.99 605.753C644.79 604.953 647.59 604.153 650.49 603.353C621.59 563.353 600.19 516.953 588.79 465.753C587.29 458.953 585.99 452.153 584.89 445.353C583.99 439.753 583.19 434.153 582.49 428.553C560.49 241.453 683.39 64.3526 871.29 22.8526C1000.09 -5.64737 1127.99 36.4526 1214.69 123.453C1218.69 127.453 1222.59 131.553 1226.39 135.753C1264.09 177.153 1292.89 227.553 1308.89 284.653C1311.29 282.953 1313.69 281.253 1316.09 279.553C1415.39 207.753 1470.29 146.153 1454.99 114.553C1439.09 81.7526 1351.09 88.2526 1226.09 125.053C1224.99 123.953 1223.89 122.853 1222.79 121.753C1219.79 118.753 1216.79 115.853 1213.79 112.953C1378.69 64.6526 1499.99 59.4526 1523.79 108.553C1561.79 187.053 1336.39 374.753 1020.39 527.753Z" fill="black"/>
</g>
</svg>
