<svg width="1168" height="845" viewBox="0 0 1168 845" fill="none" xmlns="http://www.w3.org/2000/svg">
<path d="M675.7 645.3C657.4 645.3 642.6 630.5 642.6 612.2C642.6 593.9 657.4 579.1 675.7 579.1C694 579.1 708.8 593.9 708.8 612.2C708.8 630.4 694 645.2 675.7 645.3ZM675.7 582C659.1 582 645.6 595.5 645.6 612.1C645.6 628.7 659.1 642.2 675.7 642.2C692.3 642.2 705.8 628.7 705.8 612.1C705.8 595.5 692.3 582 675.7 582Z" fill="#E4002B"/>
<path d="M382.4 104C364.1 104 349.3 89.2 349.3 70.9C349.3 52.6 364.1 37.8 382.4 37.8C400.7 37.8 415.5 52.6 415.5 70.9C415.5 89.1 400.7 103.9 382.4 104ZM382.4 40.7C365.8 40.7 352.3 54.2 352.3 70.8C352.3 87.4 365.8 100.9 382.4 100.9C399 100.9 412.5 87.4 412.5 70.8C412.5 54.2 399 40.7 382.4 40.7Z" fill="#E4002B"/>
<path opacity="0.05" d="M60.4 385.6C65.2601 385.6 69.2 381.66 69.2 376.8C69.2 371.94 65.2601 368 60.4 368C55.5399 368 51.6 371.94 51.6 376.8C51.6 381.66 55.5399 385.6 60.4 385.6Z" fill="#101820"/>
<path d="M817.7 730.3C822.56 730.3 826.5 726.36 826.5 721.5C826.5 716.64 822.56 712.7 817.7 712.7C812.84 712.7 808.9 716.64 808.9 721.5C808.9 726.36 812.84 730.3 817.7 730.3Z" fill="#E4002B"/>
<path d="M402.6 447.3C407.46 447.3 411.4 443.36 411.4 438.5C411.4 433.64 407.46 429.7 402.6 429.7C397.74 429.7 393.8 433.64 393.8 438.5C393.8 443.36 397.74 447.3 402.6 447.3Z" fill="#E4002B"/>
<path d="M839.1 390.6C841.861 390.6 844.1 388.361 844.1 385.6C844.1 382.839 841.861 380.6 839.1 380.6C836.339 380.6 834.1 382.839 834.1 385.6C834.1 388.361 836.339 390.6 839.1 390.6Z" fill="#E4002B"/>
<path d="M80.5 642.2C83.2614 642.2 85.5 639.961 85.5 637.2C85.5 634.439 83.2614 632.2 80.5 632.2C77.7386 632.2 75.5 634.439 75.5 637.2C75.5 639.961 77.7386 642.2 80.5 642.2Z" fill="#E4002B"/>
<path d="M5 743.3H2.8V741H2.3V743.3H0V743.8H2.3V746H2.8V743.8H5V743.3Z" fill="#101820"/>
<path d="M741 557.1H738.7V554.8H738.2V557.1H735.9V557.6H738.2V559.9H738.7V557.6H741V557.1Z" fill="#101820"/>
<path d="M930.9 519.3H928.7V517.1H928.2V519.3H925.9V519.8H928.2V522.1H928.7V519.8H930.9V519.3Z" fill="#101820"/>
<path d="M522.1 620H519.8V617.7H519.3V620H517V620.5H519.3V622.8H519.8V620.5H522.1V620Z" fill="#101820"/>
<path d="M875.6 632.6H873.3V630.3H872.8V632.6H870.5V633.1H872.8V635.3H873.3V633.1H875.6V632.6Z" fill="#101820"/>
<path d="M449.1 686.7H446.8V684.4H446.3V686.7H444.1V687.2H446.3V689.4H446.8V687.2H449.1V686.7Z" fill="#101820"/>
<path d="M610.1 689.2H607.9V686.9H607.4V689.2H605.1V689.7H607.4V691.9H607.9V689.7H610.1V689.2Z" fill="#101820"/>
<path d="M7.5 475.3H5.3V473H4.8V475.3H2.5V475.8H4.8V478.1H5.3V475.8H7.5V475.3Z" fill="#101820"/>
<path d="M491.9 455.2H489.6V452.9H489.1V455.2H486.8V455.7H489.1V458H489.6V455.7H491.9V455.2Z" fill="#101820"/>
<path opacity="0.05" d="M586.2 352.9C588.961 352.9 591.2 350.661 591.2 347.9C591.2 345.139 588.961 342.9 586.2 342.9C583.439 342.9 581.2 345.139 581.2 347.9C581.2 350.661 583.439 352.9 586.2 352.9Z" fill="#101820"/>
<path d="M149.8 42.7C154.66 42.7 158.6 38.7601 158.6 33.9C158.6 29.0399 154.66 25.1 149.8 25.1C144.94 25.1 141 29.0399 141 33.9C141 38.7601 144.94 42.7 149.8 42.7Z" fill="#E5E1E6"/>
<path d="M907.2 387.4C912.06 387.4 916 383.46 916 378.6C916 373.74 912.06 369.8 907.2 369.8C902.34 369.8 898.4 373.74 898.4 378.6C898.4 383.46 902.34 387.4 907.2 387.4Z" fill="#E4002B"/>
<path d="M492 104.4C496.86 104.4 500.8 100.46 500.8 95.6C500.8 90.7399 496.86 86.8 492 86.8C487.14 86.8 483.2 90.7399 483.2 95.6C483.2 100.46 487.14 104.4 492 104.4Z" fill="#E4002B"/>
<path opacity="0.05" d="M928.5 47.7C931.261 47.7 933.5 45.4614 933.5 42.7C933.5 39.9386 931.261 37.7 928.5 37.7C925.739 37.7 923.5 39.9386 923.5 42.7C923.5 45.4614 925.739 47.7 928.5 47.7Z" fill="#101820"/>
<path d="M170 299.3C172.761 299.3 175 297.061 175 294.3C175 291.539 172.761 289.3 170 289.3C167.239 289.3 165 291.539 165 294.3C165 297.061 167.239 299.3 170 299.3Z" fill="#E5E1E6"/>
<path d="M94.5 400.4H92.2V398.1H91.7V400.4H89.4V400.9H91.7V403.1H92.2V400.9H94.5V400.4Z" fill="#101820"/>
<path d="M830.4 214.2H828.1V211.9H827.6V214.2H825.4V214.7H827.6V217H828.1V214.7H830.4V214.2Z" fill="#101820"/>
<path d="M1020.4 176.4H1018.1V174.2H1017.6V176.4H1015.3V176.9H1017.6V179.2H1018.1V176.9H1020.4V176.4Z" fill="#101820"/>
<path d="M611.5 277.1H609.3V274.8H608.8V277.1H606.5V277.6H608.8V279.9H609.3V277.6H611.5V277.1Z" fill="#101820"/>
<path d="M965 289.7H962.8V287.4H962.3V289.7H960V290.2H962.3V292.4H962.8V290.2H965V289.7Z" fill="#101820"/>
<path d="M538.6 343.8H536.3V341.5H535.8V343.8H533.5V344.3H535.8V346.5H536.3V344.3H538.6V343.8Z" fill="#101820"/>
<path d="M699.6 346.3H697.3V344H696.8V346.3H694.5V346.8H696.8V349H697.3V346.8H699.6V346.3Z" fill="#101820"/>
<path d="M581.3 112.3H579.1V110H578.6V112.3H576.3V112.8H578.6V115.1H579.1V112.8H581.3V112.3Z" fill="#101820"/>
<path opacity="0.05" d="M675.7 10C678.461 10 680.7 7.76142 680.7 5C680.7 2.23858 678.461 0 675.7 0C672.939 0 670.7 2.23858 670.7 5C670.7 7.76142 672.939 10 675.7 10Z" fill="#101820"/>
<path d="M633.6 338.9H631.6C631.9 384 668.5 420.4 713.6 420.4V418.4C669.6 418.4 633.9 382.8 633.6 338.9Z" fill="#E4002B"/>
<path d="M596.6 338.9H594.6C594.9 404.4 648.1 457.4 713.6 457.4V455.4C649.2 455.3 596.9 403.3 596.6 338.9Z" fill="#E4002B"/>
<path d="M558.6 338.9H556.6C556.9 425.3 627.2 495.4 713.6 495.4V493.4C628.3 493.4 558.9 424.1 558.6 338.9Z" fill="#E4002B"/>
<path d="M141 675.4C122.7 675.4 107.9 660.6 107.9 642.3C107.9 624 122.7 609.2 141 609.2C159.3 609.2 174.1 624 174.1 642.3C174.1 660.5 159.3 675.4 141 675.4ZM141 612.1C124.4 612.1 110.9 625.6 110.9 642.2C110.9 658.8 124.4 672.3 141 672.3C157.6 672.3 171.1 658.8 171.1 642.2C171.1 625.6 157.6 612.1 141 612.1Z" fill="#E4002B"/>
<path opacity="0.05" d="M662.3 625.4C776.9 569.9 879.6 509.8 962.1 452.1C972.4 630.9 851.8 795.8 671.4 835.7C551 862.3 431.4 827.3 345.5 751.6C440.8 722.7 549.7 679.9 662.3 625.4Z" fill="#101820"/>
<path opacity="0.05" d="M660.1 615.2C344 768.3 57 828.6 18.9 750.1C-4.79997 701.2 73.7 609.9 212.6 511C212.8 513.3 213.1 515.6 213.3 517.9C213.7 521.2 214.1 524.6 214.6 527.9C109.4 602.7 50.4 667.3 66.2 699.9C81.5 731.5 163.9 726.6 281.7 693.2C284.5 692.4 287.3 691.6 290.2 690.8C261.3 650.8 239.9 604.4 228.5 553.2C227 546.4 225.7 539.6 224.6 532.8C223.7 527.2 222.9 521.6 222.2 516C200.2 328.9 323.1 151.8 511 110.3C639.8 81.8 767.7 123.9 854.4 210.9C858.4 214.9 862.3 219 866.1 223.2C903.8 264.6 932.6 315 948.6 372.1C951 370.4 953.4 368.7 955.8 367C1055.1 295.2 1110 233.6 1094.7 202C1078.8 169.2 990.8 175.7 865.8 212.5C864.7 211.4 863.6 210.3 862.5 209.2C859.5 206.2 856.5 203.3 853.5 200.4C1018.4 152.1 1139.7 146.9 1163.5 196C1201.5 274.5 976.1 462.2 660.1 615.2Z" fill="#101820"/>
</svg>
