<svg width="594" height="985" viewBox="0 0 594 985" fill="none" xmlns="http://www.w3.org/2000/svg">
<g opacity="0.05">
<path d="M296.358 830.373C266.179 828.361 236.062 822.326 207.895 808.242C199.847 804.218 189.788 808.242 187.776 816.29C185.764 818.302 185.764 822.326 185.764 824.337L193.811 928.896C193.811 932.92 197.835 936.944 201.859 936.944C203.871 936.944 203.871 936.944 205.883 934.932L236.062 912.801C240.085 910.789 244.109 910.789 248.133 914.813L290.383 981.145C292.395 985.169 298.431 985.169 302.455 983.157L304.467 981.145L346.717 914.813C348.729 910.789 354.765 910.789 358.789 912.801L388.967 934.932C392.991 936.944 397.015 936.944 401.039 932.92C401.039 930.908 403.051 930.908 403.051 928.896L411.098 824.337C411.098 816.29 405.063 808.242 395.003 808.242C392.991 808.242 390.979 808.242 386.955 810.254C356.655 822.326 326.537 830.373 296.358 830.373Z" fill="#101820"/>
<path d="M585.891 566.995L487.368 466.46C487.368 142.724 296.358 0 296.358 0C296.358 0 103.336 142.724 103.336 466.46L4.81311 566.995C0.789273 571.019 -1.22263 577.054 0.789288 581.078L39.0157 810.315C39.0157 818.362 47.0634 824.398 57.1229 824.398C59.1349 824.398 63.1587 822.386 65.1706 822.386L203.871 729.899C230.026 754.042 264.168 768.125 300.382 770.137C336.597 768.125 368.726 754.042 394.881 729.899L531.631 822.386C539.678 826.41 547.726 826.41 553.762 818.363C555.774 816.351 555.774 814.339 555.774 810.315L594 581.078C593.939 575.042 589.915 571.019 585.891 566.995ZM296.358 359.889C260.144 361.901 230.026 333.734 228.014 297.581C226.002 261.366 254.169 231.249 290.322 229.237C326.537 227.225 356.655 255.392 358.667 291.545C358.667 293.557 358.667 293.557 358.667 295.569C360.679 329.711 332.573 357.877 296.358 359.889Z" fill="#101820"/>
</g>
</svg>
