<?xml version="1.0" encoding="utf-8"?>
<!-- Generator: Adobe Illustrator 25.0.0, SVG Export Plug-In . SVG Version: 6.00 Build 0)  -->
<svg version="1.1" id="Camada_1" xmlns="http://www.w3.org/2000/svg" xmlns:xlink="http://www.w3.org/1999/xlink" x="0px" y="0px"
	 viewBox="0 0 370 170" style="enable-background:new 0 0 370 170;" xml:space="preserve">
<style type="text/css">
	.st0{clip-path:url(#SVGID_2_);fill:#101820;}
	.st1{clip-path:url(#SVGID_2_);fill:#E4002B;}
	.st2{fill-rule:evenodd;clip-rule:evenodd;fill:none;}
	.st3{fill:#101820;}
	.st4{clip-path:url(#SVGID_4_);fill:#101820;}
	.st5{clip-path:url(#SVGID_4_);fill:#E4002B;}
</style>
<g>
	<g>
		<g>
			<defs>
				<polygon id="SVGID_1_" points="72.1,121.4 157.2,121.4 157.2,22.4 72.1,22.4 72.1,121.4 				"/>
			</defs>
			<clipPath id="SVGID_2_">
				<use xlink:href="#SVGID_1_"  style="overflow:visible;"/>
			</clipPath>
			<path class="st0" d="M140,44.9l4.2-7.3c0.4-0.7,0.2-1.6-0.5-2l-5.9-3.4c-0.7-0.4-1.6-0.2-2,0.5l-4.2,7.3
				c-3.8-1.6-7.8-2.7-11.9-3.2v-4.4h2.9c0.8,0,1.5-0.6,1.5-1.5v-6.9c0-0.8-0.6-1.5-1.5-1.5l0,0h-15.7c-0.8,0-1.5,0.6-1.5,1.5l0,0
				v6.9c0,0.8,0.6,1.5,1.5,1.5h2.9v4.4c-4.1,0.5-8.1,1.5-11.9,3.2l-4.2-7.3c-0.4-0.7-1.3-0.9-2-0.5l0,0l-6,3.4
				c-0.7,0.4-0.9,1.3-0.5,2l4.2,7.3c-18.8,13.9-22.8,40.5-8.9,59.4s40.5,22.8,59.3,8.9c18.8-13.9,22.8-40.5,8.9-59.4
				C146.4,50.4,143.4,47.4,140,44.9L140,44.9L140,44.9L140,44.9z M114.8,118.5c-21.8,0-39.5-17.7-39.5-39.5
				c0-21.8,17.7-39.5,39.5-39.5s39.5,17.7,39.5,39.5l0,0C154.3,100.8,136.6,118.5,114.8,118.5L114.8,118.5z"/>
			<path class="st1" d="M127.4,44.7L121,43C123.2,43.4,125.3,44,127.4,44.7L127.4,44.7z"/>
			<path class="st1" d="M133,47.4L114.8,79V42.5c2.1,0,4.2,0.2,6.2,0.5l6.4,1.7C129.3,45.4,131.2,46.3,133,47.4L133,47.4z"/>
		</g>
		<polygon class="st2" points="72.1,22.4 157.2,22.4 157.2,121.4 72.1,121.4 72.1,22.4 		"/>
		<g>
			<path class="st3" d="M79.5,139h5.6v1.4H81l-0.2,2.3c0.3-0.1,0.6-0.1,1.1-0.1c2.4,0,3.6,1,3.6,2.9c0,2-1.2,3-3.7,3
				c-0.9,0-1.8-0.1-2.6-0.4v-1.5c0.9,0.3,1.8,0.5,2.7,0.5c1.3,0,1.9-0.6,1.9-1.7c0-1-0.6-1.5-1.8-1.5c-1,0-1.9,0.1-2.8,0.3L79.5,139
				z"/>
			<path class="st3" d="M89.8,148.4v-6.9h1.4l0.2,1c0.6-0.7,1.4-1,2.2-1s1.5,0.3,1.8,1c0.7-0.6,1.5-1,2.2-1c1.6,0,2.4,0.9,2.4,2.6
				v4.3h-1.8v-4.4c0-0.8-0.3-1.2-1-1.2c-0.5,0-1,0.2-1.5,0.7v4.8H94v-4.3c0-0.8-0.3-1.2-1-1.2c-0.5,0-1,0.2-1.4,0.7v4.8H89.8z"/>
			<path class="st3" d="M103.4,139v1.4h-1.8V139H103.4z M103.4,141.5v6.9h-1.8v-6.9H103.4z"/>
			<path class="st3" d="M105,148.4v-6.9h1.4l0.2,1c0.7-0.7,1.4-1,2.3-1c1.6,0,2.5,0.9,2.5,2.6v4.4h-1.8v-4.4c0-0.8-0.4-1.1-1.1-1.1
				c-0.6,0-1.1,0.2-1.7,0.7v4.8H105z"/>
		</g>
		<g>
			<path class="st3" d="M117.3,139v12h-1.2v-12H117.3z"/>
		</g>
		<g>
			<path class="st3" d="M125.2,144.3v1.4h-3.3v-1.4H125.2z"/>
		</g>
		<g>
			<path class="st3" d="M127.5,148.4v-8h-1v-0.7l2.7-0.9v9.6H127.5z"/>
			<path class="st3" d="M131,143.7c0-3.2,1.4-4.8,4.2-4.8c2.8,0,4.1,1.6,4.1,4.8c0,3.2-1.4,4.8-4.1,4.8
				C132.4,148.5,131,146.9,131,143.7z M135.2,147c1.5,0,2.3-1.1,2.3-3.3c0-2.2-0.8-3.2-2.3-3.2c-1.6,0-2.4,1.1-2.4,3.2
				C132.8,145.9,133.6,147,135.2,147z"/>
			<path class="st3" d="M140.6,140.9c0-1.3,0.7-2,2.2-2c1.4,0,2.1,0.7,2.1,2c0,1.4-0.7,2.1-2.1,2.1
				C141.3,143,140.6,142.3,140.6,140.9z M142.3,148.4h-1.8l6.7-9.4h1.8L142.3,148.4z M142.8,141.9c0.6,0,0.9-0.3,0.9-1
				c0-0.5-0.3-0.8-0.9-0.8c-0.6,0-0.9,0.3-0.9,0.8C141.8,141.5,142.1,141.9,142.8,141.9z M144.9,146.5c0-1.4,0.7-2,2.2-2
				c1.4,0,2.1,0.7,2.1,2c0,1.4-0.7,2-2.1,2C145.6,148.5,144.9,147.8,144.9,146.5z M147,147.3c0.6,0,0.9-0.3,0.9-0.9
				c0-0.6-0.3-0.9-0.9-0.9c-0.6,0-0.9,0.3-0.9,0.9C146.1,147,146.4,147.3,147,147.3z"/>
		</g>
	</g>
	<g>
		<g>
			<defs>
				<polygon id="SVGID_3_" points="211,121.4 296.1,121.4 296.1,22.4 211,22.4 211,121.4 				"/>
			</defs>
			<clipPath id="SVGID_4_">
				<use xlink:href="#SVGID_3_"  style="overflow:visible;"/>
			</clipPath>
			<path class="st4" d="M278.9,44.9l4.2-7.3c0.4-0.7,0.2-1.6-0.5-2l-5.9-3.4c-0.7-0.4-1.6-0.2-2,0.5l-4.2,7.3
				c-3.8-1.6-7.8-2.7-11.9-3.2v-4.4h2.9c0.8,0,1.5-0.6,1.5-1.5v-6.9c0-0.8-0.6-1.5-1.5-1.5l0,0h-15.7c-0.8,0-1.5,0.6-1.5,1.5l0,0
				v6.9c0,0.8,0.6,1.5,1.5,1.5h2.9v4.4c-4.1,0.5-8.1,1.5-11.9,3.2l-4.2-7.3c-0.4-0.7-1.3-0.9-2-0.5l0,0l-6,3.4
				c-0.7,0.4-0.9,1.3-0.5,2l4.2,7.3c-18.8,13.9-22.8,40.5-8.9,59.4c13.9,18.8,40.5,22.8,59.3,8.9c18.8-13.9,22.8-40.5,8.9-59.4
				C285.3,50.4,282.3,47.4,278.9,44.9L278.9,44.9L278.9,44.9L278.9,44.9z M253.7,118.5c-21.8,0-39.5-17.7-39.5-39.5
				c0-21.8,17.7-39.5,39.5-39.5s39.5,17.7,39.5,39.5l0,0C293.2,100.8,275.5,118.5,253.7,118.5L253.7,118.5z"/>
			<path class="st5" d="M266.3,44.7l-6.4-1.7C262.1,43.4,264.2,44,266.3,44.7L266.3,44.7z"/>
			<path class="st5" d="M271.9,47.4L253.7,79V42.5c2.1,0,4.2,0.2,6.2,0.5l6.4,1.7C268.2,45.4,270.1,46.3,271.9,47.4L271.9,47.4z"/>
			<path class="st5" d="M281.6,55.5l-4.7-4.7C278.6,52.2,280.2,53.8,281.6,55.5L281.6,55.5z"/>
			<path class="st5" d="M285.1,60.5L253.7,79l18-31.7c1.8,1,3.6,2.2,5.1,3.5l4.7,4.7C282.9,57.1,284.1,58.8,285.1,60.5L285.1,60.5z"
				/>
		</g>
		<polygon class="st2" points="211,22.4 296.1,22.4 296.1,121.4 211,121.4 211,22.4 		"/>
		<g>
			<path class="st3" d="M209.3,148.4v-8h-1v-0.7l2.7-0.9v9.6H209.3z"/>
			<path class="st3" d="M212.8,143.7c0-3.2,1.4-4.8,4.2-4.8c2.8,0,4.1,1.6,4.1,4.8c0,3.2-1.4,4.8-4.1,4.8
				C214.2,148.5,212.8,146.9,212.8,143.7z M217,147c1.5,0,2.3-1.1,2.3-3.3c0-2.2-0.8-3.2-2.3-3.2c-1.6,0-2.4,1.1-2.4,3.2
				C214.6,145.9,215.4,147,217,147z"/>
			<path class="st3" d="M225.5,148.4v-6.9h1.4l0.2,1c0.6-0.7,1.4-1,2.2-1c0.9,0,1.5,0.3,1.8,1c0.7-0.6,1.5-1,2.2-1
				c1.6,0,2.4,0.9,2.4,2.6v4.3h-1.8v-4.4c0-0.8-0.3-1.2-1-1.2c-0.5,0-1,0.2-1.5,0.7v4.8h-1.8v-4.3c0-0.8-0.3-1.2-1-1.2
				c-0.5,0-1,0.2-1.4,0.7v4.8H225.5z"/>
			<path class="st3" d="M239,139v1.4h-1.8V139H239z M239,141.5v6.9h-1.8v-6.9H239z"/>
			<path class="st3" d="M240.7,148.4v-6.9h1.4l0.2,1c0.7-0.7,1.4-1,2.3-1c1.6,0,2.5,0.9,2.5,2.6v4.4h-1.8v-4.4
				c0-0.8-0.4-1.1-1.1-1.1c-0.6,0-1.1,0.2-1.7,0.7v4.8H240.7z"/>
		</g>
		<g>
			<path class="st3" d="M252.9,139v12h-1.2v-12H252.9z"/>
		</g>
		<g>
			<path class="st3" d="M260.8,144.3v1.4h-3.3v-1.4H260.8z"/>
		</g>
		<g>
			<path class="st3" d="M268.4,148.4h-1.8v-2h-4.8v-1.3l3.9-6.1h1.9l-3.7,6h2.8v-3.2h1.8v3.2l1,0.9v0.5h-1V148.4z"/>
			<path class="st3" d="M270.1,143.7c0-3.2,1.4-4.8,4.2-4.8c2.8,0,4.1,1.6,4.1,4.8c0,3.2-1.4,4.8-4.1,4.8
				C271.5,148.5,270.1,146.9,270.1,143.7z M274.3,147c1.5,0,2.3-1.1,2.3-3.3c0-2.2-0.8-3.2-2.3-3.2c-1.6,0-2.4,1.1-2.4,3.2
				C271.9,145.9,272.7,147,274.3,147z"/>
			<path class="st3" d="M279.7,143.7c0-3.2,1.4-4.8,4.2-4.8c2.8,0,4.1,1.6,4.1,4.8c0,3.2-1.4,4.8-4.1,4.8
				C281.1,148.5,279.7,146.9,279.7,143.7z M283.9,147c1.5,0,2.3-1.1,2.3-3.3c0-2.2-0.8-3.2-2.3-3.2c-1.6,0-2.4,1.1-2.4,3.2
				C281.5,145.9,282.3,147,283.9,147z"/>
			<path class="st3" d="M289.3,140.9c0-1.3,0.7-2,2.2-2c1.4,0,2.1,0.7,2.1,2c0,1.4-0.7,2.1-2.1,2.1C290,143,289.3,142.3,289.3,140.9
				z M291,148.4h-1.8l6.7-9.4h1.8L291,148.4z M291.4,141.9c0.6,0,0.9-0.3,0.9-1c0-0.5-0.3-0.8-0.9-0.8c-0.6,0-0.9,0.3-0.9,0.8
				C290.5,141.5,290.8,141.9,291.4,141.9z M293.6,146.5c0-1.4,0.7-2,2.2-2c1.4,0,2.1,0.7,2.1,2c0,1.4-0.7,2-2.1,2
				C294.3,148.5,293.6,147.8,293.6,146.5z M295.7,147.3c0.6,0,0.9-0.3,0.9-0.9c0-0.6-0.3-0.9-0.9-0.9c-0.6,0-0.9,0.3-0.9,0.9
				C294.8,147,295.1,147.3,295.7,147.3z"/>
		</g>
	</g>
</g>
</svg>
