<?xml version="1.0" encoding="utf-8"?>
<!-- Generator: Adobe Illustrator 25.0.0, SVG Export Plug-In . SVG Version: 6.00 Build 0)  -->
<svg version="1.1" id="Camada_1" xmlns="http://www.w3.org/2000/svg" xmlns:xlink="http://www.w3.org/1999/xlink" x="0px" y="0px"
	 viewBox="0 0 800 850" style="enable-background:new 0 0 800 850;" xml:space="preserve">
<style type="text/css">
	.st0{fill:#C90025;}
</style>
<g>
	<g>
		<g>
			<path class="st0" d="M49.5,40.5v9h-9v-9H49.5 M50,40H40v10h10V40L50,40z"/>
		</g>
		<g>
			<path class="st0" d="M49.5,90.5v9h-9v-9H49.5 M50,90H40v10h10V90L50,90z"/>
		</g>
		<g>
			<path class="st0" d="M49.5,140.5v9h-9v-9H49.5 M50,140H40v10h10V140L50,140z"/>
		</g>
		<g>
			<path class="st0" d="M49.5,190.5v9h-9v-9H49.5 M50,190H40v10h10V190L50,190z"/>
		</g>
		<g>
			<path class="st0" d="M49.5,240.5v9h-9v-9H49.5 M50,240H40v10h10V240L50,240z"/>
		</g>
		<g>
			<path class="st0" d="M49.5,290.5v9h-9v-9H49.5 M50,290H40v10h10V290L50,290z"/>
		</g>
		<g>
			<path class="st0" d="M49.5,340.5v9h-9v-9H49.5 M50,340H40v10h10V340L50,340z"/>
		</g>
		<g>
			<path class="st0" d="M49.5,390.5v9h-9v-9H49.5 M50,390H40v10h10V390L50,390z"/>
		</g>
		<g>
			<path class="st0" d="M49.5,440.5v9h-9v-9H49.5 M50,440H40v10h10V440L50,440z"/>
		</g>
		<g>
			<path class="st0" d="M49.5,490.5v9h-9v-9H49.5 M50,490H40v10h10V490L50,490z"/>
		</g>
		<g>
			<path class="st0" d="M49.5,540.5v9h-9v-9H49.5 M50,540H40v10h10V540L50,540z"/>
		</g>
		<g>
			<rect x="40.2" y="590.2" class="st0" width="9.5" height="9.5"/>
			<path class="st0" d="M49.5,590.5v9h-9v-9H49.5 M50,590H40v10h10V590L50,590z"/>
		</g>
		<g>
			<path class="st0" d="M49.5,640.5v9h-9v-9H49.5 M50,640H40v10h10V640L50,640z"/>
		</g>
		<g>
			<path class="st0" d="M49.5,690.5v9h-9v-9H49.5 M50,690H40v10h10V690L50,690z"/>
		</g>
		<g>
			<path class="st0" d="M49.5,740.5v9h-9v-9H49.5 M50,740H40v10h10V740L50,740z"/>
		</g>
		<g>
			<path class="st0" d="M49.5,790.5v9h-9v-9H49.5 M50,790H40v10h10V790L50,790z"/>
		</g>
		<g>
			<path class="st0" d="M49.5,840.5v9h-9v-9H49.5 M50,840H40v10h10V840L50,840z"/>
		</g>
	</g>
	<g>
		<g>
			<rect x="90.2" y="40.2" class="st0" width="9.5" height="9.5"/>
			<path class="st0" d="M99.5,40.5v9h-9v-9H99.5 M100,40H90v10h10V40L100,40z"/>
		</g>
		<g>
			<path class="st0" d="M99.5,90.5v9h-9v-9H99.5 M100,90H90v10h10V90L100,90z"/>
		</g>
		<g>
			<path class="st0" d="M99.5,140.5v9h-9v-9H99.5 M100,140H90v10h10V140L100,140z"/>
		</g>
		<g>
			<path class="st0" d="M99.5,190.5v9h-9v-9H99.5 M100,190H90v10h10V190L100,190z"/>
		</g>
		<g>
			<path class="st0" d="M99.5,240.5v9h-9v-9H99.5 M100,240H90v10h10V240L100,240z"/>
		</g>
		<g>
			<path class="st0" d="M99.5,290.5v9h-9v-9H99.5 M100,290H90v10h10V290L100,290z"/>
		</g>
		<g>
			<path class="st0" d="M99.5,340.5v9h-9v-9H99.5 M100,340H90v10h10V340L100,340z"/>
		</g>
		<g>
			<path class="st0" d="M99.5,390.5v9h-9v-9H99.5 M100,390H90v10h10V390L100,390z"/>
		</g>
		<g>
			<path class="st0" d="M99.5,440.5v9h-9v-9H99.5 M100,440H90v10h10V440L100,440z"/>
		</g>
		<g>
			<rect x="90.2" y="490.2" class="st0" width="9.5" height="9.5"/>
			<path class="st0" d="M99.5,490.5v9h-9v-9H99.5 M100,490H90v10h10V490L100,490z"/>
		</g>
		<g>
			<path class="st0" d="M99.5,540.5v9h-9v-9H99.5 M100,540H90v10h10V540L100,540z"/>
		</g>
		<g>
			<path class="st0" d="M99.5,590.5v9h-9v-9H99.5 M100,590H90v10h10V590L100,590z"/>
		</g>
		<g>
			<path class="st0" d="M99.5,640.5v9h-9v-9H99.5 M100,640H90v10h10V640L100,640z"/>
		</g>
		<g>
			<path class="st0" d="M99.5,690.5v9h-9v-9H99.5 M100,690H90v10h10V690L100,690z"/>
		</g>
		<g>
			<path class="st0" d="M99.5,740.5v9h-9v-9H99.5 M100,740H90v10h10V740L100,740z"/>
		</g>
		<g>
			<rect x="90.2" y="790.2" class="st0" width="9.5" height="9.5"/>
			<path class="st0" d="M99.5,790.5v9h-9v-9H99.5 M100,790H90v10h10V790L100,790z"/>
		</g>
		<g>
			<path class="st0" d="M99.5,840.5v9h-9v-9H99.5 M100,840H90v10h10V840L100,840z"/>
		</g>
	</g>
	<g>
		<g>
			<path class="st0" d="M149.5,40.5v9h-9v-9H149.5 M150,40h-10v10h10V40L150,40z"/>
		</g>
		<g>
			<path class="st0" d="M149.5,90.5v9h-9v-9H149.5 M150,90h-10v10h10V90L150,90z"/>
		</g>
		<g>
			<path class="st0" d="M149.5,140.5v9h-9v-9H149.5 M150,140h-10v10h10V140L150,140z"/>
		</g>
		<g>
			<path class="st0" d="M149.5,190.5v9h-9v-9H149.5 M150,190h-10v10h10V190L150,190z"/>
		</g>
		<g>
			<rect x="140.2" y="240.2" class="st0" width="9.5" height="9.5"/>
			<path class="st0" d="M149.5,240.5v9h-9v-9H149.5 M150,240h-10v10h10V240L150,240z"/>
		</g>
		<g>
			<path class="st0" d="M149.5,290.5v9h-9v-9H149.5 M150,290h-10v10h10V290L150,290z"/>
		</g>
		<g>
			<path class="st0" d="M149.5,340.5v9h-9v-9H149.5 M150,340h-10v10h10V340L150,340z"/>
		</g>
		<g>
			<path class="st0" d="M149.5,390.5v9h-9v-9H149.5 M150,390h-10v10h10V390L150,390z"/>
		</g>
		<g>
			<path class="st0" d="M149.5,440.5v9h-9v-9H149.5 M150,440h-10v10h10V440L150,440z"/>
		</g>
		<g>
			<path class="st0" d="M149.5,490.5v9h-9v-9H149.5 M150,490h-10v10h10V490L150,490z"/>
		</g>
		<g>
			<path class="st0" d="M149.5,540.5v9h-9v-9H149.5 M150,540h-10v10h10V540L150,540z"/>
		</g>
		<g>
			<path class="st0" d="M149.5,590.5v9h-9v-9H149.5 M150,590h-10v10h10V590L150,590z"/>
		</g>
		<g>
			<path class="st0" d="M149.5,640.5v9h-9v-9H149.5 M150,640h-10v10h10V640L150,640z"/>
		</g>
		<g>
			<path class="st0" d="M149.5,690.5v9h-9v-9H149.5 M150,690h-10v10h10V690L150,690z"/>
		</g>
		<g>
			<path class="st0" d="M149.5,740.5v9h-9v-9H149.5 M150,740h-10v10h10V740L150,740z"/>
		</g>
		<g>
			<path class="st0" d="M149.5,790.5v9h-9v-9H149.5 M150,790h-10v10h10V790L150,790z"/>
		</g>
		<g>
			<path class="st0" d="M149.5,840.5v9h-9v-9H149.5 M150,840h-10v10h10V840L150,840z"/>
		</g>
	</g>
	<g>
		<g>
			<path class="st0" d="M199.5,40.5v9h-9v-9H199.5 M200,40h-10v10h10V40L200,40z"/>
		</g>
		<g>
			<path class="st0" d="M199.5,90.5v9h-9v-9H199.5 M200,90h-10v10h10V90L200,90z"/>
		</g>
		<g>
			<path class="st0" d="M199.5,140.5v9h-9v-9H199.5 M200,140h-10v10h10V140L200,140z"/>
		</g>
		<g>
			<path class="st0" d="M199.5,190.5v9h-9v-9H199.5 M200,190h-10v10h10V190L200,190z"/>
		</g>
		<g>
			<path class="st0" d="M199.5,240.5v9h-9v-9H199.5 M200,240h-10v10h10V240L200,240z"/>
		</g>
		<g>
			<path class="st0" d="M199.5,290.5v9h-9v-9H199.5 M200,290h-10v10h10V290L200,290z"/>
		</g>
		<g>
			<path class="st0" d="M199.5,340.5v9h-9v-9H199.5 M200,340h-10v10h10V340L200,340z"/>
		</g>
		<g>
			<path class="st0" d="M199.5,390.5v9h-9v-9H199.5 M200,390h-10v10h10V390L200,390z"/>
		</g>
		<g>
			<path class="st0" d="M199.5,440.5v9h-9v-9H199.5 M200,440h-10v10h10V440L200,440z"/>
		</g>
		<g>
			<path class="st0" d="M199.5,490.5v9h-9v-9H199.5 M200,490h-10v10h10V490L200,490z"/>
		</g>
		<g>
			<path class="st0" d="M199.5,540.5v9h-9v-9H199.5 M200,540h-10v10h10V540L200,540z"/>
		</g>
		<g>
			<path class="st0" d="M199.5,590.5v9h-9v-9H199.5 M200,590h-10v10h10V590L200,590z"/>
		</g>
		<g>
			<path class="st0" d="M199.5,640.5v9h-9v-9H199.5 M200,640h-10v10h10V640L200,640z"/>
		</g>
		<g>
			<path class="st0" d="M199.5,690.5v9h-9v-9H199.5 M200,690h-10v10h10V690L200,690z"/>
		</g>
		<g>
			<rect x="190.2" y="740.2" class="st0" width="9.5" height="9.5"/>
			<path class="st0" d="M199.5,740.5v9h-9v-9H199.5 M200,740h-10v10h10V740L200,740z"/>
		</g>
		<g>
			<path class="st0" d="M199.5,790.5v9h-9v-9H199.5 M200,790h-10v10h10V790L200,790z"/>
		</g>
		<g>
			<path class="st0" d="M199.5,840.5v9h-9v-9H199.5 M200,840h-10v10h10V840L200,840z"/>
		</g>
	</g>
	<g>
		<g>
			<path class="st0" d="M249.5,40.5v9h-9v-9H249.5 M250,40h-10v10h10V40L250,40z"/>
		</g>
		<g>
			<path class="st0" d="M249.5,90.5v9h-9v-9H249.5 M250,90h-10v10h10V90L250,90z"/>
		</g>
		<g>
			<rect x="240.2" y="140.2" class="st0" width="9.5" height="9.5"/>
			<path class="st0" d="M249.5,140.5v9h-9v-9H249.5 M250,140h-10v10h10V140L250,140z"/>
		</g>
		<g>
			<path class="st0" d="M249.5,190.5v9h-9v-9H249.5 M250,190h-10v10h10V190L250,190z"/>
		</g>
		<g>
			<path class="st0" d="M249.5,240.5v9h-9v-9H249.5 M250,240h-10v10h10V240L250,240z"/>
		</g>
		<g>
			<path class="st0" d="M249.5,290.5v9h-9v-9H249.5 M250,290h-10v10h10V290L250,290z"/>
		</g>
		<g>
			<path class="st0" d="M249.5,340.5v9h-9v-9H249.5 M250,340h-10v10h10V340L250,340z"/>
		</g>
		<g>
			<path class="st0" d="M249.5,390.5v9h-9v-9H249.5 M250,390h-10v10h10V390L250,390z"/>
		</g>
		<g>
			<path class="st0" d="M249.5,440.5v9h-9v-9H249.5 M250,440h-10v10h10V440L250,440z"/>
		</g>
		<g>
			<path class="st0" d="M249.5,490.5v9h-9v-9H249.5 M250,490h-10v10h10V490L250,490z"/>
		</g>
		<g>
			<path class="st0" d="M249.5,540.5v9h-9v-9H249.5 M250,540h-10v10h10V540L250,540z"/>
		</g>
		<g>
			<path class="st0" d="M249.5,590.5v9h-9v-9H249.5 M250,590h-10v10h10V590L250,590z"/>
		</g>
		<g>
			<path class="st0" d="M249.5,640.5v9h-9v-9H249.5 M250,640h-10v10h10V640L250,640z"/>
		</g>
		<g>
			<path class="st0" d="M249.5,690.5v9h-9v-9H249.5 M250,690h-10v10h10V690L250,690z"/>
		</g>
		<g>
			<path class="st0" d="M249.5,740.5v9h-9v-9H249.5 M250,740h-10v10h10V740L250,740z"/>
		</g>
		<g>
			<path class="st0" d="M249.5,790.5v9h-9v-9H249.5 M250,790h-10v10h10V790L250,790z"/>
		</g>
		<g>
			<path class="st0" d="M249.5,840.5v9h-9v-9H249.5 M250,840h-10v10h10V840L250,840z"/>
		</g>
	</g>
	<g>
		<g>
			<path class="st0" d="M299.5,40.5v9h-9v-9H299.5 M300,40h-10v10h10V40L300,40z"/>
		</g>
		<g>
			<path class="st0" d="M299.5,90.5v9h-9v-9H299.5 M300,90h-10v10h10V90L300,90z"/>
		</g>
		<g>
			<path class="st0" d="M299.5,140.5v9h-9v-9H299.5 M300,140h-10v10h10V140L300,140z"/>
		</g>
		<g>
			<path class="st0" d="M299.5,190.5v9h-9v-9H299.5 M300,190h-10v10h10V190L300,190z"/>
		</g>
		<g>
			<path class="st0" d="M299.5,240.5v9h-9v-9H299.5 M300,240h-10v10h10V240L300,240z"/>
		</g>
		<g>
			<path class="st0" d="M299.5,290.5v9h-9v-9H299.5 M300,290h-10v10h10V290L300,290z"/>
		</g>
		<g>
			<path class="st0" d="M299.5,340.5v9h-9v-9H299.5 M300,340h-10v10h10V340L300,340z"/>
		</g>
		<g>
			<rect x="290.2" y="390.2" class="st0" width="9.5" height="9.5"/>
			<path class="st0" d="M299.5,390.5v9h-9v-9H299.5 M300,390h-10v10h10V390L300,390z"/>
		</g>
		<g>
			<path class="st0" d="M299.5,440.5v9h-9v-9H299.5 M300,440h-10v10h10V440L300,440z"/>
		</g>
		<g>
			<path class="st0" d="M299.5,490.5v9h-9v-9H299.5 M300,490h-10v10h10V490L300,490z"/>
		</g>
		<g>
			<path class="st0" d="M299.5,540.5v9h-9v-9H299.5 M300,540h-10v10h10V540L300,540z"/>
		</g>
		<g>
			<path class="st0" d="M299.5,590.5v9h-9v-9H299.5 M300,590h-10v10h10V590L300,590z"/>
		</g>
		<g>
			<path class="st0" d="M299.5,640.5v9h-9v-9H299.5 M300,640h-10v10h10V640L300,640z"/>
		</g>
		<g>
			<path class="st0" d="M299.5,690.5v9h-9v-9H299.5 M300,690h-10v10h10V690L300,690z"/>
		</g>
		<g>
			<path class="st0" d="M299.5,740.5v9h-9v-9H299.5 M300,740h-10v10h10V740L300,740z"/>
		</g>
		<g>
			<path class="st0" d="M299.5,790.5v9h-9v-9H299.5 M300,790h-10v10h10V790L300,790z"/>
		</g>
		<g>
			<path class="st0" d="M299.5,840.5v9h-9v-9H299.5 M300,840h-10v10h10V840L300,840z"/>
		</g>
	</g>
	<g>
		<g>
			<path class="st0" d="M349.5,40.5v9h-9v-9H349.5 M350,40h-10v10h10V40L350,40z"/>
		</g>
		<g>
			<path class="st0" d="M349.5,90.5v9h-9v-9H349.5 M350,90h-10v10h10V90L350,90z"/>
		</g>
		<g>
			<path class="st0" d="M349.5,140.5v9h-9v-9H349.5 M350,140h-10v10h10V140L350,140z"/>
		</g>
		<g>
			<path class="st0" d="M349.5,190.5v9h-9v-9H349.5 M350,190h-10v10h10V190L350,190z"/>
		</g>
		<g>
			<path class="st0" d="M349.5,240.5v9h-9v-9H349.5 M350,240h-10v10h10V240L350,240z"/>
		</g>
		<g>
			<path class="st0" d="M349.5,290.5v9h-9v-9H349.5 M350,290h-10v10h10V290L350,290z"/>
		</g>
		<g>
			<path class="st0" d="M349.5,340.5v9h-9v-9H349.5 M350,340h-10v10h10V340L350,340z"/>
		</g>
		<g>
			<path class="st0" d="M349.5,390.5v9h-9v-9H349.5 M350,390h-10v10h10V390L350,390z"/>
		</g>
		<g>
			<path class="st0" d="M349.5,440.5v9h-9v-9H349.5 M350,440h-10v10h10V440L350,440z"/>
		</g>
		<g>
			<path class="st0" d="M349.5,490.5v9h-9v-9H349.5 M350,490h-10v10h10V490L350,490z"/>
		</g>
		<g>
			<path class="st0" d="M349.5,540.5v9h-9v-9H349.5 M350,540h-10v10h10V540L350,540z"/>
		</g>
		<g>
			<path class="st0" d="M349.5,590.5v9h-9v-9H349.5 M350,590h-10v10h10V590L350,590z"/>
		</g>
		<g>
			<rect x="340.2" y="640.2" class="st0" width="9.5" height="9.5"/>
			<path class="st0" d="M349.5,640.5v9h-9v-9H349.5 M350,640h-10v10h10V640L350,640z"/>
		</g>
		<g>
			<path class="st0" d="M349.5,690.5v9h-9v-9H349.5 M350,690h-10v10h10V690L350,690z"/>
		</g>
		<g>
			<path class="st0" d="M349.5,740.5v9h-9v-9H349.5 M350,740h-10v10h10V740L350,740z"/>
		</g>
		<g>
			<path class="st0" d="M349.5,790.5v9h-9v-9H349.5 M350,790h-10v10h10V790L350,790z"/>
		</g>
		<g>
			<path class="st0" d="M349.5,840.5v9h-9v-9H349.5 M350,840h-10v10h10V840L350,840z"/>
		</g>
	</g>
	<g>
		<g>
			<path class="st0" d="M399.5,40.5v9h-9v-9H399.5 M400,40h-10v10h10V40L400,40z"/>
		</g>
		<g>
			<path class="st0" d="M399.5,90.5v9h-9v-9H399.5 M400,90h-10v10h10V90L400,90z"/>
		</g>
		<g>
			<path class="st0" d="M399.5,140.5v9h-9v-9H399.5 M400,140h-10v10h10V140L400,140z"/>
		</g>
		<g>
			<path class="st0" d="M399.5,190.5v9h-9v-9H399.5 M400,190h-10v10h10V190L400,190z"/>
		</g>
		<g>
			<path class="st0" d="M399.5,240.5v9h-9v-9H399.5 M400,240h-10v10h10V240L400,240z"/>
		</g>
		<g>
			<path class="st0" d="M399.5,290.5v9h-9v-9H399.5 M400,290h-10v10h10V290L400,290z"/>
		</g>
		<g>
			<path class="st0" d="M399.5,340.5v9h-9v-9H399.5 M400,340h-10v10h10V340L400,340z"/>
		</g>
		<g>
			<path class="st0" d="M399.5,390.5v9h-9v-9H399.5 M400,390h-10v10h10V390L400,390z"/>
		</g>
		<g>
			<rect x="390.2" y="440.2" class="st0" width="9.5" height="9.5"/>
			<path class="st0" d="M399.5,440.5v9h-9v-9H399.5 M400,440h-10v10h10V440L400,440z"/>
		</g>
		<g>
			<path class="st0" d="M399.5,490.5v9h-9v-9H399.5 M400,490h-10v10h10V490L400,490z"/>
		</g>
		<g>
			<path class="st0" d="M399.5,540.5v9h-9v-9H399.5 M400,540h-10v10h10V540L400,540z"/>
		</g>
		<g>
			<path class="st0" d="M399.5,590.5v9h-9v-9H399.5 M400,590h-10v10h10V590L400,590z"/>
		</g>
		<g>
			<path class="st0" d="M399.5,640.5v9h-9v-9H399.5 M400,640h-10v10h10V640L400,640z"/>
		</g>
		<g>
			<path class="st0" d="M399.5,690.5v9h-9v-9H399.5 M400,690h-10v10h10V690L400,690z"/>
		</g>
		<g>
			<path class="st0" d="M399.5,740.5v9h-9v-9H399.5 M400,740h-10v10h10V740L400,740z"/>
		</g>
		<g>
			<path class="st0" d="M399.5,790.5v9h-9v-9H399.5 M400,790h-10v10h10V790L400,790z"/>
		</g>
		<g>
			<path class="st0" d="M399.5,840.5v9h-9v-9H399.5 M400,840h-10v10h10V840L400,840z"/>
		</g>
	</g>
	<g>
		<g>
			<path class="st0" d="M449.5,40.5v9h-9v-9H449.5 M450,40h-10v10h10V40L450,40z"/>
		</g>
		<g>
			<path class="st0" d="M449.5,90.5v9h-9v-9H449.5 M450,90h-10v10h10V90L450,90z"/>
		</g>
		<g>
			<path class="st0" d="M449.5,140.5v9h-9v-9H449.5 M450,140h-10v10h10V140L450,140z"/>
		</g>
		<g>
			<path class="st0" d="M449.5,190.5v9h-9v-9H449.5 M450,190h-10v10h10V190L450,190z"/>
		</g>
		<g>
			<path class="st0" d="M449.5,240.5v9h-9v-9H449.5 M450,240h-10v10h10V240L450,240z"/>
		</g>
		<g>
			<path class="st0" d="M449.5,290.5v9h-9v-9H449.5 M450,290h-10v10h10V290L450,290z"/>
		</g>
		<g>
			<rect x="440.2" y="340.2" class="st0" width="9.5" height="9.5"/>
			<path class="st0" d="M449.5,340.5v9h-9v-9H449.5 M450,340h-10v10h10V340L450,340z"/>
		</g>
		<g>
			<path class="st0" d="M449.5,390.5v9h-9v-9H449.5 M450,390h-10v10h10V390L450,390z"/>
		</g>
		<g>
			<path class="st0" d="M449.5,440.5v9h-9v-9H449.5 M450,440h-10v10h10V440L450,440z"/>
		</g>
		<g>
			<path class="st0" d="M449.5,490.5v9h-9v-9H449.5 M450,490h-10v10h10V490L450,490z"/>
		</g>
		<g>
			<path class="st0" d="M449.5,540.5v9h-9v-9H449.5 M450,540h-10v10h10V540L450,540z"/>
		</g>
		<g>
			<path class="st0" d="M449.5,590.5v9h-9v-9H449.5 M450,590h-10v10h10V590L450,590z"/>
		</g>
		<g>
			<path class="st0" d="M449.5,640.5v9h-9v-9H449.5 M450,640h-10v10h10V640L450,640z"/>
		</g>
		<g>
			<path class="st0" d="M449.5,690.5v9h-9v-9H449.5 M450,690h-10v10h10V690L450,690z"/>
		</g>
		<g>
			<path class="st0" d="M449.5,740.5v9h-9v-9H449.5 M450,740h-10v10h10V740L450,740z"/>
		</g>
		<g>
			<path class="st0" d="M449.5,790.5v9h-9v-9H449.5 M450,790h-10v10h10V790L450,790z"/>
		</g>
		<g>
			<path class="st0" d="M449.5,840.5v9h-9v-9H449.5 M450,840h-10v10h10V840L450,840z"/>
		</g>
	</g>
	<g>
		<g>
			<path class="st0" d="M499.5,40.5v9h-9v-9H499.5 M500,40h-10v10h10V40L500,40z"/>
		</g>
		<g>
			<path class="st0" d="M499.5,90.5v9h-9v-9H499.5 M500,90h-10v10h10V90L500,90z"/>
		</g>
		<g>
			<path class="st0" d="M499.5,140.5v9h-9v-9H499.5 M500,140h-10v10h10V140L500,140z"/>
		</g>
		<g>
			<path class="st0" d="M499.5,190.5v9h-9v-9H499.5 M500,190h-10v10h10V190L500,190z"/>
		</g>
		<g>
			<path class="st0" d="M499.5,240.5v9h-9v-9H499.5 M500,240h-10v10h10V240L500,240z"/>
		</g>
		<g>
			<path class="st0" d="M499.5,290.5v9h-9v-9H499.5 M500,290h-10v10h10V290L500,290z"/>
		</g>
		<g>
			<path class="st0" d="M499.5,340.5v9h-9v-9H499.5 M500,340h-10v10h10V340L500,340z"/>
		</g>
		<g>
			<path class="st0" d="M499.5,390.5v9h-9v-9H499.5 M500,390h-10v10h10V390L500,390z"/>
		</g>
		<g>
			<path class="st0" d="M499.5,440.5v9h-9v-9H499.5 M500,440h-10v10h10V440L500,440z"/>
		</g>
		<g>
			<path class="st0" d="M499.5,490.5v9h-9v-9H499.5 M500,490h-10v10h10V490L500,490z"/>
		</g>
		<g>
			<path class="st0" d="M499.5,540.5v9h-9v-9H499.5 M500,540h-10v10h10V540L500,540z"/>
		</g>
		<g>
			<path class="st0" d="M499.5,590.5v9h-9v-9H499.5 M500,590h-10v10h10V590L500,590z"/>
		</g>
		<g>
			<path class="st0" d="M499.5,640.5v9h-9v-9H499.5 M500,640h-10v10h10V640L500,640z"/>
		</g>
		<g>
			<path class="st0" d="M499.5,690.5v9h-9v-9H499.5 M500,690h-10v10h10V690L500,690z"/>
		</g>
		<g>
			<path class="st0" d="M499.5,740.5v9h-9v-9H499.5 M500,740h-10v10h10V740L500,740z"/>
		</g>
		<g>
			<path class="st0" d="M499.5,790.5v9h-9v-9H499.5 M500,790h-10v10h10V790L500,790z"/>
		</g>
		<g>
			<rect x="490.2" y="840.2" class="st0" width="9.5" height="9.5"/>
			<path class="st0" d="M499.5,840.5v9h-9v-9H499.5 M500,840h-10v10h10V840L500,840z"/>
		</g>
	</g>
	<g>
		<g>
			<path class="st0" d="M549.5,40.5v9h-9v-9H549.5 M550,40h-10v10h10V40L550,40z"/>
		</g>
		<g>
			<path class="st0" d="M549.5,90.5v9h-9v-9H549.5 M550,90h-10v10h10V90L550,90z"/>
		</g>
		<g>
			<path class="st0" d="M549.5,140.5v9h-9v-9H549.5 M550,140h-10v10h10V140L550,140z"/>
		</g>
		<g>
			<rect x="540.2" y="190.2" class="st0" width="9.5" height="9.5"/>
			<path class="st0" d="M549.5,190.5v9h-9v-9H549.5 M550,190h-10v10h10V190L550,190z"/>
		</g>
		<g>
			<path class="st0" d="M549.5,240.5v9h-9v-9H549.5 M550,240h-10v10h10V240L550,240z"/>
		</g>
		<g>
			<path class="st0" d="M549.5,290.5v9h-9v-9H549.5 M550,290h-10v10h10V290L550,290z"/>
		</g>
		<g>
			<path class="st0" d="M549.5,340.5v9h-9v-9H549.5 M550,340h-10v10h10V340L550,340z"/>
		</g>
		<g>
			<path class="st0" d="M549.5,390.5v9h-9v-9H549.5 M550,390h-10v10h10V390L550,390z"/>
		</g>
		<g>
			<path class="st0" d="M549.5,440.5v9h-9v-9H549.5 M550,440h-10v10h10V440L550,440z"/>
		</g>
		<g>
			<path class="st0" d="M549.5,490.5v9h-9v-9H549.5 M550,490h-10v10h10V490L550,490z"/>
		</g>
		<g>
			<path class="st0" d="M549.5,540.5v9h-9v-9H549.5 M550,540h-10v10h10V540L550,540z"/>
		</g>
		<g>
			<rect x="540.2" y="590.2" class="st0" width="9.5" height="9.5"/>
			<path class="st0" d="M549.5,590.5v9h-9v-9H549.5 M550,590h-10v10h10V590L550,590z"/>
		</g>
		<g>
			<path class="st0" d="M549.5,640.5v9h-9v-9H549.5 M550,640h-10v10h10V640L550,640z"/>
		</g>
		<g>
			<path class="st0" d="M549.5,690.5v9h-9v-9H549.5 M550,690h-10v10h10V690L550,690z"/>
		</g>
		<g>
			<path class="st0" d="M549.5,740.5v9h-9v-9H549.5 M550,740h-10v10h10V740L550,740z"/>
		</g>
		<g>
			<path class="st0" d="M549.5,790.5v9h-9v-9H549.5 M550,790h-10v10h10V790L550,790z"/>
		</g>
		<g>
			<path class="st0" d="M549.5,840.5v9h-9v-9H549.5 M550,840h-10v10h10V840L550,840z"/>
		</g>
	</g>
	<g>
		<g>
			<path class="st0" d="M599.5,40.5v9h-9v-9H599.5 M600,40h-10v10h10V40L600,40z"/>
		</g>
		<g>
			<rect x="590.2" y="90.2" class="st0" width="9.5" height="9.5"/>
			<path class="st0" d="M599.5,90.5v9h-9v-9H599.5 M600,90h-10v10h10V90L600,90z"/>
		</g>
		<g>
			<path class="st0" d="M599.5,140.5v9h-9v-9H599.5 M600,140h-10v10h10V140L600,140z"/>
		</g>
		<g>
			<path class="st0" d="M599.5,190.5v9h-9v-9H599.5 M600,190h-10v10h10V190L600,190z"/>
		</g>
		<g>
			<path class="st0" d="M599.5,240.5v9h-9v-9H599.5 M600,240h-10v10h10V240L600,240z"/>
		</g>
		<g>
			<path class="st0" d="M599.5,290.5v9h-9v-9H599.5 M600,290h-10v10h10V290L600,290z"/>
		</g>
		<g>
			<path class="st0" d="M599.5,340.5v9h-9v-9H599.5 M600,340h-10v10h10V340L600,340z"/>
		</g>
		<g>
			<path class="st0" d="M599.5,390.5v9h-9v-9H599.5 M600,390h-10v10h10V390L600,390z"/>
		</g>
		<g>
			<path class="st0" d="M599.5,440.5v9h-9v-9H599.5 M600,440h-10v10h10V440L600,440z"/>
		</g>
		<g>
			<path class="st0" d="M599.5,490.5v9h-9v-9H599.5 M600,490h-10v10h10V490L600,490z"/>
		</g>
		<g>
			<path class="st0" d="M599.5,540.5v9h-9v-9H599.5 M600,540h-10v10h10V540L600,540z"/>
		</g>
		<g>
			<path class="st0" d="M599.5,590.5v9h-9v-9H599.5 M600,590h-10v10h10V590L600,590z"/>
		</g>
		<g>
			<path class="st0" d="M599.5,640.5v9h-9v-9H599.5 M600,640h-10v10h10V640L600,640z"/>
		</g>
		<g>
			<rect x="590.2" y="690.2" class="st0" width="9.5" height="9.5"/>
			<path class="st0" d="M599.5,690.5v9h-9v-9H599.5 M600,690h-10v10h10V690L600,690z"/>
		</g>
		<g>
			<path class="st0" d="M599.5,740.5v9h-9v-9H599.5 M600,740h-10v10h10V740L600,740z"/>
		</g>
		<g>
			<path class="st0" d="M599.5,790.5v9h-9v-9H599.5 M600,790h-10v10h10V790L600,790z"/>
		</g>
		<g>
			<path class="st0" d="M599.5,840.5v9h-9v-9H599.5 M600,840h-10v10h10V840L600,840z"/>
		</g>
	</g>
	<g>
		<g>
			<path class="st0" d="M649.5,40.5v9h-9v-9H649.5 M650,40h-10v10h10V40L650,40z"/>
		</g>
		<g>
			<path class="st0" d="M649.5,90.5v9h-9v-9H649.5 M650,90h-10v10h10V90L650,90z"/>
		</g>
		<g>
			<path class="st0" d="M649.5,140.5v9h-9v-9H649.5 M650,140h-10v10h10V140L650,140z"/>
		</g>
		<g>
			<path class="st0" d="M649.5,190.5v9h-9v-9H649.5 M650,190h-10v10h10V190L650,190z"/>
		</g>
		<g>
			<path class="st0" d="M649.5,240.5v9h-9v-9H649.5 M650,240h-10v10h10V240L650,240z"/>
		</g>
		<g>
			<path class="st0" d="M649.5,290.5v9h-9v-9H649.5 M650,290h-10v10h10V290L650,290z"/>
		</g>
		<g>
			<path class="st0" d="M649.5,340.5v9h-9v-9H649.5 M650,340h-10v10h10V340L650,340z"/>
		</g>
		<g>
			<path class="st0" d="M649.5,390.5v9h-9v-9H649.5 M650,390h-10v10h10V390L650,390z"/>
		</g>
		<g>
			<path class="st0" d="M649.5,440.5v9h-9v-9H649.5 M650,440h-10v10h10V440L650,440z"/>
		</g>
		<g>
			<path class="st0" d="M649.5,490.5v9h-9v-9H649.5 M650,490h-10v10h10V490L650,490z"/>
		</g>
		<g>
			<path class="st0" d="M649.5,540.5v9h-9v-9H649.5 M650,540h-10v10h10V540L650,540z"/>
		</g>
		<g>
			<path class="st0" d="M649.5,590.5v9h-9v-9H649.5 M650,590h-10v10h10V590L650,590z"/>
		</g>
		<g>
			<path class="st0" d="M649.5,640.5v9h-9v-9H649.5 M650,640h-10v10h10V640L650,640z"/>
		</g>
		<g>
			<path class="st0" d="M649.5,690.5v9h-9v-9H649.5 M650,690h-10v10h10V690L650,690z"/>
		</g>
		<g>
			<path class="st0" d="M649.5,740.5v9h-9v-9H649.5 M650,740h-10v10h10V740L650,740z"/>
		</g>
		<g>
			<path class="st0" d="M649.5,790.5v9h-9v-9H649.5 M650,790h-10v10h10V790L650,790z"/>
		</g>
		<g>
			<path class="st0" d="M649.5,840.5v9h-9v-9H649.5 M650,840h-10v10h10V840L650,840z"/>
		</g>
	</g>
	<g>
		<g>
			<path class="st0" d="M699.5,40.5v9h-9v-9H699.5 M700,40h-10v10h10V40L700,40z"/>
		</g>
		<g>
			<path class="st0" d="M699.5,90.5v9h-9v-9H699.5 M700,90h-10v10h10V90L700,90z"/>
		</g>
		<g>
			<path class="st0" d="M699.5,140.5v9h-9v-9H699.5 M700,140h-10v10h10V140L700,140z"/>
		</g>
		<g>
			<path class="st0" d="M699.5,190.5v9h-9v-9H699.5 M700,190h-10v10h10V190L700,190z"/>
		</g>
		<g>
			<path class="st0" d="M699.5,240.5v9h-9v-9H699.5 M700,240h-10v10h10V240L700,240z"/>
		</g>
		<g>
			<path class="st0" d="M699.5,290.5v9h-9v-9H699.5 M700,290h-10v10h10V290L700,290z"/>
		</g>
		<g>
			<path class="st0" d="M699.5,340.5v9h-9v-9H699.5 M700,340h-10v10h10V340L700,340z"/>
		</g>
		<g>
			<path class="st0" d="M699.5,390.5v9h-9v-9H699.5 M700,390h-10v10h10V390L700,390z"/>
		</g>
		<g>
			<path class="st0" d="M699.5,440.5v9h-9v-9H699.5 M700,440h-10v10h10V440L700,440z"/>
		</g>
		<g>
			<path class="st0" d="M699.5,490.5v9h-9v-9H699.5 M700,490h-10v10h10V490L700,490z"/>
		</g>
		<g>
			<path class="st0" d="M699.5,540.5v9h-9v-9H699.5 M700,540h-10v10h10V540L700,540z"/>
		</g>
		<g>
			<path class="st0" d="M699.5,590.5v9h-9v-9H699.5 M700,590h-10v10h10V590L700,590z"/>
		</g>
		<g>
			<path class="st0" d="M699.5,640.5v9h-9v-9H699.5 M700,640h-10v10h10V640L700,640z"/>
		</g>
		<g>
			<path class="st0" d="M699.5,690.5v9h-9v-9H699.5 M700,690h-10v10h10V690L700,690z"/>
		</g>
		<g>
			<path class="st0" d="M699.5,740.5v9h-9v-9H699.5 M700,740h-10v10h10V740L700,740z"/>
		</g>
		<g>
			<path class="st0" d="M699.5,790.5v9h-9v-9H699.5 M700,790h-10v10h10V790L700,790z"/>
		</g>
		<g>
			<path class="st0" d="M699.5,840.5v9h-9v-9H699.5 M700,840h-10v10h10V840L700,840z"/>
		</g>
	</g>
	<g>
		<g>
			<path class="st0" d="M749.5,40.5v9h-9v-9H749.5 M750,40h-10v10h10V40L750,40z"/>
		</g>
		<g>
			<path class="st0" d="M749.5,90.5v9h-9v-9H749.5 M750,90h-10v10h10V90L750,90z"/>
		</g>
		<g>
			<path class="st0" d="M749.5,140.5v9h-9v-9H749.5 M750,140h-10v10h10V140L750,140z"/>
		</g>
		<g>
			<path class="st0" d="M749.5,190.5v9h-9v-9H749.5 M750,190h-10v10h10V190L750,190z"/>
		</g>
		<g>
			<path class="st0" d="M749.5,240.5v9h-9v-9H749.5 M750,240h-10v10h10V240L750,240z"/>
		</g>
		<g>
			<path class="st0" d="M749.5,290.5v9h-9v-9H749.5 M750,290h-10v10h10V290L750,290z"/>
		</g>
		<g>
			<path class="st0" d="M749.5,340.5v9h-9v-9H749.5 M750,340h-10v10h10V340L750,340z"/>
		</g>
		<g>
			<path class="st0" d="M749.5,390.5v9h-9v-9H749.5 M750,390h-10v10h10V390L750,390z"/>
		</g>
		<g>
			<path class="st0" d="M749.5,440.5v9h-9v-9H749.5 M750,440h-10v10h10V440L750,440z"/>
		</g>
		<g>
			<path class="st0" d="M749.5,490.5v9h-9v-9H749.5 M750,490h-10v10h10V490L750,490z"/>
		</g>
		<g>
			<rect x="740.2" y="540.2" class="st0" width="9.5" height="9.5"/>
			<path class="st0" d="M749.5,540.5v9h-9v-9H749.5 M750,540h-10v10h10V540L750,540z"/>
		</g>
		<g>
			<path class="st0" d="M749.5,590.5v9h-9v-9H749.5 M750,590h-10v10h10V590L750,590z"/>
		</g>
		<g>
			<path class="st0" d="M749.5,640.5v9h-9v-9H749.5 M750,640h-10v10h10V640L750,640z"/>
		</g>
		<g>
			<path class="st0" d="M749.5,690.5v9h-9v-9H749.5 M750,690h-10v10h10V690L750,690z"/>
		</g>
		<g>
			<path class="st0" d="M749.5,740.5v9h-9v-9H749.5 M750,740h-10v10h10V740L750,740z"/>
		</g>
		<g>
			<rect x="740.2" y="790.2" class="st0" width="9.5" height="9.5"/>
			<path class="st0" d="M749.5,790.5v9h-9v-9H749.5 M750,790h-10v10h10V790L750,790z"/>
		</g>
		<g>
			<path class="st0" d="M749.5,840.5v9h-9v-9H749.5 M750,840h-10v10h10V840L750,840z"/>
		</g>
	</g>
	<g>
		<g>
			<path class="st0" d="M799.5,40.5v9h-9v-9H799.5 M800,40h-10v10h10V40L800,40z"/>
		</g>
		<g>
			<path class="st0" d="M799.5,90.5v9h-9v-9H799.5 M800,90h-10v10h10V90L800,90z"/>
		</g>
		<g>
			<rect x="790.2" y="140.2" class="st0" width="9.5" height="9.5"/>
			<path class="st0" d="M799.5,140.5v9h-9v-9H799.5 M800,140h-10v10h10V140L800,140z"/>
		</g>
		<g>
			<path class="st0" d="M799.5,190.5v9h-9v-9H799.5 M800,190h-10v10h10V190L800,190z"/>
		</g>
		<g>
			<path class="st0" d="M799.5,240.5v9h-9v-9H799.5 M800,240h-10v10h10V240L800,240z"/>
		</g>
		<g>
			<rect x="790.2" y="290.2" class="st0" width="9.5" height="9.5"/>
			<path class="st0" d="M799.5,290.5v9h-9v-9H799.5 M800,290h-10v10h10V290L800,290z"/>
		</g>
		<g>
			<path class="st0" d="M799.5,340.5v9h-9v-9H799.5 M800,340h-10v10h10V340L800,340z"/>
		</g>
		<g>
			<rect x="790.2" y="390.2" class="st0" width="9.5" height="9.5"/>
			<path class="st0" d="M799.5,390.5v9h-9v-9H799.5 M800,390h-10v10h10V390L800,390z"/>
		</g>
		<g>
			<path class="st0" d="M799.5,440.5v9h-9v-9H799.5 M800,440h-10v10h10V440L800,440z"/>
		</g>
		<g>
			<path class="st0" d="M799.5,490.5v9h-9v-9H799.5 M800,490h-10v10h10V490L800,490z"/>
		</g>
		<g>
			<path class="st0" d="M799.5,540.5v9h-9v-9H799.5 M800,540h-10v10h10V540L800,540z"/>
		</g>
		<g>
			<path class="st0" d="M799.5,590.5v9h-9v-9H799.5 M800,590h-10v10h10V590L800,590z"/>
		</g>
		<g>
			<path class="st0" d="M799.5,640.5v9h-9v-9H799.5 M800,640h-10v10h10V640L800,640z"/>
		</g>
		<g>
			<path class="st0" d="M799.5,690.5v9h-9v-9H799.5 M800,690h-10v10h10V690L800,690z"/>
		</g>
		<g>
			<path class="st0" d="M799.5,740.5v9h-9v-9H799.5 M800,740h-10v10h10V740L800,740z"/>
		</g>
		<g>
			<path class="st0" d="M799.5,790.5v9h-9v-9H799.5 M800,790h-10v10h10V790L800,790z"/>
		</g>
		<g>
			<path class="st0" d="M799.5,840.5v9h-9v-9H799.5 M800,840h-10v10h10V840L800,840z"/>
		</g>
	</g>
</g>
</svg>
